<svg id="Draw" xmlns="http://www.w3.org/2000/svg" viewBox="0 0 620.57 185.12"><defs><style>.cls-1{fill:#b99727;}</style></defs><path class="cls-1" d="M199.12,79.8a52.38,52.38,0,0,1-5.74-.14l-1.54-.16c.91.09-.18,0-.51-.09q-1.41-.24-2.79-.6a28,28,0,0,1-2.69-.86l-.52-.21c.84.34.22.1,0,0-.44-.23-.89-.44-1.32-.68s-.85-.49-1.26-.76c-.17-.11-1.13-.82-.75-.52s-.07-.06-.12-.11l-.56-.5c-.36-.33-.71-.68-1-1-.18-.2-1-1.32-.36-.39-.21-.33-.44-.64-.65-1s-.4-.66-.58-1c-.1-.19-.19-.4-.3-.59-.25-.49-.09-.1.06.17a10.81,10.81,0,0,1-.78-2.35c-.1-.38-.18-.75-.25-1.14a3.08,3.08,0,0,1-.12-.65c0,.25.09.82,0,.2a21.16,21.16,0,0,1-.11-2.52c0-.39,0-.79.05-1.18,0-.23,0-.45.06-.68.06-.72.08.11,0,.18a6.54,6.54,0,0,0,.24-1.34q.12-.59.27-1.17c.22-.83.5-1.64.79-2.45s0,0-.07.11c.09-.21.19-.42.28-.62q.25-.55.54-1.08a21.52,21.52,0,0,1,1.34-2.2c.14-.21,1-1.28.32-.46.26-.3.51-.61.78-.91a24.72,24.72,0,0,1,1.94-1.89c.16-.13,1.37-1,.57-.48.36-.25.71-.51,1.08-.76a28,28,0,0,1,2.42-1.44c.44-.24.89-.46,1.34-.67l.52-.24c.61-.29-.67.25,0,0,.89-.33,1.77-.67,2.68-.94s1.84-.51,2.77-.71c.44-.09.88-.18,1.32-.25s1.65-.23.7-.13a46.52,46.52,0,0,1,5.78-.29c1,0,1.93.07,2.89.15l1.34.13c.19,0,.88.13-.06,0l.76.11a56.7,56.7,0,0,1,6.69,1.5c2.21.63,4.37,1.37,6.51,2.2.57.22,1.14.44,1.71.68l.64.26.19.08c1.06.46,2.11.93,3.16,1.41,4.18,1.93,8.29,4,12.41,6.09,8.46,4.22,17,8.33,25.74,11.92,16.28,6.67,33.8,11.25,51.53,10.07a76.46,76.46,0,0,0,25-5.84c7.63-3.25,16.28-8.19,19.48-16.27a13.44,13.44,0,0,0,.56-7.08c-.35-2.34-3.42-3.83-5.54-3.15-2.55.83-3.52,3-3.14,5.54-.16-1.06-.05.41-.06.66s-.12.67,0,.12-.06.15-.1.3c-.08.32-.45,1.29-.09.48a12.58,12.58,0,0,1-.8,1.49c-.14.23-.82,1.17-.3.5-.28.36-.58.7-.89,1a23.61,23.61,0,0,1-2.31,2.16c-.1.08-.75.58-.31.25l-.17.12-1.31.91c-.9.6-1.81,1.18-2.74,1.72a54.32,54.32,0,0,1-5.35,2.79c-.17.08-1.61.71-.76.35l-1.31.53c-1,.39-2,.75-3,1.09q-2.88.94-5.82,1.64c-2,.48-4.1.86-6.17,1.17l-.21,0c.57-.08-.28,0-.41.05l-1.41.16c-1.09.11-2.17.2-3.26.26a88,88,0,0,1-12.47-.13c-1-.09-2-.19-3.05-.3l-1.42-.18c-.72-.08.69.11,0,0l-1-.15c-2.12-.32-4.22-.72-6.31-1.18a131.22,131.22,0,0,1-13.48-3.73c-2.24-.75-4.48-1.56-6.69-2.41l-3-1.17-1.7-.69-.64-.27-.41-.17c-8.64-3.65-17-7.85-25.41-12s-17.22-8.63-26.57-10.78c-8.28-1.9-17.23-2.08-25.32.77-7.74,2.72-14.58,8-17.85,15.66-3.12,7.3-3.47,16.07.78,23,4.68,7.66,13.38,10.74,21.92,11.47a52.38,52.38,0,0,0,5.74.14,4.5,4.5,0,0,0,0-9Z" transform="translate(-168.31 -36.32)"/><path class="cls-1" d="M222.79,213.61c23.48-1.05,39.27-22.73,47.91-42.4a130.26,130.26,0,0,0,10-68.62A128.1,128.1,0,0,0,269.53,64a4.53,4.53,0,0,0-6.16-1.61,4.62,4.62,0,0,0-1.61,6.15c.58,1.24,1.14,2.48,1.68,3.73s-.19-.49.11.24l.39.94c.28.7.56,1.4.82,2.09q1.51,3.91,2.73,7.92a123.38,123.38,0,0,1,3.72,15.89c.11.67.21,1.34.31,2l.15,1c.12.79-.13-1.08,0,.22s.34,2.84.47,4.26q.39,4.17.51,8.37a127.24,127.24,0,0,1-.6,16.33c-.07.68-.14,1.35-.22,2,0,.27-.07.54-.1.81s-.19,1.47-.05.43c-.18,1.35-.39,2.69-.62,4-.47,2.75-1,5.49-1.68,8.2a122.62,122.62,0,0,1-4.91,15.78c-.24.63-.49,1.27-.75,1.9l-.31.75c-.51,1.25.36-.8-.18.43s-1.1,2.49-1.69,3.72q-1.79,3.8-3.84,7.44c-1.29,2.29-2.67,4.53-4.16,6.7-.66.95-1.33,1.89-2,2.82-.08.1-.87,1.1-.24.31l-.48.6c-.48.61-1,1.2-1.48,1.79a61.22,61.22,0,0,1-6,6.15c-.52.46-1.05.91-1.58,1.35l-.88.71c.61-.48,0,0-.29.2-1.1.81-2.23,1.57-3.4,2.28a40.47,40.47,0,0,1-3.73,2l-.83.38c-1.11.5.87-.32-.27.11-.69.25-1.37.51-2.07.74a34.84,34.84,0,0,1-3.9,1l-1.09.19c-1,.17.81-.07-.27,0-.74.07-1.49.13-2.24.16a4.5,4.5,0,1,0,0,9Z" transform="translate(-168.31 -36.32)"/><path class="cls-1" d="M297.84,174.7c1.31-3.26,2.22-6.37,1.51-9.89-.26-1.32-.69-2.61-1-3.92-.23-1-.43-2-.6-3,0-.23-.07-.46-.11-.68s-.14-1-.07-.52,0-.25,0-.28c-.05-.43-.09-.86-.13-1.29a43,43,0,0,1-.12-6.11q0-.78.12-1.56c0-.19,0-.38.05-.57s.1-1,0-.36,0-.21.05-.35l.09-.56c.09-.57.2-1.13.32-1.69a66.67,66.67,0,0,1,3.8-11.68c.2-.48,0,0,0,.08.11-.26.22-.53.34-.8.23-.54.47-1.08.71-1.62.45-1,.89-2.05,1.4-3a20.77,20.77,0,0,1,1.27-2.19c.13-.2.27-.39.41-.59-.09.13-.58.68,0,.06.31-.35.62-.69,1-1,.17-.16.34-.31.52-.45-.14.11-.76.47-.09.11l.42-.25c.21-.12.77-.2.21-.11s.12,0,.23,0c.56,0-.44,0-.39,0s.58,0,.68,0c.79-.07-.41-.19,0,0,1,.45-.32-.31.37.12l.59.38c-.18-.12-.61-.59-.11,0,.15.17.33.36.49.52-.06,0-.4-.62-.17-.2.11.21.26.41.38.62s.33.94.07.07c.12.39.22.81.35,1.2.18.55,0-.61,0,.06,0,.22,0,.44,0,.66s-.15,1.82,0,1a16.09,16.09,0,0,1-.46,1.94c-.14.49-.32,1-.49,1.47,0,.1-.31.8-.05.16-.1.25-.22.5-.34.75q-.65,1.4-1.41,2.73c-.44.77-.92,1.54-1.43,2.28-.28.42-.59.83-.89,1.25l.12-.15c-.2.25-.4.5-.61.74a32.6,32.6,0,0,1-4.2,4.19l-.3.24c.46-.36-.47.34-.46.34-.41.29-.83.58-1.26.85a29.52,29.52,0,0,1-3,1.69c-.18.08-.37.16-.54.25-.44.22.49-.17-.27.12-.59.22-1.18.43-1.78.62a27.72,27.72,0,0,1-3.46.85l-.83.13c.66-.09.08,0-.26,0-.56.05-1.12.09-1.68.1a32.14,32.14,0,0,1-3.54-.15c.83.07.13,0,0,0-.34-.06-.69-.11-1-.18-.61-.13-1.22-.28-1.82-.45s-1.06-.33-1.58-.52c-.26-.09-.52-.19-.77-.3.72.3-.27-.15-.45-.24-2.11-1-5-.64-6.16,1.62-1.07,2-.64,5.05,1.62,6.15a31,31,0,0,0,30.13-1.91,38,38,0,0,0,10.62-10.37c2.9-4.17,5.28-9.17,5.61-14.29.35-5.59-3-11.66-8.76-13s-10.27,2.31-13.12,6.76a45.45,45.45,0,0,0-3.1,6.35c-1.07,2.47-2.11,5-3,7.48a53,53,0,0,0-3,13.58A51,51,0,0,0,290,164.39c.2.77.43,1.54.61,2.31.06.23.25,1.45.13.48s0,.12,0,.35,0,.27,0,.39c0,.74.26-1.11.05-.34-.11.41-.18.83-.3,1.25a36,36,0,0,1-1.26,3.47c-.88,2.19,1,5,3.14,5.54,2.61.59,4.6-.8,5.54-3.14Z" transform="translate(-168.31 -36.32)"/><path class="cls-1" d="M259.66,180.9c2.95,10.67,10.93,19.25,20.8,24a50.27,50.27,0,0,0,34.35,3.17c23.59-5.85,43.39-24.42,56.81-44a132.11,132.11,0,0,0,22.81-66.51c.32-5.46,1-12-1-17.18-2.51-6.66-8.79-8.46-15.33-6.9C367,76.17,359,85.89,354.28,95.82c-10.65,22.49-11.5,49.72-3.92,73.26A100.33,100.33,0,0,0,358,186.9c3,5.43,7,10.24,13.34,11.75S384,198.58,390,197c6.26-1.65,12.52-3.32,18.7-5.26a161.57,161.57,0,0,0,19.16-7.27c5.77-2.66,11.78-5.67,16.37-10.14,4.17-4.08,7-9.72,5.57-15.65-1.23-5.06-5.45-8.52-10.29-10-10.18-3-20.79,1.87-28.32,8.56a45.39,45.39,0,0,0-14.53,27.82c-1.41,10.86,1,25.16,12.49,29.58,5.59,2.16,12.06,1.53,17.84.63a61.58,61.58,0,0,0,15.31-4.65c19.46-8.56,34.91-27.19,39.37-48A61.12,61.12,0,0,0,483,147c-.26-5.75-9.12-5.82-9,0,.23,10.85-5.64,20.69-6.22,31.49-.53,9.67,3.26,19.69,12.77,23.52,8.84,3.56,19.48.41,26.9-5a51.7,51.7,0,0,0,19.48-53.36L518.2,146c2.68,8-.27,16.44-2,24.31-1.83,8.25-3.08,17.62,2,25,10.34,15.06,33.62,8.86,42-5.06,4-6.76,5.29-15.07,6.21-22.75a162.25,162.25,0,0,0,1-25c-.12-3.46.51-8.77-3.31-10.4-2.73-1.16-5.67.34-8,1.69-4.3,2.46-11.56,7.19-11.37,12.9.12,4,3.94,5.73,7.08,7.16,3.36,1.53,7,3.2,10.65,3.81,2.74.45,5.55-.32,8.27-.7l10.22-1.44,21.48-3L596.79,147a98.42,98.42,0,0,0-.7,34.06c1.31,8.45,5.49,18.73,15.76,18.26,8.88-.41,15-9.24,18.35-16.56s6.76-14.8,12.72-20.18a14.75,14.75,0,0,1,19.26-1c7.48,5.58,9.6,14.91,8.74,23.79a63.18,63.18,0,0,1-3.89,15.4c-1.46,4-3.14,8.8-7.34,10.63-7.27,3.16-16.31-.48-21.73-5.54-14.64-13.65-8.2-36.35,7.81-45.8L639,156.18a32.13,32.13,0,0,0,23.83,29.66c12.53,3.25,26.4-.29,37.13-7.12,24.27-15.44,35.06-45.19,37.57-72.6,1.73-19-.1-38.08-1.92-57-.55-5.66-9-5.91-9,0l-.19,49.58c-.06,14-.6,28.18.69,42.18,1.12,12.25,3.66,24.8,10.25,35.37,6.26,10,16.08,18.19,28.35,18.66,6.36.25,12.61-2.25,16.31-7.55,4.32-6.19,2.68-14.16,6.24-20.5,2.84-5.06-4.93-9.6-7.77-4.54-3.09,5.5-2.66,11.63-4.65,17.44-1.37,4-4.7,6.06-8.86,6.16-10.05.25-17.86-7.33-22.61-15.47-5.47-9.38-7.53-20.43-8.4-31.13-1-12.81-.61-25.72-.56-38.56l.2-51.64h-9c2.76,28.7,5.68,58.73-4.6,86.36C714.28,156.26,696.77,178,672.65,178c-12.72,0-24-8.61-24.65-21.86a4.55,4.55,0,0,0-6.77-3.89c-16.9,10-26.17,32-16.94,50.27a35.43,35.43,0,0,0,20.81,17.6c10.08,3.08,21.63.78,27.1-8.87a66.05,66.05,0,0,0,5.95-15.85A52,52,0,0,0,680,177.89c-.93-10.23-6-20-15.1-25.27A23.35,23.35,0,0,0,639,154.2c-7.27,5.42-11.8,13.65-15.55,21.72-2.12,4.55-4.22,9.49-8.26,12.7-3.09,2.45-6.29,2.06-8.18-1.53-2.62-5-2.84-11.66-3.08-17.14a87.6,87.6,0,0,1,1.52-20.57c.71-3.64-2.05-6-5.53-5.54l-27.62,3.89-7.15,1c-2,.28-.46.1-1.32.14,1.22,0,.06,0-.37-.13a52.58,52.58,0,0,1-6.45-2.29c-1.12-.49-2.24-1-3.32-1.59-.35-.2-.7-.42-1.05-.6-.85-.45.34.59,0,0a3.21,3.21,0,0,1,.94,2.18q-.21,1.19,0,.45c.26.48-.64.61.15,0-.76.62.09-.11.26-.29.41-.43.82-.85,1.25-1.25a30.17,30.17,0,0,1,7-4.71c-1,.48-.14,0,.08,0a3.45,3.45,0,0,1,.46-.12,3.66,3.66,0,0,1-3.56-1l-1.16-2c-.44-1.25,0,0,0,.42s0,.71.07,1.07c.05.95.1,1.9.13,2.85.09,2.23.13,4.47.13,6.7,0,4.75-.18,9.51-.58,14.24-.66,7.84-1.55,17.29-6.07,23.84-4.09,5.92-12.71,9.86-19.79,8.06-8.33-2.11-9.17-11-7.9-18.21,1.91-10.8,6.44-22,2.78-32.93-1.83-5.46-10-3.27-8.68,2.4a42.82,42.82,0,0,1-12.76,41c-5.1,4.66-12.69,8.69-19.82,7.14-7.67-1.67-9.36-9.72-8.84-16.5.35-4.76,2-9.36,3.33-13.91,1.61-5.47,3-11.06,2.84-16.81h-9c.84,18.08-7.87,35.18-21.49,46.76a57.07,57.07,0,0,1-23.28,12A42,42,0,0,1,415.83,207c-5.1-.42-8-3.33-9.41-8.13-4.69-15.87,5-36.06,21.11-41.18,4.34-1.38,16.38-1.36,13.23,6.26-1.85,4.49-6.9,7.23-10.92,9.43a111.2,111.2,0,0,1-15.28,6.85,221.26,221.26,0,0,1-32.72,9.45c-4.56.91-9.58,1.1-12.94-2.63s-5.46-8.93-7.32-13.44a95.31,95.31,0,0,1-3.37-62.84c2.66-9,6.73-18.64,14.29-24.65a21.69,21.69,0,0,1,4.72-2.88c1.63-.72,4.41-1.83,6.23-1.35,3.22.86,2.21,8.41,2.17,10.79a121.94,121.94,0,0,1-16.12,57.85c-10.09,17.71-24.8,33.8-43,43.4-16.67,8.83-38.56,10.36-52.29-4.67a26.21,26.21,0,0,1-5.91-10.77c-1.55-5.57-10.23-3.21-8.68,2.39Z" transform="translate(-168.31 -36.32)"/><path class="cls-1" d="M769.12,93.24,732.76,94.4a4.5,4.5,0,0,0,0,9l36.36-1.16a4.5,4.5,0,0,0,0-9Z" transform="translate(-168.31 -36.32)"/></svg>