<svg id="Draw" xmlns="http://www.w3.org/2000/svg" viewBox="0 0 949.42 477.83"><defs><style>.cls-1{fill:#b99727;}</style></defs><g id="F"><path class="cls-1" d="M273.31,6c-16.89,5.31-32.91,13.18-48.17,22.09-13.77,8-27.11,16.81-40.41,25.59s-26.68,17.85-39.89,27q-20.35,14-40.51,28.38-19,13.5-37.74,27.24l-4.39,3.21c-2.27,1.67-4.05,3.46-4.82,6.28a10.73,10.73,0,0,0,1,8.09,10.58,10.58,0,0,0,6.28,4.82c2.59.59,5.85.59,8.09-1.05q17.3-12.72,34.77-25.2,18.59-13.31,37.35-26.35t37.82-25.86c11.89-8,23.85-15.86,35.95-23.54,13.41-8.51,27.09-16.69,41.56-23.3q2.69-1.22,5.4-2.37L263.14,32c5.16-2.17,10.41-4.12,15.75-5.8a11.07,11.07,0,0,0,6.28-4.83,10.78,10.78,0,0,0,1.06-8.09A10.52,10.52,0,0,0,273.31,6Z" transform="translate(-28.59 -5.56)"/><path class="cls-1" d="M90.38,97.71q-5.77,35.92-11.48,71.88-5.81,36.51-11.65,73-5.94,36.95-12,73.87-6,36.54-12.22,73-6.13,36-12.59,71.93-.8,4.38-1.58,8.76a11.27,11.27,0,0,0,1.05,8.09,10.72,10.72,0,0,0,6.28,4.82c5.14,1.17,11.87-1.55,12.91-7.33Q55.63,440,61.76,404.11,68,367.66,74,331.19q6.09-36.93,12-73.87,5.88-36.56,11.68-73.13,5.75-36.06,11.51-72.11c.47-2.93.93-5.86,1.4-8.79s.47-5.48-1.05-8.09a10.72,10.72,0,0,0-6.28-4.82c-5-1.15-12,1.53-12.91,7.33Z" transform="translate(-28.59 -5.56)"/><path class="cls-1" d="M193.73,186.38c-22,17.28-43.82,34.78-65.81,52.08-21.54,16.95-43.06,34-63.92,51.78-10.9,9.31-21.63,18.84-31.92,28.84-3.95,3.83-4.14,11.05,0,14.84a10.69,10.69,0,0,0,14.84,0c18.91-18.35,39.2-35.26,59.67-51.83,20.9-16.92,42.15-33.38,63.2-50.09,12.93-10.25,25.81-20.57,38.79-30.77,2-1.55,3.07-5,3.07-7.42a10.69,10.69,0,0,0-3.07-7.43,10.55,10.55,0,0,0-7.43-3.07l-2.79.37a10.49,10.49,0,0,0-4.63,2.7Z" transform="translate(-28.59 -5.56)"/></g><path class="cls-1" d="M283.67,146.17a256.88,256.88,0,0,1-14.16,53.58q-2.77,7.41-5.86,14.7l1.06-2.51c-5.39,12.73-11.37,25.19-17.58,37.53S234.4,274.19,228,286.55s-12.62,24.82-18.39,37.5a407.77,407.77,0,0,0-16.08,40.29A245.08,245.08,0,0,0,183.81,404c-.38,2.49-.71,5-1,7.48s1.4,5.76,3.07,7.43a10.51,10.51,0,0,0,14.85,0l1.64-2.13a10.49,10.49,0,0,0,1.44-5.3c0-.27.07-.54.1-.82l-.37,2.8a254.75,254.75,0,0,1,14.2-54.56c1.86-5,3.85-10,5.92-14.88l-1.05,2.5c10.68-25.28,23.7-49.47,36.26-73.85,12.84-24.92,25.29-50.22,34.31-76.82a247,247,0,0,0,10.78-44.12c.42-2.91.5-5.44-1.05-8.09a10.51,10.51,0,0,0-14.37-3.76c-2.13,1.37-4.45,3.64-4.83,6.27Z" transform="translate(-28.59 -5.56)"/><path class="cls-1" d="M284.29,344.62a132,132,0,0,1,18.26-4.84c7.27-1.5,14.59-2.76,21.89-4.08,14.82-2.68,29.94-5.38,44-11,7.48-3,14.33-6.51,20.54-11.7a41.53,41.53,0,0,0,7.32-8.22,25.45,25.45,0,0,0,2-3.38,15.71,15.71,0,0,0,1.92-7,38,38,0,0,0-.34-6.12c-.43-3.93-1-7.86-1.59-11.76-.95-6.12-2-12.23-3.39-18.27a26.7,26.7,0,0,0-2.28-7c-2.66-4.9-8.18-7.33-13.59-7.18a36.4,36.4,0,0,0-11.56,2.48,98.19,98.19,0,0,0-12,5.4c-7.53,4-14.14,9.71-20.32,15.55a177.92,177.92,0,0,0-20.89,24.07c-12.27,16.72-21.51,35.32-29.48,54.4-3.86,9.23-7.34,18.62-10.58,28.09a74.59,74.59,0,0,0-2.42,7.74,27.75,27.75,0,0,0-.12,12.43,25.31,25.31,0,0,0,9,13.71,42,42,0,0,0,15.64,7.88,67,67,0,0,0,18.46,1.9c12.34-.33,24.48-3.37,36.05-7.53,11.82-4.27,23.35-9.42,34.8-14.58q16.51-7.42,32.69-15.58,7.76-3.9,15.44-8c4.86-2.57,6.75-9.74,3.77-14.37A10.73,10.73,0,0,0,423.05,354q-25.28,13.38-51.43,25-7.38,3.28-14.81,6.42l2.51-1.05c-12.61,5.31-25.58,10.23-39.21,12.09l2.79-.37a72,72,0,0,1-18.78.12l2.79.38A40.29,40.29,0,0,1,297,394l2.51,1.06a29.72,29.72,0,0,1-6.24-3.57l2.13,1.64a20.23,20.23,0,0,1-3.5-3.42l1.64,2.13a16,16,0,0,1-2.09-3.54l1.06,2.51a14.47,14.47,0,0,1-.9-3.4l.37,2.79a16.21,16.21,0,0,1,0-3.75l-.38,2.79a58.76,58.76,0,0,1,3.06-10.51q1.63-4.74,3.36-9.46,3.46-9.48,7.37-18.79l-1.06,2.5A263.49,263.49,0,0,1,327,309.85q3.78-5.7,8-11.12l-1.65,2.12a154.48,154.48,0,0,1,27.17-27.51L358.37,275a65.43,65.43,0,0,1,14.48-8.14l-2.51,1.06a40.5,40.5,0,0,1,10-3l-2.79.38a12.12,12.12,0,0,1,3-.06l-2.79-.37a5.85,5.85,0,0,1,1.42.38l-2.51-1.06a4.38,4.38,0,0,1,.75.45l-2.12-1.64a3.86,3.86,0,0,1,.49.5l-1.64-2.12a2.8,2.8,0,0,1,.37.65l-1.05-2.51a44.07,44.07,0,0,1,1.84,7.45c.87,4.25,1.64,8.53,2.34,12.82q.62,3.7,1.12,7.43l-.38-2.79c.46,3.37,1.23,7.13.78,10.54l.38-2.79a3.39,3.39,0,0,1-.13.55l1.05-2.51a23.86,23.86,0,0,1-3.09,5.09l1.64-2.13a33.85,33.85,0,0,1-6,5.91l2.13-1.64a60,60,0,0,1-13.29,7.5l2.51-1.06c-10.94,4.6-22.65,7.23-34.26,9.52s-23.6,4.13-35.31,6.65a122.08,122.08,0,0,0-16.08,4.39,11.28,11.28,0,0,0-6.28,4.82,10.52,10.52,0,0,0,3.77,14.37c2.39,1.26,5.46,2,8.09,1.05Z" transform="translate(-28.59 -5.56)"/><path class="cls-1" d="M551.76,209.08q-1.57,23.28-4.69,46.42l.38-2.79A709.29,709.29,0,0,1,529,344.13q-1.71,6.27-3.53,12.5a102.83,102.83,0,0,1-3.56,10.86l1.06-2.51a28.33,28.33,0,0,1-3.28,5.83l1.64-2.13a17.77,17.77,0,0,1-3.07,3.12l2.13-1.64a16.5,16.5,0,0,1-3.4,2l2.51-1.06a15.59,15.59,0,0,1-3.6,1l2.79-.37a18.42,18.42,0,0,1-4.75,0l2.79.37a24.36,24.36,0,0,1-5.8-1.66l2.51,1.06A34.4,34.4,0,0,1,506,367l2.13,1.65a41.86,41.86,0,0,1-7.18-7.27l1.64,2.12a75,75,0,0,1-9.64-16.66l1.06,2.51A96.59,96.59,0,0,1,487.56,325l.37,2.79c-1.72-13.05-1.08-26.25.66-39.26l-.38,2.79c1.55-11.44,3.91-22.75,6.28-34a11.11,11.11,0,0,0-1.05-8.09,10.74,10.74,0,0,0-6.28-4.83,10.51,10.51,0,0,0-12.92,7.34c-4.94,23.52-10.13,47.8-7.78,72a126.49,126.49,0,0,0,2.82,17.53A103.33,103.33,0,0,0,475,357.83a76.18,76.18,0,0,0,7.28,13.29,55.66,55.66,0,0,0,11,12.39c4.77,3.74,10,7,15.94,8.4a27.63,27.63,0,0,0,19.44-2.16c11.13-5.75,14.5-18.77,17.69-29.85a705.7,705.7,0,0,0,16.25-69.29c4.38-24.11,7.58-48.47,9.53-72.89q.36-4.32.64-8.64a10.49,10.49,0,0,0-17.92-7.42,11.56,11.56,0,0,0-3.08,7.42Z" transform="translate(-28.59 -5.56)"/><g id="r"><path class="cls-1" d="M607.83,211.88c.06.48.13,1,.19,1.43l-.37-2.79a380.81,380.81,0,0,1,2.29,79q-.84,11.16-2.34,22.26L608,309c-1.52,11.2-3.59,22.29-6,33.32s-5,22.48-4.6,33.88a54.64,54.64,0,0,0,3.83,19.38,11.78,11.78,0,0,0,4.83,6.28,10.78,10.78,0,0,0,8.09,1.06,10.64,10.64,0,0,0,6.27-4.83c1.22-2.31,2.13-5.56,1.06-8.09a44.88,44.88,0,0,1-3-11.37l.37,2.79a71.45,71.45,0,0,1,.34-18.07l-.37,2.79c1.31-9.7,3.8-19.18,5.7-28.77,2.14-10.84,3.79-21.77,5.06-32.74a380.76,380.76,0,0,0,2.09-61.51c-.57-12.33-1.83-24.59-3.51-36.81-.33-2.41-2.84-5.11-4.83-6.28a10.48,10.48,0,0,0-14.36,3.77l-1.06,2.51a10.57,10.57,0,0,0,0,5.58Z" transform="translate(-28.59 -5.56)"/><path class="cls-1" d="M734.46,175.49c-6.46,1.14-12.91,2.28-19.24,4a139.35,139.35,0,0,0-15.31,5.08A181.6,181.6,0,0,0,667.8,201a191.56,191.56,0,0,0-52.31,50,147,147,0,0,0-18.11,34.7c-.89,2.44-.22,5.92,1,8.09a10.52,10.52,0,0,0,14.37,3.77,11.77,11.77,0,0,0,4.82-6.28q1.08-2.94,2.28-5.83l-1,2.51a145.06,145.06,0,0,1,18.93-32l-1.64,2.12a180.23,180.23,0,0,1,32.12-32l-2.13,1.65a175.39,175.39,0,0,1,38.69-22.76l-2.51,1.06a145.55,145.55,0,0,1,17.06-6A210.88,210.88,0,0,1,740,195.74c2.45-.44,5.06-2.76,6.27-4.83a10.69,10.69,0,0,0,1.06-8.09,10.58,10.58,0,0,0-4.82-6.27,11.85,11.85,0,0,0-8.09-1.06Z" transform="translate(-28.59 -5.56)"/></g><path class="cls-1" d="M736.29,340.38c-6.79-1.64-14.06-1.71-20.58-4.38l2.51,1.05a19,19,0,0,1-4-2.3l2.13,1.64a16,16,0,0,1-2.71-2.69l1.64,2.13a31.08,31.08,0,0,1-3.61-6.72l1.06,2.5a34.83,34.83,0,0,1-2.43-8.61l.37,2.79c-.6-4.59-.48-9.28-.63-13.9a107.14,107.14,0,0,1,.73-17.36l-.37,2.79a66.16,66.16,0,0,1,4.44-16.83l-1,2.51a52.83,52.83,0,0,1,6.66-11.39l-1.64,2.12a59.13,59.13,0,0,1,10.54-10.43l-2.12,1.64a74.8,74.8,0,0,1,16.21-9.32l-2.51,1.06a99.23,99.23,0,0,1,25.5-6.81l-2.79.37c5.12-.67,10.38-1.2,15.53-.55l-2.79-.37a23.84,23.84,0,0,1,5.86,1.57l-2.51-1.06a22.56,22.56,0,0,1,4.19,2.46l-2.13-1.64a26.81,26.81,0,0,1,4.74,4.78l-1.64-2.13a44.24,44.24,0,0,1,5.46,9.66l-1.06-2.51a79.73,79.73,0,0,1,5.33,19.76l-.38-2.79a83.7,83.7,0,0,1,0,21.91l.37-2.79a81.22,81.22,0,0,1-5.49,20.31l1.06-2.51C786,324.17,779.89,333,773.4,341.39l1.65-2.12c-7.88,10.2-16.3,20.15-26.5,28.11l2.12-1.65a74,74,0,0,1-16.27,9.69l2.51-1.05a22.92,22.92,0,0,1-5.64,1.81l2.79-.38a8,8,0,0,1-1.7,0l2.79.37a10.33,10.33,0,0,1-1.9-.63l2.51,1.06a36.61,36.61,0,0,1-7.79-4.21l2.12,1.64a5.74,5.74,0,0,1-1-1l1.64,2.12a2.46,2.46,0,0,1-.19-.32l1.06,2.51a.76.76,0,0,1-.06-.2l.37,2.79a.61.61,0,0,1,0-.19l-.38,2.79a1.09,1.09,0,0,1,.05-.17l-1.05,2.51.05-.08c2.94-4.65,1.12-11.78-3.77-14.37a10.73,10.73,0,0,0-14.37,3.77,11.29,11.29,0,0,0,.05,11.4,16.86,16.86,0,0,0,5.14,5.09,35.36,35.36,0,0,0,5.73,3.2c3.41,1.6,6.82,3.23,10.71,2.91,5.13-.42,9.87-2.59,14.44-4.84a90.27,90.27,0,0,0,18.82-13,136.74,136.74,0,0,0,14.46-14.82c5.22-6.13,10.21-12.51,14.88-19.07a106.78,106.78,0,0,0,11.46-19.77,88.71,88.71,0,0,0,6.69-23A91,91,0,0,0,809,253.62a52,52,0,0,0-5-9.53,40.67,40.67,0,0,0-9.82-10.15c-7.2-5.23-16.56-6-25.15-5.28A123.4,123.4,0,0,0,748.36,232a90.21,90.21,0,0,0-36.78,18.78,65,65,0,0,0-21,37.9,120.42,120.42,0,0,0-1.52,24.51c.19,6.46.05,13,1.76,19.34a57.63,57.63,0,0,0,4.42,10.84,27.21,27.21,0,0,0,8.73,9.76c5.18,3.7,11.72,4.89,17.88,5.84,3,.46,5.94.92,8.87,1.62a11,11,0,0,0,8.09-1.05,10.5,10.5,0,0,0-2.51-19.19Z" transform="translate(-28.59 -5.56)"/><g id="t"><path class="cls-1" d="M877.92,143.48,866.7,201.62c-3.64,18.86-7.56,37.71-10.4,56.72-2.89,19.32-4.83,38.91-3.25,58.45A157.19,157.19,0,0,0,858,346.1a91.12,91.12,0,0,0,4.78,13,54.59,54.59,0,0,0,7.37,11.73c5.19,6.51,12.87,11.59,21.15,13a37.57,37.57,0,0,0,14.45-.08,29.07,29.07,0,0,0,12.4-6.2,27.31,27.31,0,0,0,4.68-5.32c1.52-2.07,1.71-5.73,1.06-8.09A10.5,10.5,0,0,0,911,356.86l-2.51,1.06a10.56,10.56,0,0,0-3.77,3.77l-.38.52,1.64-2.13A16.82,16.82,0,0,1,903,363l2.13-1.64a18.71,18.71,0,0,1-3.76,2.16l2.51-1.06a21.23,21.23,0,0,1-5.18,1.39l2.79-.37a25,25,0,0,1-6.47,0l2.79.38A26.8,26.8,0,0,1,891.2,362l2.51,1.06a25.91,25.91,0,0,1-5.16-3l2.13,1.64a34.07,34.07,0,0,1-5.94-5.94l1.64,2.13a48.36,48.36,0,0,1-6.11-10.74l1.06,2.51c-3.6-8.7-5.52-18.11-6.78-27.41l.38,2.79c-2.54-19.17-1.43-38.58,1.12-57.69l-.38,2.79c2.1-15.58,5.13-31,8.11-46.46L893,176l5.21-27a11.26,11.26,0,0,0-1.06-8.09,10.5,10.5,0,0,0-14.37-3.77c-2.2,1.42-4.31,3.62-4.82,6.28Z" transform="translate(-28.59 -5.56)"/><path class="cls-1" d="M964.71,164.38a111.36,111.36,0,0,0-22,10.77c-6.06,3.84-11.75,8.54-18.4,11.35l2.51-1.06c-7.77,3.23-16.08,5.08-23.58,9-4.88,2.55-6.74,9.76-3.77,14.37a10.75,10.75,0,0,0,14.37,3.77c1-.53,2.05-1,3.11-1.46l-2.51,1.06c7.45-3.12,15.33-5,22.64-8.5a79.28,79.28,0,0,0,9.7-6.09c3.13-2.11,6.27-4.19,9.5-6.13a94.34,94.34,0,0,1,11.67-6l-2.51,1.06c1.61-.68,3.24-1.31,4.89-1.91a11.21,11.21,0,0,0,6.28-4.82,10.52,10.52,0,0,0-3.77-14.37c-2.39-1.26-5.45-2-8.09-1.05Z" transform="translate(-28.59 -5.56)"/></g></svg>