<svg id="Calque_1" data-name="Calque 1" xmlns="http://www.w3.org/2000/svg" viewBox="0 0 1160.42 477.83"><defs><style>.cls-1{fill:#b99727;}</style></defs><g id="F"><path class="cls-1" d="M296.12,11.2c-16.9,5.32-32.91,13.19-48.18,22.1-13.76,8-27.11,16.81-40.4,25.59s-26.68,17.85-39.89,27q-20.37,14-40.51,28.38-19,13.49-37.75,27.23L85,144.68c-2.28,1.67-4.05,3.45-4.83,6.28a10.73,10.73,0,0,0,1.06,8.09,10.61,10.61,0,0,0,6.28,4.82c2.58.59,5.85.59,8.09-1.06q17.3-12.7,34.76-25.19,18.6-13.31,37.36-26.36t37.82-25.85c11.89-8,23.85-15.87,35.94-23.54,13.42-8.51,27.1-16.69,41.57-23.3,1.78-.82,3.58-1.6,5.39-2.37l-2.51,1.06c5.17-2.17,10.42-4.13,15.76-5.81A11,11,0,0,0,308,26.63a10.51,10.51,0,0,0-3.76-14.37,10.7,10.7,0,0,0-8.09-1.06Z" transform="translate(-51.39 -10.81)"/><path class="cls-1" d="M113.18,103q-5.76,35.92-11.47,71.87-5.82,36.51-11.66,73-5.92,36.95-12,73.87-6,36.54-12.21,73-6.15,36-12.6,71.94-.78,4.38-1.58,8.76a11.32,11.32,0,0,0,1.06,8.09A10.7,10.7,0,0,0,59,488.37c5.13,1.17,11.86-1.55,12.91-7.33q6.5-35.82,12.64-71.69,6.25-36.44,12.25-72.92,6.09-36.92,12-73.86,5.88-36.56,11.69-73.13,5.74-36.06,11.5-72.12l1.41-8.78c.46-2.88.47-5.48-1.06-8.09a10.69,10.69,0,0,0-6.27-4.83c-5-1.15-12,1.54-12.92,7.34Z" transform="translate(-51.39 -10.81)"/><path class="cls-1" d="M216.53,191.63c-22,17.28-43.82,34.77-65.8,52.07-21.54,17-43.07,34-63.92,51.78-10.91,9.32-21.64,18.85-31.93,28.84-4,3.84-4.14,11.05,0,14.85a10.7,10.7,0,0,0,14.85,0c18.91-18.36,39.2-35.27,59.67-51.84,20.89-16.91,42.14-33.37,63.2-50.08,12.93-10.26,25.81-20.58,38.78-30.77,2-1.55,3.08-5.06,3.08-7.43a10.69,10.69,0,0,0-3.08-7.42,10.58,10.58,0,0,0-7.42-3.08l-2.79.38a10.53,10.53,0,0,0-4.64,2.7Z" transform="translate(-51.39 -10.81)"/></g><path class="cls-1" d="M346.48,151.42A257.87,257.87,0,0,1,332.32,205c-1.85,4.94-3.82,9.84-5.87,14.71l1.06-2.51c-5.38,12.72-11.36,25.18-17.57,37.52s-12.73,24.73-19.1,37.09-12.62,24.82-18.38,37.49a408.93,408.93,0,0,0-16.08,40.3,243.79,243.79,0,0,0-9.76,39.68c-.39,2.49-.72,5-1.05,7.48s1.41,5.76,3.08,7.42a10.49,10.49,0,0,0,14.85,0l1.64-2.12a10.41,10.41,0,0,0,1.43-5.3c0-.27.07-.55.11-.82l-.37,2.79a254.66,254.66,0,0,1,14.2-54.55c1.86-5,3.85-10,5.92-14.89l-1.06,2.51c10.68-25.28,23.71-49.47,36.27-73.85,12.83-24.92,25.29-50.22,34.3-76.82A246.21,246.21,0,0,0,366.73,157c.42-2.91.49-5.44-1.06-8.09a10.48,10.48,0,0,0-14.36-3.77c-2.13,1.38-4.45,3.65-4.83,6.28Z" transform="translate(-51.39 -10.81)"/><path class="cls-1" d="M390.1,349.87A130.58,130.58,0,0,1,408.36,345c7.27-1.5,14.58-2.76,21.89-4.08,14.81-2.68,29.94-5.38,44-11,7.49-3,14.34-6.51,20.55-11.71a41.79,41.79,0,0,0,7.32-8.21,25.45,25.45,0,0,0,2-3.38,15.61,15.61,0,0,0,1.91-7,35.73,35.73,0,0,0-.34-6.12c-.42-3.94-1-7.86-1.59-11.77-.94-6.11-2-12.23-3.38-18.27a27,27,0,0,0-2.28-7c-2.66-4.89-8.19-7.32-13.59-7.17a36.66,36.66,0,0,0-11.56,2.47,98.19,98.19,0,0,0-12,5.4c-7.54,4-14.14,9.71-20.32,15.56A177.31,177.31,0,0,0,420,296.85c-12.28,16.72-21.51,35.32-29.49,54.4-3.85,9.23-7.33,18.62-10.57,28.08a70.89,70.89,0,0,0-2.42,7.75,27.85,27.85,0,0,0-.13,12.42,25.35,25.35,0,0,0,9,13.72A42.25,42.25,0,0,0,402,421.1a67,67,0,0,0,18.45,1.9c12.35-.33,24.49-3.37,36-7.54,11.83-4.26,23.36-9.41,34.81-14.57q16.51-7.44,32.69-15.58,7.76-3.9,15.44-8c4.86-2.58,6.75-9.74,3.77-14.37a10.74,10.74,0,0,0-14.37-3.77q-25.29,13.38-51.43,25-7.38,3.28-14.81,6.42l2.51-1.06c-12.62,5.32-25.58,10.24-39.21,12.1l2.79-.37a72.43,72.43,0,0,1-18.78.12l2.79.37a39.71,39.71,0,0,1-9.89-2.58l2.51,1.06a29.66,29.66,0,0,1-6.24-3.57l2.12,1.64a21.37,21.37,0,0,1-3.5-3.42l1.64,2.12a15.9,15.9,0,0,1-2.08-3.54l1.06,2.51a14.22,14.22,0,0,1-.9-3.4l.37,2.79a16.13,16.13,0,0,1,0-3.74l-.37,2.79c.51-3.62,1.88-7.07,3.06-10.51q1.64-4.75,3.36-9.47,3.47-9.48,7.36-18.79l-1.06,2.51a263.91,263.91,0,0,1,22.63-43.12q3.78-5.7,7.95-11.13l-1.64,2.13a154.15,154.15,0,0,1,27.17-27.51l-2.13,1.64a65.32,65.32,0,0,1,14.49-8.14l-2.51,1.06a39.72,39.72,0,0,1,10-3l-2.79.37a12.13,12.13,0,0,1,3-.05l-2.79-.38a5.87,5.87,0,0,1,1.42.39l-2.51-1.06a3.9,3.9,0,0,1,.76.45l-2.13-1.64a3,3,0,0,1,.5.5l-1.64-2.13a3.51,3.51,0,0,1,.37.65l-1.06-2.5a42.35,42.35,0,0,1,1.84,7.44c.88,4.26,1.65,8.54,2.35,12.83.4,2.47.78,4.95,1.12,7.43l-.38-2.79c.45,3.37,1.23,7.13.78,10.54l.37-2.79a2.59,2.59,0,0,1-.13.55l1.06-2.51a24.27,24.27,0,0,1-3.09,5.09l1.64-2.13a33.85,33.85,0,0,1-6,5.91l2.12-1.64a59.69,59.69,0,0,1-13.28,7.49l2.51-1.06c-10.95,4.6-22.65,7.23-34.26,9.53s-23.6,4.13-35.31,6.65a122,122,0,0,0-16.08,4.38,11.23,11.23,0,0,0-6.28,4.83A10.48,10.48,0,0,0,382,348.81c2.38,1.26,5.45,2,8.09,1.06Z" transform="translate(-51.39 -10.81)"/><path class="cls-1" d="M698.57,214.33q-1.59,23.28-4.69,46.42l.37-2.79a708.28,708.28,0,0,1-18.5,91.42q-1.69,6.25-3.52,12.5a103.59,103.59,0,0,1-3.56,10.86l1.05-2.51a28,28,0,0,1-3.27,5.82l1.64-2.12a18.88,18.88,0,0,1-3.07,3.12l2.12-1.64a16.39,16.39,0,0,1-3.39,2l2.51-1.06a16.13,16.13,0,0,1-3.6,1l2.79-.38a18.06,18.06,0,0,1-4.76,0l2.8.38a24.44,24.44,0,0,1-5.81-1.66l2.51,1.06a34.57,34.57,0,0,1-7.39-4.41l2.12,1.64a42.16,42.16,0,0,1-7.18-7.26l1.64,2.12a75.35,75.35,0,0,1-9.63-16.66l1.06,2.51a97.15,97.15,0,0,1-6.45-24.33l.38,2.79c-1.73-13.05-1.08-26.25.65-39.27l-.37,2.8c1.55-11.45,3.91-22.75,6.28-34.05a11.18,11.18,0,0,0-1.06-8.09,10.49,10.49,0,0,0-14.36-3.76,10.47,10.47,0,0,0-4.83,6.27c-4.95,23.53-10.13,47.81-7.79,72a126.51,126.51,0,0,0,2.83,17.53,102.69,102.69,0,0,0,5.69,16.61,75.89,75.89,0,0,0,7.28,13.29,55.56,55.56,0,0,0,11,12.38c4.77,3.75,10,7,15.95,8.41A27.65,27.65,0,0,0,675.45,395c11.13-5.75,14.5-18.78,17.7-29.85a705.85,705.85,0,0,0,16.24-69.3A732.44,732.44,0,0,0,718.93,223q.35-4.31.64-8.63a10.51,10.51,0,0,0-17.93-7.43,11.63,11.63,0,0,0-3.07,7.43Z" transform="translate(-51.39 -10.81)"/><g id="r"><path class="cls-1" d="M786.63,217.13c.07.47.14,1,.2,1.43l-.38-2.79a380.1,380.1,0,0,1,2.29,79q-.84,11.16-2.34,22.26l.38-2.8c-1.52,11.2-3.59,22.29-6,33.33s-5,22.47-4.59,33.88A54.69,54.69,0,0,0,780,400.82a7.8,7.8,0,0,0,1.88,3.57,8,8,0,0,0,2.94,2.7,10.69,10.69,0,0,0,8.09,1.06,10.57,10.57,0,0,0,6.28-4.82c1.22-2.31,2.12-5.56,1.06-8.09a44,44,0,0,1-3-11.38l.37,2.8a71,71,0,0,1,.34-18.07l-.38,2.79c1.32-9.7,3.81-19.18,5.7-28.77,2.15-10.84,3.79-21.78,5.06-32.75a380.69,380.69,0,0,0,2.1-61.51c-.58-12.32-1.83-24.58-3.52-36.81-.33-2.41-2.83-5.11-4.82-6.27A10.51,10.51,0,0,0,787.69,209l-1.06,2.51a10.6,10.6,0,0,0,0,5.59Z" transform="translate(-51.39 -10.81)"/><path class="cls-1" d="M913.26,180.73c-6.45,1.14-12.91,2.29-19.24,4a142.12,142.12,0,0,0-15.3,5.09,180.59,180.59,0,0,0-32.11,16.41,191.39,191.39,0,0,0-52.31,50A147.32,147.32,0,0,0,776.18,291c-.88,2.44-.21,5.91,1.06,8.09a10.51,10.51,0,0,0,14.37,3.76,11.74,11.74,0,0,0,4.82-6.27c.71-2,1.47-3.91,2.28-5.83l-1.06,2.51a145.61,145.61,0,0,1,18.93-32l-1.64,2.12a179.89,179.89,0,0,1,32.12-32l-2.12,1.64a175.16,175.16,0,0,1,38.69-22.76l-2.51,1.06a146.7,146.7,0,0,1,17.06-6c6.79-1.91,13.73-3.16,20.66-4.39,2.46-.43,5.07-2.75,6.28-4.82a10.5,10.5,0,0,0-3.77-14.37,11.91,11.91,0,0,0-8.09-1.06Z" transform="translate(-51.39 -10.81)"/></g><path class="cls-1" d="M958.1,345.62c-6.79-1.63-14.07-1.7-20.58-4.38L940,342.3a19,19,0,0,1-4-2.3l2.12,1.64A17.24,17.24,0,0,1,935.4,339l1.65,2.12a30.43,30.43,0,0,1-3.61-6.72l1,2.51a35,35,0,0,1-2.43-8.61l.38,2.79c-.61-4.6-.48-9.28-.63-13.91a107,107,0,0,1,.73-17.35l-.38,2.79a66.78,66.78,0,0,1,4.45-16.84l-1.06,2.51a53.46,53.46,0,0,1,6.67-11.38L940.58,279a58.79,58.79,0,0,1,10.54-10.43L949,270.19a75.32,75.32,0,0,1,16.21-9.33l-2.51,1.06a100.23,100.23,0,0,1,25.51-6.81l-2.79.38c5.12-.67,10.38-1.21,15.52-.55l-2.79-.38a24.27,24.27,0,0,1,5.87,1.58l-2.51-1.06a21.14,21.14,0,0,1,4.18,2.46l-2.12-1.64a26.75,26.75,0,0,1,4.74,4.77l-1.64-2.12a44.2,44.2,0,0,1,5.45,9.66l-1.05-2.51a79.59,79.59,0,0,1,5.32,19.76l-.37-2.79a83.7,83.7,0,0,1,0,21.91l.38-2.79a81.34,81.34,0,0,1-5.49,20.31l1.06-2.51c-4.17,9.83-10.27,18.63-16.76,27.05l1.64-2.12c-7.88,10.19-16.29,20.14-26.5,28.1l2.13-1.64a74,74,0,0,1-16.27,9.69l2.51-1.06a22.71,22.71,0,0,1-5.65,1.81l2.79-.37a8.8,8.8,0,0,1-1.7,0l2.8.37a10.68,10.68,0,0,1-1.91-.63l2.51,1.05a36.6,36.6,0,0,1-7.79-4.2l2.13,1.64a5.8,5.8,0,0,1-1-1l1.64,2.13a2.69,2.69,0,0,1-.19-.32l1.06,2.5a1.18,1.18,0,0,1-.07-.2l.38,2.8a.62.62,0,0,1,0-.19l-.37,2.79a.34.34,0,0,1,0-.17l-1.06,2.51,0-.08c3-4.65,1.12-11.79-3.76-14.37a10.73,10.73,0,0,0-14.37,3.77,11.25,11.25,0,0,0,0,11.39,16.43,16.43,0,0,0,5.14,5.09,35.75,35.75,0,0,0,5.73,3.21c3.41,1.6,6.82,3.22,10.7,2.91,5.14-.42,9.88-2.59,14.44-4.85a90.29,90.29,0,0,0,18.83-12.95,137.77,137.77,0,0,0,14.46-14.83c5.22-6.13,10.21-12.51,14.88-19.06a107.68,107.68,0,0,0,11.46-19.77,89.33,89.33,0,0,0,6.69-23,91.34,91.34,0,0,0-5.84-48.72,52.05,52.05,0,0,0-5-9.53,40.49,40.49,0,0,0-9.82-10.15c-7.2-5.23-16.55-6-25.14-5.28a123.7,123.7,0,0,0-20.68,3.38,90.15,90.15,0,0,0-36.78,18.78,65,65,0,0,0-21,37.89,120.52,120.52,0,0,0-1.53,24.51c.2,6.46.06,13.05,1.77,19.35A57,57,0,0,0,917,348.65a27.09,27.09,0,0,0,8.72,9.76c5.19,3.7,11.73,4.89,17.89,5.84,3,.46,5.94.92,8.87,1.62a11,11,0,0,0,8.09-1.06,10.51,10.51,0,0,0-2.51-19.19Z" transform="translate(-51.39 -10.81)"/><g id="t"><path class="cls-1" d="M1111.72,148.72l-11.21,58.14c-3.64,18.87-7.57,37.72-10.41,56.73-2.88,19.32-4.83,38.91-3.24,58.45a157.19,157.19,0,0,0,4.93,29.31,92,92,0,0,0,4.78,13,54.55,54.55,0,0,0,7.36,11.73c5.2,6.5,12.88,11.59,21.16,13a37.57,37.57,0,0,0,14.45-.08,29,29,0,0,0,12.4-6.21,26.74,26.74,0,0,0,4.68-5.32c1.51-2.07,1.71-5.72,1.06-8.09a10.72,10.72,0,0,0-4.83-6.27,10.6,10.6,0,0,0-8.09-1.06l-2.51,1.06a10.58,10.58,0,0,0-3.76,3.76l-.39.52,1.64-2.12a16.7,16.7,0,0,1-2.9,2.86l2.13-1.64a18.36,18.36,0,0,1-3.77,2.17l2.51-1.06a22,22,0,0,1-5.17,1.39l2.79-.38a25,25,0,0,1-6.47,0l2.79.38a26.82,26.82,0,0,1-6.64-1.83l2.51,1.06a24.87,24.87,0,0,1-5.16-3l2.12,1.64a34.37,34.37,0,0,1-5.93-5.94l1.64,2.12a48.07,48.07,0,0,1-6.11-10.73l1.06,2.5c-3.61-8.69-5.52-18.11-6.78-27.4l.37,2.79c-2.53-19.17-1.42-38.58,1.12-57.69l-.37,2.79c2.09-15.59,5.13-31,8.11-46.46l9.18-47.59,5.2-27a11.21,11.21,0,0,0-1.06-8.09,10.48,10.48,0,0,0-14.36-3.77c-2.2,1.42-4.31,3.61-4.83,6.27Z" transform="translate(-51.39 -10.81)"/><path class="cls-1" d="M1198.52,169.62a110.58,110.58,0,0,0-22,10.78c-6.07,3.84-11.76,8.54-18.4,11.35l2.51-1.06c-7.78,3.23-16.09,5.07-23.58,9-4.88,2.55-6.74,9.76-3.77,14.37a10.74,10.74,0,0,0,14.37,3.76c1-.53,2.05-1,3.1-1.46l-2.51,1.06c7.46-3.11,15.33-5,22.65-8.5a78.83,78.83,0,0,0,9.7-6.09c3.12-2.1,6.26-4.19,9.49-6.13a96.47,96.47,0,0,1,11.67-6l-2.5,1.06c1.61-.67,3.24-1.31,4.89-1.9a11.24,11.24,0,0,0,6.27-4.82,10.51,10.51,0,0,0-3.76-14.37c-2.39-1.26-5.45-2-8.09-1.06Z" transform="translate(-51.39 -10.81)"/></g></svg>