<svg id="Calque_1" data-name="Calque 1" xmlns="http://www.w3.org/2000/svg" viewBox="0 0 1193.38 419.58"><defs><style>.cls-1{fill:#b99727;}</style></defs><path class="cls-1" d="M48.24,458.23V232.05H33.89v-8.43H83.8V458.23ZM98.78,232.05v44.61h58v8.74h-58V458.23H90V223.62H169.6v8.43Z" transform="translate(-29.14 -43.64)"/><path class="cls-1" d="M198.92,458.23V232.05H184.57v-8.43h49.92V458.23Zm42.43,0V223.62h8.42V449.19h73.32v9Z" transform="translate(-29.14 -43.64)"/><path class="cls-1" d="M352.41,458.23V232.05H338.06v-8.43h50.23V458.23Zm41.81,0V223.62h83v8.43H403.26v44.61H461v8.74H403.26V449.19H477.2v9Z" transform="translate(-29.14 -43.64)"/><path class="cls-1" d="M555.51,460.73c-34.63,0-63.34-28.08-63.34-63V223.62h10.61V397.71a52.57,52.57,0,1,0,105.14,0V223.62h10.29V397.71A62.77,62.77,0,0,1,555.51,460.73Zm9.67-17.47V223.62h36.5V397.09A47.71,47.71,0,0,1,565.18,443.26Z" transform="translate(-29.14 -43.64)"/><path class="cls-1" d="M646.92,458.23V232.05H633.19v-8.43h50.54V458.23Zm110.75-43.05,25.89,43.05H773.27l-22.78-38.06A111.72,111.72,0,0,1,699,436.08v22.15h-8.74V223.62h4.37C753.3,223.62,801,271.05,801,329.7,801,363.7,784.81,394.9,757.67,415.18ZM699,232.36V427c52.1-2.19,93-45.24,93-97.34S751.12,234.54,699,232.36Z" transform="translate(-29.14 -43.64)"/><path class="cls-1" d="M816,340.93a121.93,121.93,0,0,1,39.62-89.85v179.7C830.67,407.07,816,375.25,816,340.93Zm122.61,122.3a122.75,122.75,0,0,1-77.37-27.46V246.09a120.61,120.61,0,0,1,77.37-27.77c68.32,0,122.92,54.29,122.92,122.61C1061.54,408.94,1006.63,463.23,938.62,463.23Zm0-234.3a112.42,112.42,0,0,0-68.33,23.4V429.22a111.8,111.8,0,0,0,180.64-88.29C1050.93,278.53,1001,228.93,938.62,228.93Z" transform="translate(-29.14 -43.64)"/><path class="cls-1" d="M1122.68,458.23V232.05h-46.17v-8.43h82.67V458.23Zm51.17-226.18V458.23h-8.43V223.62h57.1v8.43Z" transform="translate(-29.14 -43.64)"/><path class="cls-1" d="M36.9,173.07V50.73H29.14V46.17h27v126.9Zm23,0V46.17h4.56v122h39.65v4.89Z" transform="translate(-29.14 -43.64)"/><path class="cls-1" d="M173.08,173.07,169,160.58H125.32l-4,12.49h-5.06l4.22-12.49h-8.27V156H122L147.26,81.1l30.88,92Zm-26-76.95L127,156h40.33Zm36.11,76.95L149.29,75.2l9.78-28.52,43.71,126.39Z" transform="translate(-29.14 -43.64)"/><path class="cls-1" d="M295.25,108.27c0-17.72,8.1-34.76,20.92-46.74v96C302.34,144.38,295.25,127.34,295.25,108.27Zm65.81,67a66.38,66.38,0,0,1-41.85-14.85V58.66a66.54,66.54,0,0,1,41.85-15,64.51,64.51,0,0,1,43.2,16.2l-3,3.71c-11-9.95-25.48-15-40.16-15A60.67,60.67,0,0,0,324.1,61v97.2a61.07,61.07,0,0,0,77.12-2.53l3,3.71A65.37,65.37,0,0,1,361.06,175.26Z" transform="translate(-29.14 -43.64)"/><path class="cls-1" d="M446.61,174.42a34.24,34.24,0,0,1-34.25-34.09V46.17h5.73v94.16a28.44,28.44,0,1,0,56.87,0V46.17h5.57v94.16A34,34,0,0,1,446.61,174.42Zm5.23-9.45V46.17h19.75V140A25.8,25.8,0,0,1,451.84,165Z" transform="translate(-29.14 -43.64)"/><path class="cls-1" d="M496.39,173.07V50.73h-7.76V46.17h27v126.9Zm23,0V46.17h4.73v126.9Z" transform="translate(-29.14 -43.64)"/><path class="cls-1" d="M582.45,175.43a50.2,50.2,0,0,1-50.29-50.28h4.73a45.37,45.37,0,0,0,45.56,45.56,43.91,43.91,0,0,0,21.09-5.23V86.84l-21.09-7.76c-12-4.39-17-12.32-17-19.58,0-8.43,6.58-15.86,16.87-15.86a17.8,17.8,0,0,1,16.54,11.14l-4.39,1.69a13.08,13.08,0,0,0-12.15-7.93c-7.59,0-11.81,4.89-11.81,10.63,0,5.4,3.88,11.47,12,14.51l25.82,9.95v84.72A51.24,51.24,0,0,1,582.45,175.43Zm28.86-9.11v-81c13.5,9.28,21.6,23.46,21.6,39.83A50.12,50.12,0,0,1,611.31,166.32Z" transform="translate(-29.14 -43.64)"/><path class="cls-1" d="M648.77,173.07V50.73H641V46.17h27v126.9Zm23,0V46.17h4.72v126.9Z" transform="translate(-29.14 -43.64)"/><path class="cls-1" d="M684.54,50.73V46.17h27v126.9H692.3V50.73Zm30.71,122.34V46.17c10.8,0,19.41,3.72,25,11.82V46.17H745v126.9h-4.72V73.34A22.65,22.65,0,0,0,720,50.9V173.07Z" transform="translate(-29.14 -43.64)"/><path class="cls-1" d="M760.81,173.07V50.73h-7.76V46.17h27.17v126.9Zm22.61,0V46.17h44.89v4.56h-40V74.86h31.22v4.72H788.32v88.6h40v4.89Z" transform="translate(-29.14 -43.64)"/><path class="cls-1" d="M928.71,173.07V50.73h-7.93V46.17H948v126.9Zm34.43,0H951V46.17h12.15c34.93,0,63.61,28.52,63.61,63.45S997.9,173.07,963.14,173.07Zm0-122.34h-7.26V168.18h7.26a58.73,58.73,0,0,0,58.72-58.56C1021.86,77.39,995.37,50.73,963.14,50.73Z" transform="translate(-29.14 -43.64)"/><path class="cls-1" d="M1042.61,173.07V50.73h-7.76V46.17H1062v126.9Zm22.62,0V46.17h44.88v4.56h-40V74.86h31.22v4.72h-31.22v88.6h40v4.89Z" transform="translate(-29.14 -43.64)"/><path class="cls-1" d="M1168.5,175.43a50.19,50.19,0,0,1-50.29-50.28h4.72a45.37,45.37,0,0,0,45.57,45.56,43.94,43.94,0,0,0,21.09-5.23V86.84l-21.09-7.76c-12-4.39-17-12.32-17-19.58,0-8.43,6.58-15.86,16.88-15.86a17.81,17.81,0,0,1,16.54,11.14l-4.39,1.69a13.09,13.09,0,0,0-12.15-7.93c-7.6,0-11.81,4.89-11.81,10.63,0,5.4,3.88,11.47,12,14.51l25.82,9.95v84.72A51.27,51.27,0,0,1,1168.5,175.43Zm28.85-9.11v-81c13.5,9.28,21.6,23.46,21.6,39.83A50.12,50.12,0,0,1,1197.35,166.32Z" transform="translate(-29.14 -43.64)"/></svg>