<svg xmlns="http://www.w3.org/2000/svg" viewBox="0 0 23.02 22.86"><defs><style>.cls-1{fill:#f7f74f;}.cls-2{fill:#84a824;}</style></defs><g id="Weeds"><path class="cls-1" d="M19.15,3.54a1.5,1.5,0,0,1,.44-.82,2,2,0,0,1,.86-.36L22.07,2c-.21.06-.29.3-.4.48a2,2,0,0,1-.24.31L21,3.22a1.22,1.22,0,0,1-.33.27,1,1,0,0,1-.35.06l-1.15,0Z" transform="translate(-0.84 -0.3)"/><path d="M19.3,3.58a1.37,1.37,0,0,1,.32-.69,1.58,1.58,0,0,1,.71-.35c.59-.16,1.19-.3,1.78-.45L22,1.8a.87.87,0,0,0-.44.48A4.1,4.1,0,0,1,21,3a1.88,1.88,0,0,1-.31.32,1.1,1.1,0,0,1-.48.08l-1,0,.14.11v0a.15.15,0,0,0-.29.08v0a.16.16,0,0,0,.15.11l1,0a1.75,1.75,0,0,0,.46-.05A.79.79,0,0,0,21,3.41c.23-.23.45-.48.66-.73a2.14,2.14,0,0,0,.2-.32.61.61,0,0,1,.23-.27A.15.15,0,0,0,22,1.8l-1,.26c-.32.08-.65.15-1,.25a1.51,1.51,0,0,0-.71.42A1.8,1.8,0,0,0,19,3.5C19,3.69,19.26,3.77,19.3,3.58Z" transform="translate(-0.84 -0.3)"/><path class="cls-1" d="M17,4.15l.45-.48a2.85,2.85,0,0,1,.66-.59,2.8,2.8,0,0,1,1.29-.28,1.4,1.4,0,0,0-.18.42,1.9,1.9,0,0,1,0,.25.93.93,0,0,1-.17.38,2,2,0,0,1-.84.9L18,4.82l-.73.24a.18.18,0,0,1-.16,0C17,5,17,5,17,4.89V4.18Z" transform="translate(-0.84 -0.3)"/><path d="M17.08,4.26l.51-.56a2.91,2.91,0,0,1,.49-.44A2.51,2.51,0,0,1,19.37,3l-.13-.22a1.41,1.41,0,0,0-.2.49,1.35,1.35,0,0,1,0,.29.84.84,0,0,1-.12.23,2.33,2.33,0,0,1-.6.76,1.92,1.92,0,0,1-.46.21l-.56.18-.13,0,0,0s0,0,0-.06V4.28c0-.08,0-.14,0-.2s-.37,0-.26.15l0,0s0,0,0,0a1.21,1.21,0,0,0,0,.19V4.8c0,.18,0,.4.25.43a.82.82,0,0,0,.3-.07l.3-.1a4,4,0,0,0,.61-.22,2.11,2.11,0,0,0,.74-.8,1.46,1.46,0,0,0,.26-.55c0-.1,0-.21,0-.31a1.2,1.2,0,0,1,.15-.3.16.16,0,0,0-.13-.23A2.81,2.81,0,0,0,18,3a5.31,5.31,0,0,0-1.1,1.07C16.74,4.19,17,4.4,17.08,4.26Z" transform="translate(-0.84 -0.3)"/><path class="cls-1" d="M18.32,4.75l.91.13a2.83,2.83,0,0,0,.41,0,1.45,1.45,0,0,0,.81-.31,3.21,3.21,0,0,0,.6-.62,1.19,1.19,0,0,0,.09-.15c0-.11,0-.24,0-.32a7.33,7.33,0,0,1-1.87.07.14.14,0,0,0-.09,0l-.06.06-.73,1Z" transform="translate(-0.84 -0.3)"/><path d="M18.28,4.9l1,.14a1.62,1.62,0,0,0,.92-.13,2.29,2.29,0,0,0,.71-.56A3.37,3.37,0,0,0,21.23,4a.49.49,0,0,0,.06-.17c0-.07,0-.17,0-.23s0-.24-.17-.22a6.38,6.38,0,0,1-1,.1h-.47a3.7,3.7,0,0,0-.47,0c-.13,0-.2.15-.27.25l-.28.39a2.87,2.87,0,0,1-.46.57c-.14.13.07.34.21.22a2.56,2.56,0,0,0,.39-.48L19.07,4l.14-.18a.31.31,0,0,1,.07-.09.22.22,0,0,1,.14,0,7.23,7.23,0,0,0,1.8-.09l-.17-.22c-.07.11,0,.21-.06.34a.82.82,0,0,1-.23.33,2.19,2.19,0,0,1-.64.53,1.36,1.36,0,0,1-.82.11l-.94-.13C18.17,4.58,18.09,4.87,18.28,4.9Z" transform="translate(-0.84 -0.3)"/><path class="cls-1" d="M15.21,5.52a19,19,0,0,0,1.73-2.09,4.94,4.94,0,0,1-.24,2.41.36.36,0,0,1-.11.16.23.23,0,0,1-.14,0,4.2,4.2,0,0,0-1.54.6l.27-1.13Z" transform="translate(-0.84 -0.3)"/><path d="M15.32,5.62a20.84,20.84,0,0,0,1.75-2.11l-.27,0a4.79,4.79,0,0,1-.19,2.16c0,.08-.05.2-.12.24a.92.92,0,0,1-.25.06l-.48.13a5.22,5.22,0,0,0-.92.45l.22.17.27-1.13-.15.11h0c.2,0,.19-.29,0-.3h0a.15.15,0,0,0-.14.11L14.77,6.6a.15.15,0,0,0,.22.17,3.82,3.82,0,0,1,1.07-.48,5.47,5.47,0,0,0,.55-.13.58.58,0,0,0,.27-.39,5.2,5.2,0,0,0,.21-2.38c0-.14-.21-.13-.28,0a20.77,20.77,0,0,1-1.7,2.05C15,5.55,15.19,5.76,15.32,5.62Z" transform="translate(-0.84 -0.3)"/><path class="cls-1" d="M21.74,4.64a4,4,0,0,1-.61.4,6.91,6.91,0,0,1-1.75.44,5.57,5.57,0,0,0-1.21.41,1.8,1.8,0,0,1-.38.16,1.94,1.94,0,0,1-.34,0H16.9s-.1,0-.13,0a.19.19,0,0,1,0-.08,1,1,0,0,1,.45-.79A1.73,1.73,0,0,1,17.57,5l.49-.21.18,0a.67.67,0,0,1,.19,0,4.46,4.46,0,0,0,1.21.15,5,5,0,0,0,2.17-.29Z" transform="translate(-0.84 -0.3)"/><path d="M21.66,4.51a3.17,3.17,0,0,1-1.21.62c-.43.1-.87.14-1.29.25A6.55,6.55,0,0,0,18,5.84a2,2,0,0,1-.78.08s-.29,0-.26,0,0-.23.07-.29c.19-.43.68-.56,1.08-.72.22-.1.38,0,.6,0a3.61,3.61,0,0,0,.65.08,5.78,5.78,0,0,0,2.58-.3c.16-.07,0-.32-.12-.28l-.07,0a.15.15,0,0,0,.08.29l.07,0-.11-.27a5.41,5.41,0,0,1-2.53.25,2.78,2.78,0,0,1-.69-.12.75.75,0,0,0-.42,0,3.26,3.26,0,0,0-.48.2A2.49,2.49,0,0,0,17.1,5a1.18,1.18,0,0,0-.47.72c-.06.31.05.45.36.46a2.45,2.45,0,0,0,1.11-.13,8.38,8.38,0,0,1,1.18-.44c.44-.1.89-.14,1.33-.25a3.37,3.37,0,0,0,1.2-.63C22,4.65,21.82,4.39,21.66,4.51Z" transform="translate(-0.84 -0.3)"/><path class="cls-1" d="M19.07,6.2a3.6,3.6,0,0,0-.89.41c-.13.09-.24.2-.38.28s-.21.11-.31.18a3.22,3.22,0,0,0-.28.24,1.75,1.75,0,0,1-.48.27A7,7,0,0,1,14.24,8a4.34,4.34,0,0,0,.51-.86A2,2,0,0,1,15,6.67a1.92,1.92,0,0,1,1.25-.59A1.85,1.85,0,0,1,16.79,6l.24,0a2.55,2.55,0,0,0,.39,0l1.67,0Z" transform="translate(-0.84 -0.3)"/><path d="M19,6.06A3.9,3.9,0,0,0,18,6.6a6.1,6.1,0,0,1-.54.34c-.15.11-.28.25-.44.35a5.45,5.45,0,0,1-2.73.55l.13.23a4.83,4.83,0,0,0,.36-.56c.11-.21.18-.45.3-.65a1.52,1.52,0,0,1,1.09-.61,2.35,2.35,0,0,1,.79-.06c.2,0,.4,0,.6,0l1.58,0-.15-.19v.07c0,.19.25.27.29.08V6.17A.15.15,0,0,0,19.09,6l-1.71-.05c-.24,0-.49-.07-.73-.06A4.69,4.69,0,0,0,15.9,6a1.79,1.79,0,0,0-1,.57,3.93,3.93,0,0,0-.34.68,4.19,4.19,0,0,1-.42.67.15.15,0,0,0,.13.23,6.59,6.59,0,0,0,2.67-.48,2,2,0,0,0,.49-.32A4.52,4.52,0,0,1,17.91,7c.18-.11.34-.26.52-.37a4.43,4.43,0,0,1,.68-.28C19.29,6.29,19.21,6,19,6.06Z" transform="translate(-0.84 -0.3)"/><path class="cls-1" d="M13,7.25a5.16,5.16,0,0,1,.9-1.49,3.28,3.28,0,0,1,1.47-1,3.12,3.12,0,0,0-.29.77c0,.16,0,.31,0,.47s0,.25-.07.38a6,6,0,0,1-.33,1,1.54,1.54,0,0,1-.23.39,2.91,2.91,0,0,1-1.27.58.76.76,0,0,0-.4.3A10.34,10.34,0,0,1,13,7.11Z" transform="translate(-0.84 -0.3)"/><path d="M13.17,7.29a3.91,3.91,0,0,1,2.27-2.35l-.17-.22a4.6,4.6,0,0,0-.25.61,2.76,2.76,0,0,0-.1.64,4.48,4.48,0,0,1-.41,1.38,1.07,1.07,0,0,1-.39.5,2.08,2.08,0,0,1-.53.23c-.35.11-.76.19-1,.52l.28.07a11.18,11.18,0,0,1,.24-1.52h-.29l0,.14c0,.19.31.11.28-.08l0-.14c0-.15-.25-.14-.29,0a12.38,12.38,0,0,0-.25,1.6c0,.16.2.2.28.08a1,1,0,0,1,.53-.31A3.42,3.42,0,0,0,14,8.26a1.38,1.38,0,0,0,.81-.76,5.16,5.16,0,0,0,.41-1.26c0-.22,0-.44.08-.66a3.06,3.06,0,0,1,.27-.71.15.15,0,0,0-.17-.22,4.15,4.15,0,0,0-2.47,2.56C12.81,7.39,13.1,7.47,13.17,7.29Z" transform="translate(-0.84 -0.3)"/><path class="cls-1" d="M17.13,7.88a17,17,0,0,0,2-.33A6.1,6.1,0,0,1,17.71,8a7.33,7.33,0,0,0-1.06.18c-.69.23-1.13.87-1.72,1.28a2.7,2.7,0,0,1-1.34.49l-.48,0a5.73,5.73,0,0,0-1,.15,10.77,10.77,0,0,1,.67-1.31,1.59,1.59,0,0,1,.15-.21,1.23,1.23,0,0,1,.31-.19l.61-.3a1.38,1.38,0,0,1,.59-.2l.36,0a2.81,2.81,0,0,0,.65-.05,9.94,9.94,0,0,1,1.89-.08Z" transform="translate(-0.84 -0.3)"/><path d="M17.13,8c.68-.08,1.37-.19,2-.33l-.11-.28a7.25,7.25,0,0,1-2,.54,2.68,2.68,0,0,0-1.42.72,4.26,4.26,0,0,1-1.57,1.05c-.65.2-1.35.13-2,.29l.17.22a8.18,8.18,0,0,1,.67-1.32,2.63,2.63,0,0,1,1.22-.74,2.16,2.16,0,0,1,.8,0,6.82,6.82,0,0,0,.79-.08A9.75,9.75,0,0,1,17.33,8l0-.3-.2,0c-.19,0-.11.32.08.29l.2,0c.17,0,.12-.28,0-.29a10.87,10.87,0,0,0-1.89.08,5.42,5.42,0,0,0-1.51.15,3.1,3.1,0,0,0-1.19.7A6.72,6.72,0,0,0,12,10.08a.16.16,0,0,0,.17.23c.67-.16,1.37-.09,2-.29a3.77,3.77,0,0,0,1.47-.92,5.19,5.19,0,0,1,.68-.56,2.51,2.51,0,0,1,1-.31,6.75,6.75,0,0,0,1.86-.55c.16-.07,0-.31-.12-.27-.65.14-1.3.24-2,.32C16.94,7.75,16.94,8.05,17.13,8Z" transform="translate(-0.84 -0.3)"/><path class="cls-1" d="M11.3,8.23a3,3,0,0,1,.76-1l.76-.71a6.25,6.25,0,0,1-.06,1.78c0,.18,0,.35-.09.52a4,4,0,0,1-.45,1,1.36,1.36,0,0,1-.3.41,2.27,2.27,0,0,1-.48.27,2.51,2.51,0,0,0-.65.47,8.13,8.13,0,0,1,0-1.48,2.88,2.88,0,0,1,.52-1.38Z" transform="translate(-0.84 -0.3)"/><path d="M11.43,8.31a2.54,2.54,0,0,1,.63-.82l.86-.81-.25-.07a5,5,0,0,1,0,1.4,3.93,3.93,0,0,1-.3,1.28,1.94,1.94,0,0,1-.74,1,3.38,3.38,0,0,0-.92.62l.25.1a4.13,4.13,0,0,1,.52-2.78l-.27-.12,0,.11a.15.15,0,0,0,.29.08l0-.11c0-.17-.18-.24-.28-.12A4.47,4.47,0,0,0,10.64,11a.16.16,0,0,0,.26.11,2.06,2.06,0,0,1,.55-.42,3.84,3.84,0,0,0,.53-.28,2.86,2.86,0,0,0,.69-1.08A4.82,4.82,0,0,0,13,8.06a5.6,5.6,0,0,0,0-1.53c0-.12-.17-.14-.25-.07-.3.29-.61.57-.91.87a2.57,2.57,0,0,0-.63.83C11.09,8.33,11.35,8.48,11.43,8.31Z" transform="translate(-0.84 -0.3)"/><path class="cls-1" d="M15,9.89a.46.46,0,0,1-.13.18L14,10.9l-.37.34a4.17,4.17,0,0,1-.44.29,4.77,4.77,0,0,1-1.59.59,8.38,8.38,0,0,0-1.41.28c-.09,0-.2.07-.25,0a.25.25,0,0,1,0-.07.63.63,0,0,1,.13-.39,7.56,7.56,0,0,1,1.37-1.4,2,2,0,0,1,.49-.34,2,2,0,0,1,.63-.12l2.52-.19Z" transform="translate(-0.84 -0.3)"/><path d="M14.89,9.81a2.43,2.43,0,0,1-.54.57l-.49.47a4,4,0,0,1-1.12.76,5.11,5.11,0,0,1-1.33.4l-.68.1-.31.07s-.28.12-.32.1.73-1,.82-1.1A3.61,3.61,0,0,1,12,10.31a2.36,2.36,0,0,1,.7-.09l.81-.06L15.06,10a.15.15,0,0,0,0-.3h0c-.19,0-.19.29,0,.3h0v-.3l-1.46.11c-.46,0-.92.05-1.38.11a2,2,0,0,0-1,.56,7.91,7.91,0,0,0-.93.9c-.21.23-.57.58-.5.93s.48.18.72.12c.43-.12.87-.14,1.3-.23A5.42,5.42,0,0,0,13,11.83a4.44,4.44,0,0,0,1.1-.77l.6-.57a2,2,0,0,0,.48-.52C15.22,9.79,15,9.64,14.89,9.81Z" transform="translate(-0.84 -0.3)"/><path class="cls-1" d="M9.33,10a2.93,2.93,0,0,0,1.08-2.05A5.2,5.2,0,0,1,10.79,10a2.27,2.27,0,0,1-.06.78,2.29,2.29,0,0,1-.3.58l-.34.52a2.63,2.63,0,0,1-.39.49,2.76,2.76,0,0,1-1.29.54,7.52,7.52,0,0,0,0-1.71.38.38,0,0,1,0-.15A.54.54,0,0,1,8.49,11a4.4,4.4,0,0,1,.95-1.07Z" transform="translate(-0.84 -0.3)"/><path d="M9.41,10.09A3.17,3.17,0,0,0,10.56,8l-.28,0a4,4,0,0,1,.33,1.48A2.83,2.83,0,0,1,10.49,11c-.1.2-.24.38-.36.57a3.93,3.93,0,0,1-.47.66,2.4,2.4,0,0,1-1.29.56l.19.15c0-.29,0-.57.06-.86s0-.56,0-.85A1.22,1.22,0,0,1,9,10.56,4.38,4.38,0,0,1,9.55,10c.13-.11,0-.33-.18-.24l-.11.07c-.17.11,0,.37.15.26L9.52,10l-.18-.24a4.76,4.76,0,0,0-.64.63,2.09,2.09,0,0,0-.41.62,3.54,3.54,0,0,0,0,.86,9.2,9.2,0,0,1-.06,1c0,.1.11.16.19.14a2.89,2.89,0,0,0,1.36-.57,3.06,3.06,0,0,0,.5-.68,5.41,5.41,0,0,0,.48-.76,3.2,3.2,0,0,0,.12-1.6,4.61,4.61,0,0,0-.37-1.63.15.15,0,0,0-.27,0,2.9,2.9,0,0,1-1,2C9.1,10,9.25,10.21,9.41,10.09Z" transform="translate(-0.84 -0.3)"/><path class="cls-1" d="M6.58,13.52A6.26,6.26,0,0,1,8.31,11.2a4.58,4.58,0,0,1-.72,3.56,1.12,1.12,0,0,1-.18.2,1,1,0,0,1-.22.14l-.93.5c.32-.63.14-1.39.29-2.07Z" transform="translate(-0.84 -0.3)"/><path d="M6.7,13.6a6.28,6.28,0,0,1,1.72-2.3l-.25-.06A4.93,4.93,0,0,1,8,13.68a3.47,3.47,0,0,1-.6,1.08,1.77,1.77,0,0,1-.52.33l-.69.38.2.21a8.33,8.33,0,0,0,.3-2.11l-.1.1h0a.15.15,0,0,0-.08-.29h0a.15.15,0,0,0-.11.11,8.15,8.15,0,0,1-.27,2,.15.15,0,0,0,.21.2l.73-.4A1.55,1.55,0,0,0,7.61,15a3.53,3.53,0,0,0,.65-1.15,5,5,0,0,0,.19-2.66c0-.12-.17-.13-.25-.07a6.48,6.48,0,0,0-1.75,2.36C6.37,13.62,6.63,13.77,6.7,13.6Z" transform="translate(-0.84 -0.3)"/><path class="cls-1" d="M10.52,14.12A21.29,21.29,0,0,0,13.09,12l0,0c0-.05,0-.11-.09-.11a.43.43,0,0,0-.16,0,4.55,4.55,0,0,1-1.23.24c-.28.06-.55.18-.82.23a4.31,4.31,0,0,0-1.36.24,3.62,3.62,0,0,1-.33.2c-.2.08-.44.05-.61.17a.7.7,0,0,0-.25.33c-.25.53-.37,1.12-.66,1.62a7,7,0,0,0,1.5-.31l1-.29a2.06,2.06,0,0,0,.54-.2Z" transform="translate(-0.84 -0.3)"/><path d="M10.59,14.25a19,19,0,0,0,2.39-2c.11-.1.32-.22.29-.39a.25.25,0,0,0-.23-.21c-.21,0-.42.16-.62.19s-.49.05-.73.09-.48.14-.72.2a3.56,3.56,0,0,1-.79.1,2.1,2.1,0,0,0-.66.14,4.48,4.48,0,0,1-.58.29,1.37,1.37,0,0,0-.52.16,1.1,1.1,0,0,0-.33.49c-.21.5-.34,1-.6,1.5a.15.15,0,0,0,.13.22,7.75,7.75,0,0,0,1.59-.33,8.39,8.39,0,0,0,1.49-.49.15.15,0,0,0-.11-.28l-.11,0a.15.15,0,0,0,.08.29l.11,0L10.55,14a7.85,7.85,0,0,1-1.42.46,7.13,7.13,0,0,1-1.51.32l.13.23a7.82,7.82,0,0,0,.47-1.16,3.33,3.33,0,0,1,.27-.61c.15-.23.38-.19.61-.26a1.72,1.72,0,0,0,.38-.2,1.53,1.53,0,0,1,.7-.2,4.85,4.85,0,0,0,1.14-.19,7.88,7.88,0,0,1,1.18-.21c.06,0,.64-.14.49-.29l-.44.41A17.49,17.49,0,0,1,10.44,14C10.28,14.09,10.43,14.35,10.59,14.25Z" transform="translate(-0.84 -0.3)"/><path class="cls-1" d="M11.16,14.44c-.37.35-.74.68-1.13,1a3.46,3.46,0,0,1-.65.49,2.78,2.78,0,0,1-.49.24l-1,.42a6.8,6.8,0,0,1-2.63.72A8.21,8.21,0,0,0,6.14,16a1.2,1.2,0,0,1,.16-.27,1.24,1.24,0,0,1,.23-.17,8.16,8.16,0,0,1,.9-.53,4.23,4.23,0,0,1,1.48-.4,1.68,1.68,0,0,1,.5,0c.15,0,.29.09.44.12a2.27,2.27,0,0,0,1.24-.23Z" transform="translate(-0.84 -0.3)"/><path d="M11.06,14.34c-.4.36-.8.73-1.21,1.08a5,5,0,0,1-1.41.8,8.37,8.37,0,0,1-3.14,1l.13.23q.27-.36.51-.75a3.9,3.9,0,0,1,.51-.86,3.42,3.42,0,0,1,.78-.52,4.27,4.27,0,0,1,.91-.38,3.61,3.61,0,0,1,.92-.15,4.88,4.88,0,0,1,.85.15,1.91,1.91,0,0,0,1.36-.35c.14-.13-.07-.35-.21-.21a1.67,1.67,0,0,1-.73.25,2.94,2.94,0,0,1-1-.13,3.51,3.51,0,0,0-1.72.3,4.79,4.79,0,0,0-.78.4,2.52,2.52,0,0,0-.66.46,3.92,3.92,0,0,0-.45.8q-.27.43-.57.84c-.07.09,0,.23.13.22a8.59,8.59,0,0,0,3.19-.95,5.76,5.76,0,0,0,1.46-.8c.45-.38.88-.78,1.32-1.18C11.41,14.42,11.2,14.2,11.06,14.34Z" transform="translate(-0.84 -0.3)"/><path class="cls-1" d="M5.61,13.83c.25-.31.52-.62.8-.92a4.72,4.72,0,0,0,0,.84,5.76,5.76,0,0,1-.56,2.82,2.36,2.36,0,0,1-.29.48.58.58,0,0,1-.41.22A.48.48,0,0,1,4.75,17a1.18,1.18,0,0,1-.06-.53A7.13,7.13,0,0,1,4.89,15a2.52,2.52,0,0,1,.23-.65,1.73,1.73,0,0,1,.48-.56Z" transform="translate(-0.84 -0.3)"/><path d="M5.72,13.94c.25-.32.52-.63.79-.92l-.25-.11a7.79,7.79,0,0,0,0,1.08,6.33,6.33,0,0,1-.07,1,4.48,4.48,0,0,1-.67,1.87c-.09.14-.26.34-.46.28s-.24-.28-.25-.45a4.55,4.55,0,0,1,.07-1,2.64,2.64,0,0,1,.79-1.75l-.25-.06v.06c0,.19.33.11.29-.08v-.06c0-.13-.17-.13-.25-.07a2.58,2.58,0,0,0-.81,1.56,7.8,7.8,0,0,0-.13,1,1.54,1.54,0,0,0,.1.9.61.61,0,0,0,.55.33A.86.86,0,0,0,5.81,17a4.57,4.57,0,0,0,.67-1.79,5.27,5.27,0,0,0,.11-1c0-.41-.07-.82,0-1.23a.15.15,0,0,0-.26-.1c-.28.29-.54.6-.8.92C5.38,13.88,5.6,14.09,5.72,13.94Z" transform="translate(-0.84 -0.3)"/></g><g id="Details"><path d="M9,5.81A2.84,2.84,0,0,0,8,7.07,4.16,4.16,0,0,0,7.55,9c0,.33,0,.66,0,1A3,3,0,0,1,7.33,11a4,4,0,0,1-1,1.83c-.16.11,0,.37.15.26a2.9,2.9,0,0,0,.87-1.34,5.06,5.06,0,0,0,.54-1.8A6.74,6.74,0,0,1,8,7.84,3.38,3.38,0,0,1,9.14,6.07c.16-.11,0-.36-.15-.26Z" transform="translate(-0.84 -0.3)"/><path d="M10.26,5a3.45,3.45,0,0,0-1.1,2.51,10.88,10.88,0,0,1-.71,3.3c-.08.18.18.33.26.15A10.12,10.12,0,0,0,9.41,8a9.27,9.27,0,0,1,.22-1.57,2.53,2.53,0,0,1,.84-1.24c.15-.13-.07-.34-.21-.22Z" transform="translate(-0.84 -0.3)"/><path d="M11.78,3.08a4.51,4.51,0,0,0-.89.91,2.79,2.79,0,0,0-.19,1.18c-.07,1-.18,2-.33,2.95,0,.19.26.27.28.08.14-.88.25-1.76.32-2.64a4.71,4.71,0,0,1,.13-1.3c.15-.4.6-.7.9-1,.14-.13-.07-.34-.22-.21Z" transform="translate(-0.84 -0.3)"/><path d="M15.49,1.38a6.3,6.3,0,0,0-1,1.06,2.68,2.68,0,0,0-.36.52,2.61,2.61,0,0,0-.21.67,11.76,11.76,0,0,1-1.18,2.84c-.08.18.17.33.26.16A13.62,13.62,0,0,0,14.15,4c.06-.23.09-.47.17-.7a2.28,2.28,0,0,1,.41-.66,6.19,6.19,0,0,1,1-1c.16-.12-.06-.33-.21-.22Z" transform="translate(-0.84 -0.3)"/><path d="M15.58,4.61a.88.88,0,0,1,.36-.78c.23-.22.47-.41.68-.65A1.55,1.55,0,0,0,17,2.43a2.66,2.66,0,0,1,.27-.91c.09-.17-.17-.32-.26-.15a2.69,2.69,0,0,0-.29.91,1.07,1.07,0,0,1-.17.49c-.11.14-.23.28-.35.41-.42.42-1.07.82-.92,1.51,0,.19.33.11.29-.08Z" transform="translate(-0.84 -0.3)"/><path d="M17.21,3.37a1.39,1.39,0,0,1,.15-.63,3.25,3.25,0,0,1,.33-.57,2.82,2.82,0,0,1,1-.75c.17-.08,0-.34-.16-.25A3.12,3.12,0,0,0,17.43,2a3.18,3.18,0,0,0-.35.62,1.57,1.57,0,0,0-.17.73.15.15,0,1,0,.3,0Z" transform="translate(-0.84 -0.3)"/><path d="M19.57,2.57c-.05-.22.15-.42.29-.56a5.38,5.38,0,0,1,.55-.52,13.76,13.76,0,0,1,1.26-.9c.16-.11,0-.37-.15-.26a13.05,13.05,0,0,0-1.41,1,4.53,4.53,0,0,0-.59.57.84.84,0,0,0-.24.72c0,.19.33.11.29-.08Z" transform="translate(-0.84 -0.3)"/><path d="M22.38,2A1.71,1.71,0,0,1,23,1.37a4.17,4.17,0,0,1,.51-.09.49.49,0,0,0,.34-.34.16.16,0,0,0-.11-.19.15.15,0,0,0-.18.11c0,.13-.19.15-.3.16a1.13,1.13,0,0,0-.5.13,2.49,2.49,0,0,0-.65.72.15.15,0,0,0,.05.2.16.16,0,0,0,.21,0Z" transform="translate(-0.84 -0.3)"/><path d="M21.44,3.6a2.66,2.66,0,0,1,1.08-.53c.22,0,.43,0,.65-.1a1.57,1.57,0,0,0,.55-.27.16.16,0,0,0,.06-.21.16.16,0,0,0-.21-.05A1.39,1.39,0,0,1,23,2.7a5,5,0,0,0-.66.11,2.92,2.92,0,0,0-1.1.58c-.15.13.07.34.21.21Z" transform="translate(-0.84 -0.3)"/><path d="M22,4.74l.8-.5a1.73,1.73,0,0,0,.59-.52.15.15,0,0,0-.26-.15,1.51,1.51,0,0,1-.53.44l-.75.47c-.16.1,0,.36.15.26Z" transform="translate(-0.84 -0.3)"/><path d="M19,6.32a20,20,0,0,0,2-.39,2.78,2.78,0,0,0,.95-.2c.3-.16.58-.37.87-.56a.15.15,0,0,0-.16-.25c-.26.17-.53.36-.81.52a2.43,2.43,0,0,1-.93.21c-.65.1-1.28.33-1.94.37-.19,0-.19.31,0,.3Z" transform="translate(-0.84 -0.3)"/><path d="M19.17,7.65A2.41,2.41,0,0,0,21,6.92a.74.74,0,0,1,.48-.2c.19,0,.37,0,.55,0a2,2,0,0,0,1-.3c.17-.09,0-.35-.15-.25a1.86,1.86,0,0,1-.95.26,1.45,1.45,0,0,0-.9.09c-.26.16-.48.39-.75.55a1.57,1.57,0,0,1-1,.26c-.19,0-.27.26-.08.29Z" transform="translate(-0.84 -0.3)"/><path d="M15.15,9.92A8.19,8.19,0,0,1,18.5,8.56c.19,0,.11-.32-.08-.29A8.48,8.48,0,0,0,15,9.66c-.16.11,0,.37.15.26Z" transform="translate(-0.84 -0.3)"/><path d="M13.33,12a10.22,10.22,0,0,0,1.17-.42,4,4,0,0,0,1.09-.73,8.3,8.3,0,0,1,1.21-.82,1.5,1.5,0,0,1,.65-.2A1.35,1.35,0,0,0,18,9.73c.17-.09,0-.35-.15-.26a2.2,2.2,0,0,1-.63.12,1.59,1.59,0,0,0-.52.17,8.52,8.52,0,0,0-1.13.75,6,6,0,0,1-1.09.78,9.19,9.19,0,0,1-1.24.45.15.15,0,0,0,.08.29Z" transform="translate(-0.84 -0.3)"/><path d="M11.39,14.55a10,10,0,0,0,1.29-.69,4,4,0,0,1,.6-.36,3.54,3.54,0,0,0,.62-.3,5.27,5.27,0,0,0,.87-.83,3.87,3.87,0,0,1,1.13-.84c.18-.08,0-.34-.15-.26a4.18,4.18,0,0,0-1.07.76,6.67,6.67,0,0,1-.93.91,4,4,0,0,1-.59.29,5.82,5.82,0,0,0-.6.34,8.12,8.12,0,0,1-1.33.72c-.17.08,0,.34.16.26Z" transform="translate(-0.84 -0.3)"/></g><g id="Draw"><path class="cls-2" d="M1,22.86a21.8,21.8,0,0,0,2.5-5.08c.23-.78.37-1.57.59-2.34a11,11,0,0,1,2.08-3.93,48.55,48.55,0,0,1,3.71-3.6A20.22,20.22,0,0,0,14.69.47L13.3,4a12.09,12.09,0,0,1-.74,1.64,9.14,9.14,0,0,1-1.11,1.45C10,8.63,8.33,9.93,7,11.51a7.85,7.85,0,0,0-2.3,5.64.41.41,0,0,0,.19.38.44.44,0,0,0,.3,0c2.57-.65,5.23-1.34,7.31-2.95.59-.45,1.12-1,1.74-1.4,2.23-1.52,5.22-1.53,7.56-2.87a32.18,32.18,0,0,1-3.87,1.48,15.24,15.24,0,0,0-4.45,2.67c-.44.39-.86.8-1.33,1.16a8.2,8.2,0,0,1-2.4,1.3c-.76.25-1.55.4-2.31.64A9,9,0,0,0,2,22.23c-.19.39-.51.88-.93.75Z" transform="translate(-0.84 -0.3)"/><path d="M1.13,22.93A21.1,21.1,0,0,0,3.9,16.84a12.49,12.49,0,0,1,3.46-6.39A46.86,46.86,0,0,0,11.75,6,20.74,20.74,0,0,0,14.84.51c.06-.18-.22-.26-.29-.08C13.81,2.3,13.22,4.5,12,6.14a36.25,36.25,0,0,1-4.1,4.12,12.43,12.43,0,0,0-2.92,4c-.3.71-1,2.51-.42,3.24.26.35.57.17,1,.09a25.21,25.21,0,0,0,2.58-.71,14.43,14.43,0,0,0,4.4-2.16c.69-.52,1.3-1.13,2-1.59a10.74,10.74,0,0,1,2.55-1.06,24.59,24.59,0,0,0,4.72-1.62c.17-.09,0-.34-.15-.26-2,1-4.14,1.41-6.06,2.53S12.18,15.79,10,16.63c-1.87.73-3.72.93-5.38,2.17a8.84,8.84,0,0,0-1.72,1.68,9.08,9.08,0,0,0-.74,1.09c-.1.17-.79,1.56-1.06,1.21-.12-.15-.38,0-.26.15.76,1,1.77-1.54,2-1.9A9.07,9.07,0,0,1,5.63,18.5a16.25,16.25,0,0,1,3.73-1.33c2.31-.69,3.68-2.42,5.62-3.72,2.13-1.42,4.6-1.86,6.85-3l-.15-.26c-2.52,1.36-5.57,1.37-7.9,3.11a18.68,18.68,0,0,1-4.31,2.78c-.71.28-1.43.52-2.16.73s-2.2.93-2.53-.19a5.34,5.34,0,0,1,.72-2.71,11,11,0,0,1,1.55-2.28c1-1.19,2.26-2.21,3.4-3.3A11.27,11.27,0,0,0,13,5.06c.69-1.47,1.22-3,1.82-4.55L14.55.43a20.61,20.61,0,0,1-3.51,6c-1.43,1.7-3.25,3-4.72,4.66A11.6,11.6,0,0,0,3.79,16a23.83,23.83,0,0,1-2.92,6.8A.15.15,0,0,0,1.13,22.93Z" transform="translate(-0.84 -0.3)"/></g></svg>