<svg id="Calque_2" data-name="Calque 2" xmlns="http://www.w3.org/2000/svg" viewBox="0 0 24.3 24.3"><defs><style>.cls-1{fill:#0038b8;}</style></defs><path class="cls-1" d="M5.34,10.16c1-1.52,2-3,2.93-4.56L9.1,4.32,11.91,0c1.33,1.87,2.61,3.78,3.82,5.72l-1.32.13a.69.69,0,0,1-.32,0,.66.66,0,0,1-.22-.22L12.11,3.07a56.25,56.25,0,0,0-5,7.7,4.84,4.84,0,0,1-.65,1,.37.37,0,0,1-.2.13A.39.39,0,0,1,6,11.74a2.08,2.08,0,0,1-.79-1.61Z" transform="translate(0.15 0.15)"/><path d="M5.47,10.24C7.64,6.84,9.84,3.46,12,.08h-.26c1.33,1.86,2.61,3.77,3.82,5.71l.13-.22c-.36,0-.74.11-1.1.11-.59,0-.73-.29-1-.73L12.24,3A.15.15,0,0,0,12,3,54.65,54.65,0,0,0,8.56,8Q7.8,9.2,7.09,10.51c-.18.33-.57,1.37-1,1.12a1.82,1.82,0,0,1-.74-1.5l-.19.15.17,0c.19,0,.27-.26.08-.28l-.17,0a.16.16,0,0,0-.19.14,1.74,1.74,0,0,0,.43,1.25c.17.23.47.7.82.68s.54-.46.68-.69c.34-.53.62-1.11.93-1.66a55.31,55.31,0,0,1,4.36-6.56H12a26.12,26.12,0,0,0,1.8,2.6c.44.5,1.36.18,1.94.12a.15.15,0,0,0,.13-.23C14.65,3.7,13.37,1.79,12-.08a.15.15,0,0,0-.26,0c-2.2,3.39-4.4,6.77-6.57,10.16C5.1,10.25,5.36,10.4,5.47,10.24Z" transform="translate(0.15 0.15)"/><path class="cls-1" d="M14.72,7.44l2.07,2.84a42.55,42.55,0,0,1,4.13,6.43c-1.36-.31-2.91.61-4.13,0a6.25,6.25,0,0,0-.68,1.46q3.95.12,7.89.11l-1.72-2.51L21.2,14.18l-.72-1C19.27,11.37,18.06,9.62,17,7.79a.89.89,0,0,0-.33-.36.94.94,0,0,0-.34-.07l-1.59-.12Z" transform="translate(0.15 0.15)"/><path d="M14.59,7.52a65,65,0,0,1,6.2,9.26l.17-.22c-1.35-.25-2.81.59-4.09,0a.16.16,0,0,0-.21.05A7,7,0,0,0,16,18.1a.15.15,0,0,0,.14.19q3.95.12,7.89.11a.15.15,0,0,0,.13-.23q-2.31-3.35-4.61-6.7c-.73-1.08-1.45-2.18-2.13-3.3-.23-.37-.4-.81-.86-.93a10.66,10.66,0,0,0-1.8-.15.17.17,0,0,0-.15.15v.2c0,.2.28.2.3,0v-.2l-.15.15a4.1,4.1,0,0,1,1.86.3,5.17,5.17,0,0,1,1.15,1.63q1,1.52,2,3c1.37,2,2.75,4,4.12,6L24,18.1q-3.94,0-7.89-.11l.15.19a6.39,6.39,0,0,1,.66-1.43l-.21.06c1.35.63,2.77-.22,4.17,0a.15.15,0,0,0,.17-.22,65,65,0,0,0-6.2-9.26C14.74,7.21,14.48,7.36,14.59,7.52Z" transform="translate(0.15 0.15)"/><path class="cls-1" d="M4.09,11.88l.85,1.21a.71.71,0,0,1,.15.33.65.65,0,0,1-.16.37L3,16.61a27.61,27.61,0,0,1,5.45.1,50.15,50.15,0,0,0,6.37-.07l-.64,1.27a.6.6,0,0,1-.22.27.69.69,0,0,1-.28.05q-6.84.07-13.67,0l4-6.32Z" transform="translate(0.15 0.15)"/><path d="M4,12l.64.91c.4.58.15.93-.2,1.45L2.86,16.54c-.06.08,0,.24.13.22a34,34,0,0,1,5.88.12,53.52,53.52,0,0,0,5.94-.09l-.13-.22c-.33.65-.51,1.42-1.31,1.51-.56.06-1.17,0-1.74,0l-3.93,0c-2.56,0-5.13,0-7.7,0l.13.22,2.08-3.28,1-1.58a5.66,5.66,0,0,1,1-1.46c.16-.12,0-.38-.15-.26a4,4,0,0,0-.76,1.09l-1.07,1.7L-.13,18.18a.15.15,0,0,0,.13.23q4.37,0,8.72,0l4.36,0a2,2,0,0,0,1-.09c.44-.27.66-1.13.88-1.57a.15.15,0,0,0-.12-.23,53.52,53.52,0,0,1-5.94.09A34,34,0,0,0,3,16.46l.13.23,1-1.53a7.63,7.63,0,0,0,1-1.47c.24-.64-.62-1.41-1-1.89C4.11,11.64,3.85,11.79,4,12Z" transform="translate(0.15 0.15)"/><path class="cls-1" d="M.09,5.87A72.5,72.5,0,0,1,7.89,6a4.72,4.72,0,0,0-.73,1.43L3.24,7.2c-.07,0-.16,0-.19.06a.15.15,0,0,0,0,.14,39.1,39.1,0,0,0,2.65,4l1.06,1.41a35.43,35.43,0,0,1,2.46,3.78l-1.87.05a1,1,0,0,1-.3,0,.7.7,0,0,1-.29-.22A12.61,12.61,0,0,1,5.41,14a17.86,17.86,0,0,0-1.72-2.37A30.35,30.35,0,0,1,.16,5.94Z" transform="translate(0.15 0.15)"/><path d="M.09,6a72.5,72.5,0,0,1,7.8.09l-.13-.23A5.21,5.21,0,0,0,7,7.35l.14-.11L4.89,7.13l-1,0c-.21,0-.6-.11-.79,0s-.14.36,0,.58c.36.64.75,1.27,1.16,1.89C5.8,12,7.68,14.18,9.12,16.72l.13-.23-1,0c-.34,0-.92.11-1.23-.1A3.85,3.85,0,0,1,6.05,15a14.74,14.74,0,0,0-1.89-3A34.25,34.25,0,0,1,1.89,8.8c-.35-.56-.67-1.13-1-1.71A5,5,0,0,0,.2,5.76C.05,5.64-.16,5.85,0,6a2.64,2.64,0,0,1,.44.83l.46.87c.34.6.69,1.19,1.07,1.77.72,1.13,1.55,2.17,2.37,3.22A10.94,10.94,0,0,1,5.45,14.4,15.71,15.71,0,0,0,6.29,16c.22.34.47.73.9.8a10.93,10.93,0,0,0,2.06,0,.14.14,0,0,0,.13-.22c-1.26-2.22-2.84-4.17-4.29-6.26-.35-.5-.68-1-1-1.52L3.61,8a5,5,0,0,1-.37-.67c.08-.09.79,0,.93,0l.93.05,2.06.1a.15.15,0,0,0,.14-.11A5.1,5.1,0,0,1,8,6c.07-.1,0-.22-.13-.23a72.5,72.5,0,0,0-7.8-.09C-.1,5.73-.1,6,.09,6Z" transform="translate(0.15 0.15)"/><path class="cls-1" d="M23.83,6Q21.75,9,20,12.17L19,11.32a.56.56,0,0,1-.26-.45.57.57,0,0,1,.17-.3,17,17,0,0,0,2.21-3.32,4.42,4.42,0,0,1-1.31.12L9.1,7.31l1-1.56a3.73,3.73,0,0,0,1.88.09,61.21,61.21,0,0,1,7.66-.23l4.34.06-.16.46Z" transform="translate(0.15 0.15)"/><path d="M23.7,5.89q-2.07,3-3.87,6.2l.24,0a4.36,4.36,0,0,1-.92-.84c-.29-.52.4-1.15.68-1.52a18.06,18.06,0,0,0,1.46-2.38.15.15,0,0,0-.17-.22,12.12,12.12,0,0,1-3,.11l-3,0-6,0,.13.23C9.47,7,9.8,6.1,10.24,6a3.86,3.86,0,0,1,.74.1c.24,0,.48,0,.72-.05,1.36-.14,2.7-.24,4.06-.27,2.73,0,5.46,0,8.18.07l-.14-.19-.16.46.29.08L24,6a.15.15,0,0,0-.29-.08l-.05.16c-.06.18.23.26.29.08l.16-.46a.16.16,0,0,0-.15-.19c-2.34,0-4.69-.08-7-.08-1.13,0-2.27,0-3.4.11s-2.35.43-3.4,0a.16.16,0,0,0-.17.07L9,7.23a.15.15,0,0,0,.12.23l6.25,0h3a11.39,11.39,0,0,0,2.8-.12L21,7.17a27.74,27.74,0,0,1-2.21,3.32c-.53.76.53,1.32,1,1.79a.16.16,0,0,0,.24,0Q21.89,9.06,24,6C24.07,5.88,23.81,5.73,23.7,5.89Z" transform="translate(0.15 0.15)"/><path class="cls-1" d="M8.59,18.51A42,42,0,0,1,12,24q3.31-5,6.5-10.07a1.25,1.25,0,0,0,.23-.53,1.29,1.29,0,0,0-.42-.92c-.13-.16-.35-.34-.54-.25.05.55-.41,1-.78,1.45a20.58,20.58,0,0,0-2.31,3.85,21.72,21.72,0,0,1-2.56,3.64l-1.26-2.11a1.84,1.84,0,0,0-.41-.55,2.37,2.37,0,0,0-2.1-.07Z" transform="translate(0.15 0.15)"/><path d="M8.49,18.62a28.5,28.5,0,0,1,3.36,5.46.16.16,0,0,0,.26,0c1.57-2.38,3.12-4.76,4.65-7.16l1.11-1.75a7.66,7.66,0,0,0,.94-1.54c.19-.62-.39-1.66-1.1-1.54a.15.15,0,0,0-.11.14c0,.81-.89,1.47-1.33,2.1A22.18,22.18,0,0,0,15,16.55a22.78,22.78,0,0,1-3,4.51l.24,0-.91-1.53a4.07,4.07,0,0,0-.8-1.16,2.47,2.47,0,0,0-2.23-.11.15.15,0,0,0,0,.29l.26.08a.15.15,0,0,0,.08-.29l-.26-.08v.29c.87-.24,1.74-.4,2.3.48.46.71.87,1.46,1.3,2.18a.14.14,0,0,0,.23,0,23.23,23.23,0,0,0,3.16-4.75,15.11,15.11,0,0,1,1.58-2.58,9.52,9.52,0,0,0,.71-.86,1.69,1.69,0,0,0,.19-.41c.08-.26,0-.44.35-.08.61.58.15,1.28-.21,1.85l-.86,1.36c-.58.91-1.15,1.81-1.74,2.72q-1.74,2.72-3.53,5.4h.26A29.31,29.31,0,0,0,8.7,18.4C8.58,18.26,8.36,18.47,8.49,18.62Z" transform="translate(0.15 0.15)"/></svg>