<svg id="Container" xmlns="http://www.w3.org/2000/svg" viewBox="0 0 21.4 24.3"><defs><style>.cls-1{fill:#c6c6c6;}.cls-2{fill:#ddd;}.cls-3{fill:#999;}.cls-4{fill:#b5945b;}.cls-5{fill:#997137;}.cls-6{fill:#fff;}</style></defs><g id="Draw"><g id="Base"><path class="cls-1" d="M6,22.51A141.27,141.27,0,0,1,6,7.11a1,1,0,0,1,.14-.56,1.41,1.41,0,0,1,.54-.41l2-1.1a3,3,0,0,0,.81-.56c.66-.74.12-1.76.33-2.65,2.55-.92,5.52-.44,8.25,0A3.91,3.91,0,0,0,19.23,5c.71.59,1.81.87,2.35,1.56A2.74,2.74,0,0,1,22,8.3l-.08,13.06a1.7,1.7,0,0,1-.14.83,1.85,1.85,0,0,1-.6.58,9.72,9.72,0,0,1-4.53,1.1A36.06,36.06,0,0,1,8,23.6c-.83-.14-1.79-.44-2-1.1Z" transform="translate(-0.77 0.15)"/><path d="M6.14,22.51c-.23-4.71-.25-9.42,0-14.12A2.57,2.57,0,0,1,6.8,6.27a7.14,7.14,0,0,1,1.33-.73c.61-.33,1.4-.63,1.73-1.28s-.23-1.87.4-2.4A5,5,0,0,1,12,1.51a12.53,12.53,0,0,1,1.5-.05A24.35,24.35,0,0,1,17,1.83c.6.1.87.08,1.06.65.12.39.09.84.22,1.24a2.93,2.93,0,0,0,.92,1.37c1,.79,2.32.92,2.63,2.31a14.4,14.4,0,0,1,.06,3.08l0,3.91,0,3.48a18.78,18.78,0,0,1,0,3.75c-.52,2.46-5.67,2.17-7.58,2.22a35.28,35.28,0,0,1-3.71-.09c-1.15-.09-3.71-.05-4.28-1.32a.14.14,0,0,0-.13-.08H6c-.19,0-.19.32,0,.3-.1,0,.75.72.9.79A8.6,8.6,0,0,0,9,23.91a35,35,0,0,0,6,.2c1.82-.08,6.71.1,7.07-2.47a25.32,25.32,0,0,0,0-2.89l0-3.05,0-6.09c0-1.29.25-2.72-.89-3.6-.52-.41-1.16-.61-1.7-1a3.7,3.7,0,0,1-1.28-3.14.16.16,0,0,0-.11-.15c-2.75-.49-5.61-.95-8.33,0a.12.12,0,0,0-.1.1c-.17,1.14.37,2.12-.78,3-.71.5-1.57.79-2.3,1.26-1.24.8-.85,2.55-.9,3.88q-.23,6.3.09,12.62C5.85,22.7,6.15,22.7,6.14,22.51Z" transform="translate(-0.77 0.15)"/></g></g><g id="Details"><path d="M21.79,6.55a41.75,41.75,0,0,1-6.61.29c-.92,0-1.84.12-2.76.11s-2-.15-3.05-.23c-.19,0-.19.29,0,.3,1.05.09,2.12.24,3.17.23s1.91-.12,2.88-.11a39.71,39.71,0,0,0,6.45-.3c.19,0,.11-.32-.08-.29Z" transform="translate(-0.77 0.15)"/><path d="M18.1,3.92A9.22,9.22,0,0,1,15,4.2c-1.13,0-2.25,0-3.37-.1-.19,0-.19.29,0,.3,1.17.07,2.33.1,3.5.1a9.16,9.16,0,0,0,3.09-.29c.18-.06.11-.35-.08-.29Z" transform="translate(-0.77 0.15)"/><path d="M20,22.5a14.32,14.32,0,0,0-2.16.36,22.48,22.48,0,0,1-2.71.31,22.55,22.55,0,0,1-5.19-.33c-.19,0-.27.25-.08.29a23.31,23.31,0,0,0,5.08.35,21.61,21.61,0,0,0,2.41-.24A24,24,0,0,1,20,22.8c.19,0,.19-.31,0-.3Z" transform="translate(-0.77 0.15)"/><path d="M16.77,2.65V4.08a.15.15,0,0,0,.3,0V2.65a.15.15,0,1,0-.3,0Z" transform="translate(-0.77 0.15)"/><path d="M15.91,2.55l-.07,1.1A.15.15,0,0,0,16,3.8a.15.15,0,0,0,.15-.15l.07-1.1a.15.15,0,0,0-.15-.15.15.15,0,0,0-.15.15Z" transform="translate(-0.77 0.15)"/><path d="M14.77,2.74v1a.15.15,0,0,0,.15.15.15.15,0,0,0,.15-.15v-1a.15.15,0,0,0-.15-.15.15.15,0,0,0-.15.15Z" transform="translate(-0.77 0.15)"/><path d="M13.57,2.84l-.08,1a.16.16,0,0,0,.15.15.15.15,0,0,0,.15-.15l.08-1a.15.15,0,0,0-.3,0Z" transform="translate(-0.77 0.15)"/><path d="M12.41,2.7a3.65,3.65,0,0,0-.06,1.14A.15.15,0,0,0,12.5,4a.16.16,0,0,0,.15-.15,3.44,3.44,0,0,1,0-1.06.15.15,0,0,0-.11-.18.14.14,0,0,0-.18.1Z" transform="translate(-0.77 0.15)"/><path d="M17.65,4.86a2.43,2.43,0,0,0,.94.94,3.57,3.57,0,0,1,1.05.84c.11.16.37,0,.26-.15a3.72,3.72,0,0,0-1.07-.9,2.23,2.23,0,0,1-.92-.88.15.15,0,0,0-.21,0,.16.16,0,0,0-.05.2Z" transform="translate(-0.77 0.15)"/><path d="M16.6,5.21a6.39,6.39,0,0,0,1.07,1.31c.14.13.35-.08.21-.21a6.85,6.85,0,0,1-1-1.25.15.15,0,1,0-.25.15Z" transform="translate(-0.77 0.15)"/><path d="M15.46,5A3,3,0,0,0,16,6.48a.17.17,0,0,0,.21,0,.16.16,0,0,0,.05-.21A2.69,2.69,0,0,1,15.76,5a.15.15,0,0,0-.15-.15.16.16,0,0,0-.15.15Z" transform="translate(-0.77 0.15)"/><path d="M14.15,5a4.63,4.63,0,0,1-.09,1.39c-.05.19.24.27.28.08A4.85,4.85,0,0,0,14.45,5a.15.15,0,0,0-.15-.15.16.16,0,0,0-.15.15Z" transform="translate(-0.77 0.15)"/><path d="M13.05,5a2.73,2.73,0,0,1-.69,1.4c-.12.14.09.36.22.21A3,3,0,0,0,13.33,5,.15.15,0,1,0,13.05,5Z" transform="translate(-0.77 0.15)"/><path d="M11.8,4.88c.07.31-.2.6-.41.81a3,3,0,0,0-.63.75.16.16,0,0,0,.06.21A.15.15,0,0,0,11,6.6c.29-.62,1.25-1,1.07-1.8,0-.19-.33-.11-.29.08Z" transform="translate(-0.77 0.15)"/><path d="M16.57,8q-.06,7,.37,13.91c0,.19.31.19.3,0Q16.81,15,16.87,8a.15.15,0,0,0-.3,0Z" transform="translate(-0.77 0.15)"/><path d="M18,8q.19,6.84.7,13.67c0,.19.31.19.3,0q-.5-6.83-.7-13.67c0-.19-.31-.19-.3,0Z" transform="translate(-0.77 0.15)"/><path d="M19.4,7.85c.12,2.31.53,4.59.62,6.9s.05,4.61.06,6.91a.15.15,0,0,0,.3,0c0-2.3,0-4.61-.06-6.91s-.5-4.59-.62-6.9c0-.19-.31-.19-.3,0Z" transform="translate(-0.77 0.15)"/><path d="M20.7,8a116,116,0,0,1,.5,13.57.15.15,0,0,0,.3,0A116,116,0,0,0,21,8c0-.19-.32-.19-.3,0Z" transform="translate(-0.77 0.15)"/><path d="M14.9,8a82.85,82.85,0,0,0,.65,14c0,.19.33.19.3,0A82.85,82.85,0,0,1,15.2,8c0-.2-.29-.2-.3,0Z" transform="translate(-0.77 0.15)"/><path d="M12.78,8q-.13,7,.4,13.91c0,.19.32.19.3,0Q12.94,15,13.08,8c0-.19-.29-.19-.3,0Z" transform="translate(-0.77 0.15)"/><path d="M10.83,8.19A121.07,121.07,0,0,0,11,21.66c0,.19.31.19.3,0a121.07,121.07,0,0,1-.12-13.47c0-.2-.29-.19-.3,0Z" transform="translate(-0.77 0.15)"/><path d="M9.26,8.29C9,12.88,9,17.49,9.1,22.09c0,.19.31.19.3,0-.14-4.6-.09-9.21.16-13.8,0-.2-.29-.2-.3,0Z" transform="translate(-0.77 0.15)"/></g><g id="Handle"><g id="Fixations"><path class="cls-2" d="M17.48,2.69a5,5,0,0,1,1.45.13.76.76,0,0,1,.35.16.53.53,0,0,1,.15.37.41.41,0,0,1-.06.36.64.64,0,0,1-.19.13,2.8,2.8,0,0,1-1.6.18" transform="translate(-0.77 0.15)"/><path d="M17.48,2.84a4.74,4.74,0,0,1,1.13.07,1.61,1.61,0,0,1,.48.12c.14.06.17.18.19.32a.41.41,0,0,1,0,.22c0,.07-.09.09-.15.12a2.6,2.6,0,0,1-.47.16,2.8,2.8,0,0,1-1,0c-.19,0-.27.26-.08.29a2.8,2.8,0,0,0,1,0A2.37,2.37,0,0,0,19,4.06a1.19,1.19,0,0,0,.44-.21.48.48,0,0,0,.15-.41A1.22,1.22,0,0,0,19.5,3c-.15-.29-.53-.34-.81-.39a4.9,4.9,0,0,0-1.21-.08c-.19,0-.19.31,0,.3Z" transform="translate(-0.77 0.15)"/><path class="cls-1" d="M18.55,3.48c-.07,0-.16,0-.16-.08s.07-.12.14-.1a.08.08,0,0,1,.06.14.2.2,0,0,1-.11,0c-.09,0-.21-.06-.16-.13a.15.15,0,0,1,.14,0c.08,0,.17,0,.17.1s-.05.11-.12.12a.26.26,0,0,1-.19,0,.14.14,0,0,1-.06-.13s.08-.09.14-.1a.34.34,0,0,1,.33.09.16.16,0,0,1-.15.22" transform="translate(-0.77 0.15)"/><path d="M18.51,3.34h0l0,0,0,0,0,0,0,0v0l0,0v0l0,0a0,0,0,0,1,0,0l0,0,0,0,0,0h0s0,0,0,0l0,0h0l0,0,0,0,0,0,0,0,0,0v0l0,0h0l0,0v0l0,0,0,0,0,0-.05,0h0s0,0-.06,0h0l-.06,0,0,0,0,0,0,0s0,0,0,0l0,0v0h0v0h0v0l0,0v0l0,0,0,0,0,0h0l0,0,.05,0h0s.05,0,.07,0h0l.07,0h0l.05,0,0,0,0,0,0,0v0l0,0v0s0,0,0,0l0,0,0,0,0,0,0,0,0,0,0,0,0,0h-.05l-.07,0,0,0,0,0,0,0s0,0,0,0v.05l0,0v0l0,0,0,0,0,0,0,0,0,0,.08,0h0l.09,0h0l.06,0,0,0,0,0,0,0,0,0,0,0a0,0,0,0,1,0,0v0a0,0,0,0,1,0,0l0,0,0,0,0,0,0,0,0,0,0,0,0,0-.05,0h0a.15.15,0,0,0-.15.15.16.16,0,0,0,.15.15.32.32,0,0,0,.32-.3.35.35,0,0,0-.29-.31h-.24a.4.4,0,0,0-.2.11.25.25,0,0,0-.06.16.23.23,0,0,0,0,.14.46.46,0,0,0,.23.16.4.4,0,0,0,.28,0,.26.26,0,0,0,.12-.27.36.36,0,0,0-.43-.19.22.22,0,0,0-.19.21.25.25,0,0,0,.13.21.42.42,0,0,0,.27,0,.23.23,0,0,0,.2-.18.24.24,0,0,0-.17-.27.27.27,0,0,0-.29.07.23.23,0,0,0-.06.16.19.19,0,0,0,.06.16.34.34,0,0,0,.29.08.15.15,0,1,0-.08-.29Z" transform="translate(-0.77 0.15)"/><path class="cls-3" d="M9.72,3.59A.71.71,0,0,1,9,3.18a.39.39,0,0,1,0-.24c.05-.21.35-.34.63-.36" transform="translate(-0.77 0.15)"/><path d="M9.72,3.44H9.61l-.1,0h0s0,0,0,0l-.09,0s0,0,0,0v0l0,0s0,0,0,0,0,0,0,0a.56.56,0,0,1-.05-.08v0h0a.14.14,0,0,1,0-.06h0V3s0,0,0,0,0,0,0,0l0,0s0,0,0,0l0,0h0l0,0,.09,0s0,0,0,0h0l.11,0h.06s0,0,0,0a.15.15,0,0,0,.15-.15c0-.07-.07-.16-.15-.15a.9.9,0,0,0-.73.37.65.65,0,0,0,.31.8.81.81,0,0,0,.5.14.16.16,0,0,0,.15-.15.15.15,0,0,0-.15-.15Z" transform="translate(-0.77 0.15)"/></g></g><g id="Top"><path class="cls-2" d="M9.54,1.56a.21.21,0,0,0-.24.16A.25.25,0,0,0,9.46,2a1,1,0,0,0,.33.1A17.64,17.64,0,0,0,13,2.19l1.64,0c.5,0,1,0,1.51,0,.19,0,.38,0,.58,0A7.73,7.73,0,0,0,18.36,2c.07,0,.15,0,.17-.09s-.08-.14-.19-.15a.68.68,0,0,1-.29,0,.44.44,0,0,0,.39-.1.24.24,0,0,0,0-.31A.76.76,0,0,0,18,1,12.34,12.34,0,0,0,15.59.77c-1.84-.05-3.69,0-5.53,0a2.16,2.16,0,0,0-.51.07.43.43,0,0,0-.32.29.26.26,0,0,0,.27.29" transform="translate(-0.77 0.15)"/><path d="M9.54,1.41c-.24,0-.48.19-.36.46s.65.34.94.38a27.12,27.12,0,0,0,3.93.07c.63,0,1.26,0,1.89,0a8.08,8.08,0,0,0,1.63,0c.25,0,1,0,1.11-.36s-.42-.31-.59-.38l0,.3c.29,0,.63-.11.62-.45S18.26.91,18,.85A17.73,17.73,0,0,0,14.21.59c-1.36,0-2.71,0-4.06.06-.33,0-.84,0-1,.36s0,.52.33.58a.15.15,0,0,0,.08-.29C9.42,1,9.54.91,9.89,1h.17l.55,0,1.11,0H14c.72,0,1.44,0,2.17,0,.36,0,.72,0,1.08.09.19,0,.38.05.56.09l.21,0c.28,0,.29.15,0,.36-.18,0-.19.23,0,.29s.19,0,.31,0a2.84,2.84,0,0,0-.49.1,6.21,6.21,0,0,1-1.29.13c-.74,0-1.47,0-2.21,0s-1.62,0-2.43,0c-.41,0-.83,0-1.24,0-.22,0-.44,0-.66-.07l-.28-.05a.16.16,0,0,1-.18-.17c.19,0,.19-.32,0-.3Z" transform="translate(-0.77 0.15)"/><path class="cls-2" d="M12.84,1.16A.89.89,0,0,1,13,.2a.3.3,0,0,1,.15-.12.47.47,0,0,1,.17,0,10.68,10.68,0,0,1,1.6,0,.94.94,0,0,1,.28.06.49.49,0,0,1,.25.35,1.57,1.57,0,0,1,0,.61s0,.09-.06.11a.27.27,0,0,1-.13,0h-.4c-.09-.18,0-.4-.1-.56a.74.74,0,0,0-.54-.14,1.28,1.28,0,0,0-.59.07.43.43,0,0,0-.27.49s0,.06,0,.08h0l-.36.06Z" transform="translate(-0.77 0.15)"/><path d="M13,1.08a.69.69,0,0,1,0-.47.57.57,0,0,1,.25-.39.7.7,0,0,1,.29,0l.28,0h.62a5.63,5.63,0,0,1,.58,0,.31.31,0,0,1,.31.23,1.4,1.4,0,0,1,0,.54s0,.1,0,.07-.12,0-.15,0h-.3l.14.11a1.75,1.75,0,0,1,0-.4.42.42,0,0,0-.22-.31,1.62,1.62,0,0,0-.9-.09.72.72,0,0,0-.63.46.37.37,0,0,0,0,.18s0,.1,0,.1l0-.09h-.08l-.12,0S12.91,1,13,1l-.1,0a.15.15,0,1,0-.08.28.45.45,0,0,0,.23,0,1,1,0,0,0,.41-.1c.1-.08.05-.17.05-.28A.28.28,0,0,1,13.66.7a.89.89,0,0,1,.4-.07,1.7,1.7,0,0,1,.39,0c.13,0,.22.07.22.21a.92.92,0,0,0,0,.37.16.16,0,0,0,.15.11h.3a.59.59,0,0,0,.3,0c.16-.09.16-.32.16-.47,0-.33-.07-.74-.4-.88a1.72,1.72,0,0,0-.56-.07H14l-.67,0a.59.59,0,0,0-.47.22,1.08,1.08,0,0,0-.14,1.13C12.78,1.41,13,1.26,13,1.08Z" transform="translate(-0.77 0.15)"/><g id="Details-2" data-name="Details"><path d="M10.25,1.59a13.66,13.66,0,0,0,3.44.25c.61,0,1.23,0,1.84,0s1.17-.14,1.75-.21c.19,0,.19-.33,0-.3-.58.07-1.16.17-1.75.21s-1.14,0-1.7,0a14.1,14.1,0,0,1-3.5-.24.15.15,0,0,0-.08.29Z" transform="translate(-0.77 0.15)"/></g><path class="cls-4" d="M2.36,12.74a.94.94,0,0,1-.65-.6,1.07,1.07,0,0,1,.11-.76A.53.53,0,0,1,2,11.16a1.22,1.22,0,0,1,.81-.07,14.22,14.22,0,0,0,3.45,0,4.48,4.48,0,0,1,1-.06,6,6,0,0,1,.61.12c1.21.28,2.51.34,3.72.63a.42.42,0,0,0-.41-.08.6.6,0,0,0-.3.95,3.12,3.12,0,0,1,.33.41,12.5,12.5,0,0,0-1.63-.14,6,6,0,0,0-1,0c-.39,0-.76.15-1.16.18a9.52,9.52,0,0,1-3-.56,4.28,4.28,0,0,0-1.07-.11,1.74,1.74,0,0,0-1,.31Z" transform="translate(-0.77 0.15)"/><path d="M2.4,12.59c-.77-.28-.75-1.44.19-1.37.44,0,.87.09,1.3.11a15.26,15.26,0,0,0,2.53-.1,9.61,9.61,0,0,1,2.44.27c.88.14,1.78.23,2.66.43a.15.15,0,0,0,.11-.27.65.65,0,0,0-.92.2c-.37.52.08.87.34,1.29l.17-.22a13.32,13.32,0,0,0-2.36-.17,13.54,13.54,0,0,1-2.38.16c-1.3-.19-3-1.16-4.21-.3l.21.21v0c.09-.16-.17-.32-.26-.15v0c-.07.12.07.29.2.2,1.23-.85,3,.26,4.3.37a14,14,0,0,0,2.05-.19,12.54,12.54,0,0,1,2.37.16c.12,0,.25-.1.17-.22l-.18-.24c-.16-.29-.22-1.26.35-.85l.12-.27C10.4,11.37,9.17,11.3,8,11a4.29,4.29,0,0,0-1.47-.12,17,17,0,0,1-1.88.13,18.13,18.13,0,0,1-1.81-.11,1.09,1.09,0,0,0-1,.21,1.07,1.07,0,0,0,.53,1.73C2.5,13,2.58,12.66,2.4,12.59Z" transform="translate(-0.77 0.15)"/><path class="cls-5" d="M11.75,13.11a1.06,1.06,0,0,0,.32-.93A.35.35,0,0,0,12,12a.75.75,0,0,0-.39-.19,1.7,1.7,0,0,0-.55,0,.74.74,0,0,0-.44.22.49.49,0,0,0-.08.35,1.29,1.29,0,0,0,0,.19,1,1,0,0,0,.83.55Z" transform="translate(-0.77 0.15)"/><path d="M11.86,13.22a1.28,1.28,0,0,0,.36-1.08.53.53,0,0,0-.39-.4,1.59,1.59,0,0,0-.61-.09c-.4,0-.83.21-.82.66a.91.91,0,0,0,.57.83,1.09,1.09,0,0,0,.49.13h.29a.15.15,0,0,0,0-.3H11.4l-.07,0a.81.81,0,0,1-.59-.42.51.51,0,0,1,0-.4.49.49,0,0,1,.32-.16,1.16,1.16,0,0,1,.49,0c.11,0,.31,0,.36.17a.7.7,0,0,1,0,.43,1,1,0,0,1-.26.44A.15.15,0,0,0,11.86,13.22Z" transform="translate(-0.77 0.15)"/><path class="cls-2" d="M19.07,2a.37.37,0,0,1,.36.25.58.58,0,0,1-.06.38,9.14,9.14,0,0,1-.91,1.86c-.49.72-1.2,1.37-1.66,2.11-.2.34-.36.69-.55,1a11.29,11.29,0,0,1-.75,1.15l-2,2.89a3.1,3.1,0,0,1-.67.74,1.69,1.69,0,0,1-1.13.28c-.17,0-.34-.09-.35-.21s.23-.23.42-.3a3,3,0,0,0,1.41-1.22c1-1.35,1.9-2.73,2.75-4.13.28-.46.55-.93.85-1.38.61-.89,1.35-1.73,1.95-2.61.06-.09.11-.2,0-.27s-.33,0-.46.05-.31.18-.46.12a.16.16,0,0,1-.11-.22.44.44,0,0,1,.22-.2A2.6,2.6,0,0,1,19,1.93Z" transform="translate(-0.77 0.15)"/><path d="M19,2.11l.1.22a.27.27,0,0,1,0,.39,1.92,1.92,0,0,1-.14.33q-.14.33-.3.66a7.19,7.19,0,0,1-.91,1.34A11.33,11.33,0,0,0,16.3,7.17a22.08,22.08,0,0,1-1.64,2.51l-.84,1.19a7,7,0,0,1-.93,1.22,1.61,1.61,0,0,1-.74.39c-.05,0-.52.07-.37-.2,0,0,.16-.06.19-.08a2.72,2.72,0,0,0,.86-.64,17.87,17.87,0,0,0,1.59-2.18c1.14-1.68,2.1-3.49,3.35-5.1.31-.39.61-.77.9-1.17.12-.18.36-.43.19-.65s-.34-.11-.52-.08-.48.06-.08-.1c.15-.07.59-.27.73-.19a.15.15,0,0,0,.15-.26c-.35-.21-1.57.23-1.6.69,0,.21.16.32.35.34s.28-.12.45-.15c.44-.08.16,0,.12.17a2.46,2.46,0,0,1-.39.54,32.62,32.62,0,0,0-2.15,3c-.67,1.11-1.37,2.21-2.11,3.28a17.14,17.14,0,0,1-1.14,1.55,2.58,2.58,0,0,1-.55.49c-.24.15-.54.2-.76.36s-.26.33-.09.51.82.18,1.13.08c1-.31,1.49-1.45,2-2.22a27.16,27.16,0,0,0,2.12-3.19c.61-1.16,1.58-2,2.24-3.12a6,6,0,0,0,.78-1.76.5.5,0,0,0-.47-.62C18.92,1.79,18.83,2.08,19,2.11Z" transform="translate(-0.77 0.15)"/><path class="cls-3" d="M9.47,2.43a.31.31,0,0,0-.33-.34.52.52,0,0,0-.27.17A45.74,45.74,0,0,0,5.29,5.78a5.2,5.2,0,0,0-.55.69c-.11.18-.2.38-.32.56a3.74,3.74,0,0,1-.54.59c-.63.6-1.27,1.2-1.86,1.86a5.51,5.51,0,0,0-.93,1.28,1.15,1.15,0,0,0-.16.67.79.79,0,0,0,.77.68,2.89,2.89,0,0,1,.12-1.31,2.89,2.89,0,0,1,.56-.8c.66-.73,1.33-1.46,2-2.18L6.66,5.35c.22-.23.44-.47.67-.68s.4-.33.58-.5A11.6,11.6,0,0,0,9,2.9c.09-.1.26-.19.32-.08s0,.12,0,.18.27.11.34,0a.58.58,0,0,0,0-.41Z" transform="translate(-0.77 0.15)"/><path d="M9.62,2.43A.46.46,0,0,0,8.92,2,9.57,9.57,0,0,0,7.39,3.41,15.68,15.68,0,0,0,4.46,6.68,7.89,7.89,0,0,1,3,8.29,14.88,14.88,0,0,0,1.43,9.94a2.3,2.3,0,0,0-.65,1.53,1,1,0,0,0,.92.79.17.17,0,0,0,.15-.15A3.17,3.17,0,0,1,1.91,11a2.37,2.37,0,0,1,.58-.89C3,9.57,3.46,9,4,8.51,5,7.42,6,6.32,7,5.25,7.39,4.8,7.89,4.44,8.3,4c.17-.2.33-.41.49-.61S9,3,9.15,3s0,.08,0,.09.1.15.27.15a.34.34,0,0,0,.29-.17.6.6,0,0,0-.17-.75.15.15,0,0,0-.21.22s.41.48.08.37c0,0,0-.13,0-.14s-.1-.13-.2-.15c-.34-.05-.62.5-.78.71A10.05,10.05,0,0,1,7.23,4.56c-.53.48-1,1-1.48,1.56-.94,1-1.88,2-2.81,3.05a7.19,7.19,0,0,0-1.18,1.41,2.76,2.76,0,0,0-.21,1.53L1.7,12c-1.1-.1-.39-1.36,0-1.85A12.53,12.53,0,0,1,2.77,8.9,10.92,10.92,0,0,0,4.72,6.83a11.64,11.64,0,0,1,2-2.36c.38-.38.75-.74,1.13-1.1.21-.2.41-.39.62-.57,0,0,.79-.77.83-.37C9.34,2.62,9.64,2.62,9.62,2.43Z" transform="translate(-0.77 0.15)"/></g><g id="Label"><path class="cls-6" d="M7.33,15c4.49.25,9.09.49,13.42-.5l.06,5.14a.26.26,0,0,1,0,.21.56.56,0,0,1-.28.13,44.83,44.83,0,0,1-12.41.8c-.32,0-.7-.09-.81-.32a.53.53,0,0,1,0-.28L7.41,15Z" transform="translate(-0.77 0.15)"/><path d="M7.33,15.13c4.49.24,9,.48,13.46-.5l-.19-.15,0,3,0,1.49c0,.15.08.53,0,.67s-.5.25-.73.29a44.44,44.44,0,0,1-5.87.75,40.58,40.58,0,0,1-5.73,0c-.33,0-.56,0-.79-.27s-.16-.42-.15-.74l.05-1.49L7.56,15a.16.16,0,0,0-.08-.13l-.07,0a.15.15,0,0,0-.15.26,7.67,7.67,0,0,1-.06,1.54l-.07,1.89a8,8,0,0,0-.06,1.76.61.61,0,0,0,.35.47,2.64,2.64,0,0,0,1,.16C9,21,9.58,21,10.15,21c1.21,0,2.43,0,3.65-.05s2.33-.17,3.49-.32a19.47,19.47,0,0,0,3.23-.55c.74-.24.44-1.2.43-1.83l-.05-3.79a.15.15,0,0,0-.19-.14c-4.39,1-8.92.73-13.38.49C7.14,14.82,7.14,15.12,7.33,15.13Z" transform="translate(-0.77 0.15)"/><path d="M9.31,19.64a32.2,32.2,0,0,0,.11-3.54l-.25.11c.25.25.54.48.77.76s.15.53.39.73a.15.15,0,0,0,.23,0,11.86,11.86,0,0,1,1-1.57L11.35,16l-.2,3.65c0,.19.29.19.3,0l.2-3.65a.15.15,0,0,0-.26-.1,11.29,11.29,0,0,0-1.09,1.63l.24,0c-.12-.1-.13-.24-.18-.38a1,1,0,0,0-.21-.36A9.09,9.09,0,0,0,9.38,16a.15.15,0,0,0-.26.1A32.2,32.2,0,0,1,9,19.64c0,.19.28.19.3,0Z" transform="translate(-0.77 0.15)"/><path d="M13.08,16v3.58a.15.15,0,0,0,.3,0V16a.15.15,0,0,0-.3,0Z" transform="translate(-0.77 0.15)"/><path d="M14.84,16l-.07,3.55a.15.15,0,0,0,.15.15,18.32,18.32,0,0,1,2,0c.19,0,.19-.29,0-.3a18.32,18.32,0,0,0-2,0l.15.15L15.14,16c0-.19-.29-.19-.3,0Z" transform="translate(-0.77 0.15)"/><path d="M18.28,19.47q-.12-1.83-.06-3.66a.15.15,0,0,0-.3,0q-.06,1.83.06,3.66c0,.19.31.19.3,0Z" transform="translate(-0.77 0.15)"/><path d="M18.25,17.52a8.7,8.7,0,0,1,1.13-.87c.34-.22.79-.41,1-.8a.16.16,0,0,0-.06-.21.14.14,0,0,0-.2.06,1.07,1.07,0,0,1-.39.4c-.19.12-.38.23-.57.36A9.87,9.87,0,0,0,18,17.3c-.15.13.06.34.21.22Z" transform="translate(-0.77 0.15)"/><path d="M18.05,17.49a6.14,6.14,0,0,0,1.05.84l1.23.85c.16.11.31-.15.16-.25l-1.2-.83a5.21,5.21,0,0,1-1-.83c-.13-.14-.34.07-.21.22Z" transform="translate(-0.77 0.15)"/></g></svg>