<svg xmlns="http://www.w3.org/2000/svg" viewBox="0 0 22.46 24.3"><defs><style>.cls-1{fill:#efefef;}.cls-2{fill:#fff;}.cls-3{fill:#c6c6c6;}.cls-4{fill:#ddd;}.cls-5{fill:#999;}.cls-6{fill:#b5945b;}.cls-7{fill:#997137;}</style></defs><g id="Glass"><path d="M2.19,22.23c-.53-.27-.56-1-.65-1.53q-.17-1-.27-2.07a30.46,30.46,0,0,1-.11-3.94L1,14.84a12.53,12.53,0,0,0,3.43.64A7.77,7.77,0,0,0,6,15.43a1,1,0,0,0,.81-.52l-.28,0a14,14,0,0,1-.44,5.78A8.63,8.63,0,0,1,5.74,22c-.19.4-.89.41-1.29.47-.63.09-2,.4-2.39-.31l-.2.2.17.13c.16.11.31-.15.16-.26L2,22.1c-.13-.09-.28.09-.21.21.4.73,1.41.59,2.1.53a14.06,14.06,0,0,0,1.58-.26c.5-.12.52-.39.65-.88a16,16,0,0,0,.69-6.91.15.15,0,0,0-.27,0c-.19.43-.77.4-1.17.42a11.38,11.38,0,0,1-1.43,0,12.46,12.46,0,0,1-2.9-.6.15.15,0,0,0-.19.14A30.15,30.15,0,0,0,1,19.25c.08.69.17,1.39.31,2.07A1.51,1.51,0,0,0,2,22.49C2.21,22.58,2.36,22.32,2.19,22.23Z" transform="translate(-0.84 0.15)"/><path d="M1.45,14.59c-.07,0-.13,0-.18.08l.09,0,.17,0L2,14.54a9.78,9.78,0,0,1,1.43-.16,9.63,9.63,0,0,1,2.78.28c.08,0,.22.05.27.12s-.11.3-.25.33a2.28,2.28,0,0,1-.69.06c-.45,0-.9-.08-1.34-.13s-.94,0-1.4-.09-.9-.24-1.34-.36a.15.15,0,0,0-.08.29,10.9,10.9,0,0,0,1.39.36c.47.08,1,0,1.43.1a10.57,10.57,0,0,0,1.49.13c.33,0,.8,0,1-.31.6-.78-1.11-.94-1.5-1a10.27,10.27,0,0,0-2.93,0l-.74.14a1.15,1.15,0,0,0-.37.06c-.31.15,0,.43.21.49S1.63,14.65,1.45,14.59Z" transform="translate(-0.84 0.15)"/><path class="cls-1" d="M2.8,16.62a3.61,3.61,0,0,1-1.46-.15.32.32,0,0,1-.16-.09.13.13,0,0,1,0-.17s.08-.05.12-.07a8.45,8.45,0,0,1,1-.21A8.68,8.68,0,0,1,4,16c.78.07,1.57.16,2.35.29a.34.34,0,0,1,.22.09.08.08,0,0,1,0,.08c0,.05-.06.07-.1.08a3,3,0,0,1-.85.15c-.8.06-1.61.09-2.42.07a1.77,1.77,0,0,1-.51-.05Z" transform="translate(-0.84 0.15)"/><path d="M2.8,16.47a3.46,3.46,0,0,1-1.28-.11l-.14,0q-.15,0,0-.06a1.46,1.46,0,0,1,.3-.07q.33-.07.66-.12a12.18,12.18,0,0,1,2.56.13l.67.08a3.61,3.61,0,0,1,.67.1s.16,0,0,0l-.34.06-.61,0c-.41,0-.84,0-1.26,0a4.8,4.8,0,0,1-1.31,0v.29l.12,0c.18-.06.1-.35-.08-.29l-.12,0a.15.15,0,0,0,0,.29,4.64,4.64,0,0,0,1.29.06c.49,0,1,0,1.47-.05a2.57,2.57,0,0,0,1.2-.22c.2-.15.09-.38-.11-.46a3,3,0,0,0-.6-.11l-.65-.08L3.8,15.79a7.32,7.32,0,0,0-1.48,0,3.83,3.83,0,0,0-.59.1,1.91,1.91,0,0,0-.62.17c-.29.19,0,.48.19.56a3.46,3.46,0,0,0,1.5.16C3,16.75,3,16.45,2.8,16.47Z" transform="translate(-0.84 0.15)"/><path class="cls-2" d="M6.75,17.38A19.3,19.3,0,0,1,6,21.78a1.25,1.25,0,0,1-.2.42,1.09,1.09,0,0,1-.46.25,6.05,6.05,0,0,1-2.43.22,1.83,1.83,0,0,1-.83-.25,1.49,1.49,0,0,1-.48-.68,4.42,4.42,0,0,1-.17-.82l-.25-1.85A12.23,12.23,0,0,1,1,16.24a1.58,1.58,0,0,0,1,.35c.51.06,1,.1,1.54.12s1.15,0,1.73,0a2.59,2.59,0,0,0,.48,0c.32-.06.62-.21.93-.29a5,5,0,0,1,0,1.85Z" transform="translate(-0.84 0.15)"/><path d="M6.6,17.38A19,19,0,0,1,6,21a7.76,7.76,0,0,1-.22.79c-.12.36-.41.45-.74.53a5.56,5.56,0,0,1-1.77.19,1.54,1.54,0,0,1-1.51-.71A6.65,6.65,0,0,1,1.46,20a16.44,16.44,0,0,1-.28-3.77l-.26.11a1.79,1.79,0,0,0,1,.38c.54.07,1.08.11,1.63.13s1.15,0,1.73,0a6.09,6.09,0,0,0,1.45-.33l-.18-.11a5.26,5.26,0,0,1,0,1.77l.29,0,0-.82c0-.2-.29-.2-.3,0l0,.82c0,.17.27.21.3,0a5.68,5.68,0,0,0,0-1.93.15.15,0,0,0-.19-.1,5.81,5.81,0,0,1-1.37.32c-.5,0-1,0-1.49,0s-1,0-1.43-.08a2.12,2.12,0,0,1-1.26-.34.15.15,0,0,0-.26.1,14,14,0,0,0,.23,3.36c.07.57.13,1.15.23,1.71a1.87,1.87,0,0,0,.53,1.12,1.94,1.94,0,0,0,1.21.41,6.8,6.8,0,0,0,1.56-.07,2.43,2.43,0,0,0,1.23-.43,2.73,2.73,0,0,0,.48-1.28,19.94,19.94,0,0,0,.55-3.68C6.91,17.18,6.61,17.18,6.6,17.38Z" transform="translate(-0.84 0.15)"/><g id="Details"><path d="M1.2,17.83l.42,2.53c.06.4.11.81.19,1.2a.86.86,0,0,0,.48.65,2.7,2.7,0,0,0,.93.18,5.44,5.44,0,0,0,1.21,0C5,22.3,5.82,22.15,6,21.45c0-.19-.26-.27-.29-.08-.13.67-1.1.7-1.63.73a6.55,6.55,0,0,1-1,0,1.26,1.26,0,0,1-.82-.28.91.91,0,0,1-.15-.48c0-.16-.06-.32-.08-.48l-.17-1-.34-2.09c0-.19-.32-.11-.29.08Z" transform="translate(-0.84 0.15)"/></g></g><g id="Container"><g id="Draw"><g id="Base"><path class="cls-3" d="M11.74,22.51q-.27-7.7,0-15.4a1.5,1.5,0,0,1,.1-.56,1.1,1.1,0,0,1,.39-.41L13.69,5a2.37,2.37,0,0,0,.58-.56c.47-.74.09-1.76.24-2.65,1.81-.92,3.92-.44,5.86,0A5,5,0,0,0,21.16,5c.51.59,1.29.87,1.67,1.56a3.55,3.55,0,0,1,.3,1.78l-.05,13.06a2.32,2.32,0,0,1-.11.83,1.63,1.63,0,0,1-.42.58,5.4,5.4,0,0,1-3.22,1.1,18.34,18.34,0,0,1-6.14-.27c-.59-.14-1.27-.44-1.4-1.1Z" transform="translate(-0.84 0.15)"/><path d="M11.89,22.51q-.21-6.1-.07-12.2a18.65,18.65,0,0,1,.1-3c.23-1.11,1.2-1.57,2-2.25a1.9,1.9,0,0,0,.73-1.17c.21-1.09-.47-1.87,1-2.3a6.92,6.92,0,0,1,3.07,0A4.52,4.52,0,0,1,20,1.93c.4.29.28.84.35,1.28.2,1.39.86,1.9,1.84,2.77S23,8,23,9.17l0,3.26,0,6.1c0,1.15.23,2.58-.26,3.62-.61,1.31-2.26,1.47-3.56,1.59a25.78,25.78,0,0,1-3.29.09c-1.07-.06-3.46-.07-3.9-1.37a.14.14,0,0,0-.14-.11h0c-.18,0-.19.32,0,.3-.22,0,.47.68.5.71a4.52,4.52,0,0,0,1.71.55,19.26,19.26,0,0,0,4.55.17,7.24,7.24,0,0,0,3.85-1c1-.75.88-1.68.88-2.85l.05-10.88c0-1.17.2-2.52-.69-3.43-.47-.48-1.11-.75-1.49-1.32a5.23,5.23,0,0,1-.58-2.76.15.15,0,0,0-.11-.15A15.61,15.61,0,0,0,17,1.16c-.61,0-2.2,0-2.62.56-.12.16-.07.44-.08.62,0,.85.22,1.59-.42,2.34s-1.77,1-2.16,1.81-.17,2.27-.2,3.18c0,1.43-.06,2.85-.07,4.28,0,2.85,0,5.71.12,8.56C11.6,22.7,11.9,22.7,11.89,22.51Z" transform="translate(-0.84 0.15)"/></g></g><g id="Details-2" data-name="Details"><path d="M23,6.55a20.4,20.4,0,0,1-4.62.29c-.34,0-.67,0-1,0s-.63.09-1,.1a19.06,19.06,0,0,1-2.25-.23c-.19,0-.19.28,0,.3a19.06,19.06,0,0,0,2.25.23c.34,0,.68-.09,1-.11s.73,0,1.09,0a19.68,19.68,0,0,0,4.54-.3c.19,0,.11-.33-.08-.29Z" transform="translate(-0.84 0.15)"/><path d="M20.31,3.94a4.89,4.89,0,0,1-2.19.26c-.8,0-1.59,0-2.39-.1-.19,0-.19.28,0,.3.86.07,1.72.1,2.58.1a4.75,4.75,0,0,0,2.15-.3c.18-.09,0-.35-.15-.26Z" transform="translate(-0.84 0.15)"/><path d="M21.67,22.5a9.86,9.86,0,0,0-1.67.39,11,11,0,0,1-1.8.28,11.62,11.62,0,0,1-3.67-.33.15.15,0,0,0-.08.29,11.88,11.88,0,0,0,3.61.35,13.06,13.06,0,0,0,1.76-.24,12.12,12.12,0,0,1,1.85-.44c.19,0,.2-.31,0-.3Z" transform="translate(-0.84 0.15)"/><path d="M19.37,2.65V4.08a.15.15,0,0,0,.3,0V2.65a.15.15,0,0,0-.3,0Z" transform="translate(-0.84 0.15)"/><path d="M18.76,2.55l-.05,1.1a.15.15,0,0,0,.15.15A.16.16,0,0,0,19,3.65l0-1.1a.16.16,0,0,0-.15-.15.15.15,0,0,0-.15.15Z" transform="translate(-0.84 0.15)"/><path d="M17.94,2.74v1a.15.15,0,0,0,.3,0v-1a.15.15,0,1,0-.3,0Z" transform="translate(-0.84 0.15)"/><path d="M17.09,2.84l-.05,1a.15.15,0,0,0,.15.15.16.16,0,0,0,.15-.15l.05-1a.14.14,0,0,0-.15-.15.15.15,0,0,0-.15.15Z" transform="translate(-0.84 0.15)"/><path d="M16.27,2.7a6.22,6.22,0,0,0-.05,1.14.16.16,0,0,0,.15.15.15.15,0,0,0,.15-.15,5.38,5.38,0,0,1,0-1.06.15.15,0,0,0-.11-.18.14.14,0,0,0-.18.1Z" transform="translate(-0.84 0.15)"/><path d="M20,4.82a2.26,2.26,0,0,0,.68,1,3.29,3.29,0,0,1,.76.86c.08.17.34,0,.25-.15a3.13,3.13,0,0,0-.74-.88,2,2,0,0,1-.66-.87.15.15,0,0,0-.29.08Z" transform="translate(-0.84 0.15)"/><path d="M19.25,5.21A6.6,6.6,0,0,0,20,6.49a.15.15,0,0,0,.2,0,.14.14,0,0,0,.06-.2,6.6,6.6,0,0,1-.75-1.28c0-.08-.14-.09-.21-.06a.17.17,0,0,0-.05.21Z" transform="translate(-0.84 0.15)"/><path d="M18.44,5a3.59,3.59,0,0,0,.42,1.49c.09.17.34,0,.25-.16A3.44,3.44,0,0,1,18.74,5a.16.16,0,0,0-.15-.15.15.15,0,0,0-.15.15Z" transform="translate(-0.84 0.15)"/><path d="M17.51,5a7.2,7.2,0,0,1-.07,1.39.17.17,0,0,0,.1.19.15.15,0,0,0,.19-.11A6.6,6.6,0,0,0,17.81,5c0-.2-.31-.2-.3,0Z" transform="translate(-0.84 0.15)"/><path d="M16.72,5a3.33,3.33,0,0,1-.5,1.39c-.1.16.16.31.26.15A3.51,3.51,0,0,0,17,5c0-.08-.08-.15-.15-.15a.15.15,0,0,0-.15.15Z" transform="translate(-0.84 0.15)"/><path d="M15.84,4.88a1.17,1.17,0,0,1-.29.81,3.47,3.47,0,0,0-.46.79c-.06.18.23.26.29.08a4,4,0,0,1,.49-.81,1.37,1.37,0,0,0,.26-1,.16.16,0,0,0-.19-.11.15.15,0,0,0-.1.19Z" transform="translate(-0.84 0.15)"/><path d="M19.23,8q0,7,.26,13.91c0,.19.31.19.3,0Q19.49,15,19.53,8a.15.15,0,0,0-.3,0Z" transform="translate(-0.84 0.15)"/><path d="M20.25,8q.15,6.84.5,13.67c0,.19.31.19.3,0q-.36-6.83-.5-13.67c0-.19-.31-.19-.3,0Z" transform="translate(-0.84 0.15)"/><path d="M21.24,7.85c.09,2.31.38,4.59.44,6.9s0,4.61,0,6.91a.15.15,0,0,0,.3,0c0-2.3,0-4.61,0-6.91s-.35-4.59-.44-6.9c0-.19-.31-.19-.3,0Z" transform="translate(-0.84 0.15)"/><path d="M22.16,8q.46,6.78.36,13.57a.15.15,0,0,0,.3,0q.11-6.78-.36-13.57c0-.19-.31-.19-.3,0Z" transform="translate(-0.84 0.15)"/><path d="M18,8a116.66,116.66,0,0,0,.46,14c0,.19.32.19.3,0a116.66,116.66,0,0,1-.46-14c0-.2-.29-.2-.3,0Z" transform="translate(-0.84 0.15)"/><path d="M16.53,8q-.09,7,.29,13.91c0,.19.31.19.3,0Q16.73,15,16.83,8c0-.19-.29-.19-.3,0Z" transform="translate(-0.84 0.15)"/><path d="M15.15,8.19q-.22,6.74.08,13.47c0,.19.31.19.3,0q-.31-6.73-.08-13.47a.15.15,0,1,0-.3,0Z" transform="translate(-0.84 0.15)"/><path d="M14,8.29q-.27,6.9-.11,13.8a.15.15,0,0,0,.3,0q-.15-6.9.11-13.8c0-.2-.29-.2-.3,0Z" transform="translate(-0.84 0.15)"/></g><g id="Handle"><g id="Fixations"><path class="cls-4" d="M19.92,2.69a2.57,2.57,0,0,1,1,.13A.51.51,0,0,1,21.2,3a.76.76,0,0,1,.11.37.54.54,0,0,1,0,.36.57.57,0,0,1-.14.13A1.46,1.46,0,0,1,20,4" transform="translate(-0.84 0.15)"/><path d="M19.92,2.84a2.35,2.35,0,0,1,.65,0L20.9,3a.36.36,0,0,1,.19.13.41.41,0,0,1,.06.24.66.66,0,0,1,0,.28c0,.07-.13.11-.19.15a1.36,1.36,0,0,1-.28.11,1.3,1.3,0,0,1-.65,0c-.19,0-.27.25-.08.29a1.59,1.59,0,0,0,.75,0A1.63,1.63,0,0,0,21.07,4a.86.86,0,0,0,.3-.23.54.54,0,0,0,.09-.37,1.12,1.12,0,0,0-.05-.36.5.5,0,0,0-.22-.31,1.07,1.07,0,0,0-.35-.14,2.85,2.85,0,0,0-.92-.09.15.15,0,0,0-.15.15.15.15,0,0,0,.15.15Z" transform="translate(-0.84 0.15)"/><path class="cls-3" d="M20.68,3.48c-.05,0-.11,0-.12-.08s.05-.12.1-.1a.09.09,0,0,1,.05.14.11.11,0,0,1-.08,0c-.07,0-.15-.06-.12-.13a.1.1,0,0,1,.1,0,.13.13,0,0,1,.13.1.12.12,0,0,1-.09.12.13.13,0,0,1-.13,0,.15.15,0,0,1-.05-.13.14.14,0,0,1,.1-.1.19.19,0,0,1,.23.09c0,.09,0,.22-.1.22" transform="translate(-0.84 0.15)"/><path d="M20.64,3.34h0l0,0h0l0,0s0,0,0,0l0,0v.06s0,0,0,0l0,0a0,0,0,0,1,0,0l0,0h-.07l0,0v0l0,0s0,0,0,0v0s0,0,0,0V3.36s0,0,0,0l0,0v0l0,0v0l0,0h0s0,0,0,0h0l0,0,0,0,0,0,0,0,0,0s0,0,0,0l0,0v0h0v0a0,0,0,0,0,0,0l0,0h0l0,0h0l0,0,0,0,0,0,0,0a0,0,0,0,1,0,0l0,0a0,0,0,0,1,0,0V3.38a0,0,0,0,1,0,0l0,0v0l0,0,0,0,0,0h0l0,0,0,0,0,0,0,0s0,0,0,0l0,0a0,0,0,0,1,0,0v.05a0,0,0,0,0,0,0v0s0,0,0,0l0,0,0,0,0,0,0,0,0,0h.07l0,0,.05,0,0,0,0,0,0,0s0,0,0,0l0,0s0,0,0,0v0s0,0,0,.05v0a.05.05,0,0,1,0,0l0,0,0,0,0,0h0a.16.16,0,0,0-.11.05.15.15,0,0,0,0,.1.21.21,0,0,0,0,.11.21.21,0,0,0,.11,0,.25.25,0,0,0,.19-.09.33.33,0,0,0,.06-.1s0-.06,0-.09,0-.07,0-.1a.36.36,0,0,0,0-.09l-.06-.07a.3.3,0,0,0-.11-.06.45.45,0,0,0-.2,0,.32.32,0,0,0-.09,0l-.1.1a.26.26,0,0,0,0,.23.35.35,0,0,0,.07.12l.09.07a.31.31,0,0,0,.13,0,.2.2,0,0,0,.13,0,.2.2,0,0,0,.09-.09.23.23,0,0,0,0-.14.28.28,0,0,0-.14-.21.33.33,0,0,0-.22,0,.26.26,0,0,0-.11.07.27.27,0,0,0-.07.14.28.28,0,0,0,0,.13l.09.09,0,0,.06,0a.23.23,0,0,0,.14,0,.2.2,0,0,0,.12-.08.19.19,0,0,0,.05-.14v0s0,0,0-.05a.3.3,0,0,0-.07-.1.25.25,0,0,0-.14-.06.24.24,0,0,0-.14,0,.23.23,0,0,0-.08.11.24.24,0,0,0,0,.15.26.26,0,0,0,.17.18.29.29,0,0,0,.13,0,.2.2,0,0,0,.09-.07.16.16,0,0,0,0-.12.15.15,0,0,0-.07-.09.14.14,0,0,0-.11,0Z" transform="translate(-0.84 0.15)"/><path class="cls-5" d="M14.4,3.59a.51.51,0,0,1-.48-.41.48.48,0,0,1,0-.24.48.48,0,0,1,.44-.36" transform="translate(-0.84 0.15)"/><path d="M14.4,3.44h-.1s0,0,0,0l-.07-.05h0l0,0a.38.38,0,0,1-.09-.12v0s0,0,0,0l0-.11V2.9l0,0s0,0,0,0l0,0h0l0,0,.07,0s0,0,0,0l0,0h0s.06,0,0,0a.15.15,0,0,0,.15-.15c0-.07-.07-.16-.15-.15a.77.77,0,0,0-.43.19.57.57,0,0,0-.17.45c0,.32.29.7.66.67a.16.16,0,0,0,.15-.15.15.15,0,0,0-.15-.15Z" transform="translate(-0.84 0.15)"/></g></g><g id="Top"><path class="cls-4" d="M14.27,1.56c-.08,0-.17.07-.17.16a.26.26,0,0,0,.11.23.56.56,0,0,0,.24.1,8.94,8.94,0,0,0,2.25.14l1.17,0c.36,0,.71,0,1.07,0l.41,0A4.19,4.19,0,0,0,20.55,2s.1,0,.11-.09-.06-.14-.13-.15-.15,0-.21,0a.26.26,0,0,0,.28-.1.34.34,0,0,0,0-.31A.51.51,0,0,0,20.25,1,6.31,6.31,0,0,0,18.57.77q-2-.08-3.93,0a1.1,1.1,0,0,0-.36.07.4.4,0,0,0-.23.29c0,.14.07.29.19.29" transform="translate(-0.84 0.15)"/><path d="M14.27,1.41a.34.34,0,0,0-.31.44c.09.3.44.35.7.4a14.11,14.11,0,0,0,2.76.08c.44,0,.89,0,1.34,0a4.57,4.57,0,0,0,1.17,0c.22,0,.78-.09.87-.35s-.24-.3-.4-.38l-.12.27a.42.42,0,0,0,.52-.35.53.53,0,0,0-.36-.56,3.78,3.78,0,0,0-1.2-.25c-.51,0-1-.05-1.52-.06-1,0-2.06,0-3.08.05a.73.73,0,0,0-.71.38.4.4,0,0,0,.27.56.15.15,0,0,0,.08-.29c0-.24.08-.35.27-.34h.09l.39,0,.79,0h1.64c.51,0,1,0,1.54,0a7.28,7.28,0,0,1,.8.1l.36.08.13,0c.17,0,.19.16.07.36-.15,0-.27.19-.11.27s.26.07.27.11l0-.14c-.13.16-.67.22-.86.25A3.37,3.37,0,0,1,19,2c-.5,0-1,0-1.51,0s-1,0-1.53,0c-.25,0-.51,0-.76,0a5.06,5.06,0,0,1-.52-.08l-.18,0a.24.24,0,0,1-.22-.19c.19,0,.19-.32,0-.3Z" transform="translate(-0.84 0.15)"/><path class="cls-4" d="M16.61,1.16a1.24,1.24,0,0,1,.1-1,.31.31,0,0,1,.1-.12.33.33,0,0,1,.13,0,5.34,5.34,0,0,1,1.13,0,.47.47,0,0,1,.2.06.5.5,0,0,1,.18.35,2.08,2.08,0,0,1,0,.61.14.14,0,0,1,0,.11.13.13,0,0,1-.09,0H18C18,1,18.07.78,18,.62a.41.41,0,0,0-.38-.14.67.67,0,0,0-.42.07A.49.49,0,0,0,17,1a.11.11,0,0,1,0,.08h0l-.25.06Z" transform="translate(-0.84 0.15)"/><path d="M16.76,1.12a1.08,1.08,0,0,1,0-.79.22.22,0,0,1,.1-.13,1,1,0,0,1,.24,0,4.18,4.18,0,0,1,.5,0,2.48,2.48,0,0,1,.47,0c.13,0,.16.15.18.27a1.55,1.55,0,0,1,0,.48.34.34,0,0,0,0,.1s0,0,0,0H18l.15.11c-.06-.2,0-.42-.09-.61a.63.63,0,0,0-.54-.2A.69.69,0,0,0,17,.51a.64.64,0,0,0-.15.28.76.76,0,0,0,0,.3l0-.07V1l0-.05-.11,0-.14,0h.08l-.08,0a.15.15,0,0,0-.18.1.16.16,0,0,0,.1.18.31.31,0,0,0,.23,0c.12,0,.26,0,.32-.15s0-.2,0-.3a.29.29,0,0,1,.14-.2.49.49,0,0,1,.29,0,.52.52,0,0,1,.25,0c.07,0,.06.14.06.22a1,1,0,0,0,0,.34.16.16,0,0,0,.14.11c.14,0,.36,0,.47-.06s.12-.3.12-.44,0-.7-.27-.88a1,1,0,0,0-.46-.09h-.52a4.2,4.2,0,0,0-.51,0,.47.47,0,0,0-.33.3,1.39,1.39,0,0,0-.07,1C16.53,1.38,16.82,1.31,16.76,1.12Z" transform="translate(-0.84 0.15)"/><g id="Details-3" data-name="Details"><path d="M14.76,1.59a7.3,7.3,0,0,0,2.51.25,11.45,11.45,0,0,0,1.31,0c.41,0,.83-.14,1.24-.21.19,0,.11-.32-.08-.29-.4.07-.8.17-1.21.21s-.84,0-1.26,0L16,1.51a3.21,3.21,0,0,1-1.19-.21c-.18-.07-.26.22-.08.29Z" transform="translate(-0.84 0.15)"/></g><path class="cls-6" d="M10.48,12.74a.81.81,0,0,1-.41-.6,1.64,1.64,0,0,1,.07-.76.59.59,0,0,1,.12-.22c.12-.14.33-.11.51-.07a5.71,5.71,0,0,0,2.18,0,1.87,1.87,0,0,1,.62-.06,2.91,2.91,0,0,1,.39.12c.76.28,1.59.34,2.35.63a.19.19,0,0,0-.25-.08.43.43,0,0,0-.2.22.93.93,0,0,0,0,.73,3.23,3.23,0,0,1,.22.41,5.2,5.2,0,0,0-1-.14,2.43,2.43,0,0,0-.66,0c-.25,0-.48.15-.73.18a4.16,4.16,0,0,1-1.89-.56,1.77,1.77,0,0,0-.68-.11.91.91,0,0,0-.61.31Z" transform="translate(-0.84 0.15)"/><path d="M10.56,12.61a.79.79,0,0,1-.35-.8,1.14,1.14,0,0,1,.13-.51c.11-.16.34-.07.5-.05a5.66,5.66,0,0,0,1.79.05,3.21,3.21,0,0,1,.92-.1,7.18,7.18,0,0,1,.87.26c.62.16,1.25.25,1.85.47.16.05.24-.15.15-.25-.24-.28-.57-.08-.7.19a1,1,0,0,0-.07.56,2.87,2.87,0,0,0,.28.68l.19-.18a5.26,5.26,0,0,0-1.63-.17,5.43,5.43,0,0,0-.67.16,1.5,1.5,0,0,1-.89-.05c-.79-.25-1.84-1-2.56-.22l.25.14h0c.07-.18-.22-.26-.28-.08h0a.15.15,0,0,0,.25.15c.68-.76,1.86.28,2.64.39a4.54,4.54,0,0,0,1.27-.19,5.05,5.05,0,0,1,1.55.16.15.15,0,0,0,.18-.19c-.07-.17-.19-.32-.25-.49a.74.74,0,0,1,0-.39c0-.07.12-.41.26-.26l.14-.25c-.78-.28-1.62-.36-2.4-.64a1.64,1.64,0,0,0-.93-.06,6.64,6.64,0,0,1-1.33.11c-.39,0-.77-.14-1.15-.14a.51.51,0,0,0-.51.35,1.28,1.28,0,0,0,.37,1.61C10.57,13,10.72,12.7,10.56,12.61Z" transform="translate(-0.84 0.15)"/><path class="cls-7" d="M16.44,13.11a1.56,1.56,0,0,0,.2-.93.47.47,0,0,0,0-.16.44.44,0,0,0-.25-.19.69.69,0,0,0-.35,0,.47.47,0,0,0-.28.22.69.69,0,0,0,0,.35,1.23,1.23,0,0,0,0,.19.74.74,0,0,0,.53.55Z" transform="translate(-0.84 0.15)"/><path d="M16.57,13.19a1.71,1.71,0,0,0,.23-.94.57.57,0,0,0-.17-.43.71.71,0,0,0-.44-.17.63.63,0,0,0-.46.14.6.6,0,0,0-.2.43,1,1,0,0,0,.28.83.64.64,0,0,0,.42.22.74.74,0,0,0,.21,0,.15.15,0,0,0,.15-.15.16.16,0,0,0-.15-.15h-.21l-.12-.06a.64.64,0,0,1-.28-.49.61.61,0,0,1,0-.33.3.3,0,0,1,.21-.14.48.48,0,0,1,.33.07.28.28,0,0,1,.1.23,1.45,1.45,0,0,1-.19.79C16.21,13.2,16.47,13.36,16.57,13.19Z" transform="translate(-0.84 0.15)"/><path class="cls-4" d="M21.07,2c.12,0,.21.12.24.25a1,1,0,0,1,0,.38,12.14,12.14,0,0,1-.58,1.86c-.31.72-.76,1.37-1.05,2.11-.13.34-.23.69-.35,1s-.31.77-.47,1.15l-1.3,2.89a2.58,2.58,0,0,1-.42.74.79.79,0,0,1-.72.28.25.25,0,0,1-.22-.21c0-.15.15-.23.27-.3a2.56,2.56,0,0,0,.89-1.22c.63-1.35,1.21-2.73,1.74-4.13.18-.46.35-.93.55-1.38.38-.89.85-1.73,1.23-2.61a.29.29,0,0,0,0-.27c-.07-.09-.21,0-.29.05s-.2.18-.3.12a.2.2,0,0,1-.06-.22.46.46,0,0,1,.13-.2,1.33,1.33,0,0,1,.7-.35Z" transform="translate(-0.84 0.15)"/><path d="M21,2.11c.19.06,0,.67,0,.82s-.12.44-.19.66a7.33,7.33,0,0,1-.51,1.27,14.78,14.78,0,0,0-1,2.09,26.22,26.22,0,0,1-1,2.58c-.36.8-.66,1.66-1.09,2.41-.15.26-.31.54-.62.44s-.08-.1.07-.22a2.07,2.07,0,0,0,.54-.67,21.74,21.74,0,0,0,1.08-2.35c.66-1.56,1.2-3.18,1.95-4.7.21-.44.43-.87.62-1.3.09-.18.28-.48.14-.68s-.23-.12-.37-.09-.23.19-.17,0A2.28,2.28,0,0,1,21,2.07a.15.15,0,0,0,.21-.22c-.29-.27-1.06.28-1.12.61a.32.32,0,0,0,.21.39c.09,0,.24-.07.28-.06s-.05.4-.12.54c-.46,1-.93,1.91-1.31,2.9s-.86,2.22-1.34,3.32c-.21.48-.42,1-.65,1.44a4,4,0,0,1-.39.66,4.39,4.39,0,0,1-.57.48c-.4.37.07.74.49.67.87-.17,1.21-1.57,1.51-2.25a32.22,32.22,0,0,0,1.32-3.09,11.3,11.3,0,0,1,.71-1.72,15.84,15.84,0,0,0,.71-1.43,7.69,7.69,0,0,0,.54-1.87c0-.3,0-.53-.34-.62S20.85,2.05,21,2.11Z" transform="translate(-0.84 0.15)"/><path class="cls-5" d="M12.64,5.49c.07-.17.15-.35.24-.52a9.77,9.77,0,0,1,.68-1l.62-.83c.15.08.15.33.07.49s-.23.29-.3.45-.07.24-.12.35-.24.32-.33.5a2.26,2.26,0,0,1-.11.22.86.86,0,0,1-.14.13l-.43.32" transform="translate(-0.84 0.15)"/><path d="M12.76,5.57a7.48,7.48,0,0,1,.69-1.2c.28-.39.57-.77.86-1.15l-.21,0c.16.1,0,.38-.1.46a2.4,2.4,0,0,0-.19.29c-.05.12-.07.24-.12.35s-.26.35-.35.56-.39.39-.6.54,0,.38.15.26.58-.35.71-.65.32-.44.41-.71A1.08,1.08,0,0,1,14.18,4a1.52,1.52,0,0,0,.22-.34A.51.51,0,0,0,14.25,3a.15.15,0,0,0-.2.06c-.29.38-.58.76-.86,1.15a6.75,6.75,0,0,0-.68,1.2c-.08.17.18.32.25.15Z" transform="translate(-0.84 0.15)"/><path class="cls-5" d="M12,6.87a26.41,26.41,0,0,0-2.11,3.46,2.06,2.06,0,0,0-.23,1.33c0,.1.1.21.2.19a.13.13,0,0,0,.07,0c.15-.16.05-.44.07-.67a1.21,1.21,0,0,1,.12-.38,17.34,17.34,0,0,1,1.54-2.64Z" transform="translate(-0.84 0.15)"/><path d="M11.87,6.79c-.48.71-1,1.42-1.4,2.15-.22.36-.42.72-.6,1.09a3.13,3.13,0,0,0-.4,1.29c0,.24.12.87.5.65a.49.49,0,0,0,.19-.33,2.36,2.36,0,0,1,.07-.75A13.55,13.55,0,0,1,11,9.48c.12-.22.26-.44.39-.65a4.9,4.9,0,0,0,.45-.67A6.29,6.29,0,0,0,12,7.54l.16-.63a.15.15,0,1,0-.28-.08l-.3,1.09a2.31,2.31,0,0,1-.38.64c-.26.39-.49.79-.72,1.2a6.42,6.42,0,0,0-.57,1.18,1.52,1.52,0,0,0,0,.52.41.41,0,0,1,0,.11c0,.22,0,.1,0,0s0-.34,0-.45a6,6,0,0,1,1-2.11c.43-.72.9-1.42,1.38-2.12C12.24,6.78,12,6.63,11.87,6.79Z" transform="translate(-0.84 0.15)"/></g><g id="Label"><path class="cls-2" d="M12.7,15c3.19.25,6.47.49,9.54-.5l.05,5.14a.36.36,0,0,1,0,.21.35.35,0,0,1-.2.13,22.93,22.93,0,0,1-8.83.8c-.22,0-.49-.09-.57-.32a.86.86,0,0,1,0-.28L12.75,15Z" transform="translate(-0.84 0.15)"/><path d="M12.7,15.13c3.2.25,6.47.47,9.58-.5l-.19-.15,0,2.67v1.33c0,.34.16,1.11-.12,1.33a1.81,1.81,0,0,1-.53.15l-.62.16c-.38.09-.77.17-1.16.24a23.74,23.74,0,0,1-2.67.33,22.23,22.23,0,0,1-2.45,0c-.39,0-.78,0-1.18-.08s-.6-.19-.62-.66a5.47,5.47,0,0,1,0-.57l.07-2.66,0-1.34c0-.19.08-.39-.08-.53s-.36.09-.21.21,0,.43,0,.51l0,.77,0,1.52,0,1.52a2.76,2.76,0,0,0,0,1.11c.24.57,1.31.46,1.79.49a23.55,23.55,0,0,0,2.91,0A25.36,25.36,0,0,0,20,20.62c.48-.09.95-.2,1.42-.32.28-.08.79-.11,1-.36s.07-.64.07-.89V17.53l0-3.05a.15.15,0,0,0-.19-.14c-3.08,1-6.33.73-9.5.49C12.51,14.81,12.51,15.11,12.7,15.13Z" transform="translate(-0.84 0.15)"/><path d="M14.15,19.64c.08-1.18.1-2.36.08-3.54l-.28.08a6.63,6.63,0,0,1,.58.81c.13.23.09.5.27.71s.21,0,.25-.07a11.69,11.69,0,0,1,.74-1.56L15.51,16l-.14,3.65c0,.19.29.19.3,0L15.81,16c0-.15-.2-.19-.28-.07a12.74,12.74,0,0,0-.77,1.63l.25-.06a.8.8,0,0,1-.11-.37,1.11,1.11,0,0,0-.14-.34c-.16-.26-.37-.5-.55-.75s-.28-.09-.28.07c0,1.18,0,2.36-.08,3.54,0,.19.29.19.3,0Z" transform="translate(-0.84 0.15)"/><path d="M16.75,16v3.58a.15.15,0,0,0,.3,0V16a.15.15,0,0,0-.3,0Z" transform="translate(-0.84 0.15)"/><path d="M18,16,18,19.59a.14.14,0,0,0,.15.15,9.19,9.19,0,0,1,1.39,0c.19,0,.19-.29,0-.3a9.19,9.19,0,0,0-1.39,0l.15.15L18.3,16a.15.15,0,0,0-.3,0Z" transform="translate(-0.84 0.15)"/><path d="M20.53,19.47c-.06-1.22-.07-2.44-.05-3.66,0-.19-.29-.19-.3,0,0,1.22,0,2.44.05,3.66,0,.19.31.19.3,0Z" transform="translate(-0.84 0.15)"/><path d="M20.49,17.52a8.65,8.65,0,0,1,.82-.89,2.05,2.05,0,0,0,.7-.82c.06-.18-.23-.26-.29-.08s-.43.52-.66.73a7.76,7.76,0,0,0-.78.84.17.17,0,0,0,0,.22.15.15,0,0,0,.21,0Z" transform="translate(-0.84 0.15)"/><path d="M20.27,17.45a4.31,4.31,0,0,0,.74.85l.88.86c.14.14.35-.08.22-.21l-.87-.84a5.08,5.08,0,0,1-.72-.81c-.1-.16-.36,0-.25.15Z" transform="translate(-0.84 0.15)"/></g></g></svg>