<svg id="Draw" xmlns="http://www.w3.org/2000/svg" viewBox="0 0 22.74 20.95"><defs><style>.cls-1{fill:#22aa29;}</style></defs><path class="cls-1" d="M.86,22.09a26.3,26.3,0,0,1,1.65-3.32C3.31,17.43,4.27,16,4,14.44a.17.17,0,0,1,.27.11l.64-2.34a.47.47,0,0,1,.27.21c.21-.6.39-1.22.55-1.83l.33.2L6.57,9a.72.72,0,0,0,.54.24,4.88,4.88,0,0,1,1-1.53l.36.25A4.6,4.6,0,0,0,9.54,6.62L9.76,7l.7-1.26.32.16.66-1.06a1.93,1.93,0,0,0,.54.35L13.41,4l.46.3,1-1c0,.31.5.32.75.13s.48-.49.79-.47a2.72,2.72,0,0,1,.38.11c.52.12,1-.41,1.54-.3a1.71,1.71,0,0,0,.49.14c.35,0,.59-.49.92-.41.12,0,.21.11.32.14s.42-.19.64-.29a1.78,1.78,0,0,1,.48-.08,5.42,5.42,0,0,0,2.12-.82,6.91,6.91,0,0,0-1.39,2.19l.41.15L22,4.7c-.07.16.05.45.16.32a2.64,2.64,0,0,0-.51,1c.13-.08.28.12.24.27s-.18.24-.29.35a1.19,1.19,0,0,0-.34,1l-.72.9a.58.58,0,0,1,.36.21,7,7,0,0,0-1,1,1.14,1.14,0,0,0,.42.33,5.48,5.48,0,0,0-1.19,1.35l.32.15a1.35,1.35,0,0,0-1.21.82.77.77,0,0,1-.15.3.76.76,0,0,1-.22.11l-.94.35.12.55c-.67.15-1.49.44-1.58,1.13a2,2,0,0,0-1.15.18c-.5.25-.91.71-1.46.79-.3,0-.61,0-.91,0s-.63.27-.6.57A3.1,3.1,0,0,0,9,16.62l-1.39-.35-.34.42a1.43,1.43,0,0,0-1.86.19A.36.36,0,0,0,5,16.67a.94.94,0,0,0-.45.32A22.85,22.85,0,0,0,.9,22.08Z" transform="translate(-0.71 -1.3)"/><path d="M1,22.13a49.08,49.08,0,0,1,2.37-4.55c.3-.56,1.24-2.29.74-2.93.07.1.22,0,.25-.06s.69-2,.66-2.06a.15.15,0,0,0,.25-.07c0-.14.44-1.68.67-1.54a.15.15,0,0,0,.22-.09c.17-.58.16-1.66.9-1.49a.16.16,0,0,0,.17-.07C7.34,9,7.86,7.69,8.35,8a.15.15,0,0,0,.18,0,4.71,4.71,0,0,0,.74-.74c.22-.3.19-.49.36-.18a.15.15,0,0,0,.26,0c.1-.18.49-1.2.82-1a.16.16,0,0,0,.2,0c.29-.46.41-1,1-.66a.18.18,0,0,0,.19,0c.43-.39,1.11-1.34,1.71-1a.16.16,0,0,0,.18,0c.24-.23.64-.7.9-.75.11,0,.4.1.57.08a1.59,1.59,0,0,0,.29-.15,4.51,4.51,0,0,1,1-.31A16.92,16.92,0,0,1,18.54,3a2.57,2.57,0,0,0,.61,0,.51.51,0,0,1,.53-.18.43.43,0,0,1,.35,0c.1,0,.19,0,.3,0a12.41,12.41,0,0,0,3.05-1.17l-.18-.24a8.61,8.61,0,0,0-1.41,2.22.15.15,0,0,0,.09.22c.37.15-.17.94,0,1.32a.16.16,0,0,0,.13.08h.11L22,4.94a3.75,3.75,0,0,0-.52,1,.15.15,0,0,0,.14.19,5.87,5.87,0,0,0-.48.89,6.15,6.15,0,0,1-.74,1.38.16.16,0,0,0,.07.25c.19.06-.64.83-.71.91a.17.17,0,0,0,0,.22c.33.32.19.24-.11.6s-.47.57-.68.89a.16.16,0,0,0,.05.21l.33.15.07-.28a1.68,1.68,0,0,0-1,.37c-.19.16-.23.35-.39.53a2.83,2.83,0,0,1-1.22.68.16.16,0,0,0-.1.19c.12.56-.31.46-.71.68s-.42.45-.67.64-.78.2-1.13.36c-.72.31-1,.73-1.88.78a1.86,1.86,0,0,0-.84.13c-.28.14-.25.29-.54.37s-1,0-1.39.09a3.77,3.77,0,0,1-1.94-.08.17.17,0,0,0-.15,0c-.33.4-1.16.1-1.69.25a3.83,3.83,0,0,1-.51.13c-.23,0-.32-.05-.54.05-.75.33-1.41,1.47-1.9,2.1s-.77,1.06-1.12,1.61c-.19.3-.66,1.54-.93,1.64s-.1.36.08.29.22-.27.32-.43c.32-.57.64-1.13,1-1.68.23-.34,2.54-3.77,3.1-3.14a.15.15,0,0,0,.21,0,1.28,1.28,0,0,1,1.68-.17.15.15,0,0,0,.18,0c.48-.59,1,0,1.62,0a2.14,2.14,0,0,0,.67-.27,3.33,3.33,0,0,1,1.6,0,.14.14,0,0,0,.18-.1c.17-.62,1.28-.4,1.74-.56.85-.31,1.2-.91,2.24-.87a.16.16,0,0,0,.15-.11c.19-.72.87-.88,1.47-1a.17.17,0,0,0,.11-.19c-.13-.6.36-.49.75-.73.57-.36.61-1.09,1.5-1.21.13,0,.23-.2.08-.27-.43-.21.71-1.11.89-1.27a.15.15,0,0,0,0-.24c-.53-.33.41-.88.62-1.05a.15.15,0,0,0,0-.21c-.42-.37.11-.48.36-.91,0,0,0-.07,0-.1a1.2,1.2,0,0,1,.47-1l.08-.13a2.93,2.93,0,0,0,0-.41c0-.07-.15-.13-.15-.16a3.21,3.21,0,0,1,.45-.8.15.15,0,0,0-.13-.22,7.33,7.33,0,0,1,.34-1c0-.08,0-.15-.1-.18-.61-.23.94-2,1-2.09a.15.15,0,0,0-.18-.24,8,8,0,0,1-2.6.9,11.08,11.08,0,0,0-1.41.32c-.62.19-.66,0-1.19.08s-.85.22-1.38.25c-.23,0-1.62.39-1.64.35a.16.16,0,0,0-.24,0c-.38.36-.75,1-1.29.63a.15.15,0,0,0-.18,0c-.47.42-1.15,1.39-1.78.9a.15.15,0,0,0-.21.06c-.08.13-.47,1-.78.85a.14.14,0,0,0-.2,0,4.24,4.24,0,0,1-.44.78c-.16.18,0,.43-.22.07a.15.15,0,0,0-.26,0c-.21.32-.72,1.37-1.27,1a.15.15,0,0,0-.18,0c-.26.31-.9,1.57-1.32,1.27a.15.15,0,0,0-.22.09c0,.14-.39,1.71-.66,1.55a.15.15,0,0,0-.22.09,7.3,7.3,0,0,1-.37,1.29c-.13.26.1.41-.22.24a.15.15,0,0,0-.22.09,7.81,7.81,0,0,1-.54,1.95c-.16.23.2.12-.23.17a.14.14,0,0,0-.14.19c.22,1.59-.67,2.91-1.44,4.22A28.19,28.19,0,0,0,.72,22.05C.65,22.23.94,22.31,1,22.13Z" transform="translate(-0.71 -1.3)"/><path d="M21.89,2.89c-2,1.85-4,3.7-6.12,5.45a36.75,36.75,0,0,1-3.49,2.06L8.77,12.7A20.56,20.56,0,0,0,6.2,14.47a16.22,16.22,0,0,0-1.52,1.68,42.88,42.88,0,0,0-2.81,3.77.15.15,0,0,0,.26.16,41.25,41.25,0,0,1,2.92-3.9,13.94,13.94,0,0,1,1.47-1.6,33.34,33.34,0,0,1,3.36-2.25c1.14-.75,2.27-1.55,3.45-2.25A18.35,18.35,0,0,0,16.1,8.44c2-1.75,4-3.52,6-5.33.14-.14-.07-.35-.22-.22Z" transform="translate(-0.71 -1.3)"/><path d="M7.37,9.68a5.2,5.2,0,0,1-.36,1c-.12.29-.23.6-.33.9a9.58,9.58,0,0,0-.38,2c0,.19.28.19.3,0a9.51,9.51,0,0,1,.39-2,17.45,17.45,0,0,0,.67-1.83c0-.19-.26-.27-.29-.08Z" transform="translate(-0.71 -1.3)"/><path d="M9.31,7.94c.07.33-.25.62-.39.89a4.29,4.29,0,0,0-.31,1c-.16.76-.32,1.52-.46,2.28,0,.19.26.27.29.08.15-.82.32-1.63.5-2.44a3,3,0,0,1,.42-1,1.09,1.09,0,0,0,.24-.83c0-.19-.33-.11-.29.08Z" transform="translate(-0.71 -1.3)"/><path d="M11.42,6.37a5.37,5.37,0,0,0-.61,1c-.12.37-.15.77-.24,1.14A21.11,21.11,0,0,1,9.86,11c-.06.18.23.26.29.08a20.16,20.16,0,0,0,.69-2.38c.09-.38.13-.78.24-1.16a4.27,4.27,0,0,1,.6-1c.11-.16-.15-.31-.26-.15Z" transform="translate(-0.71 -1.3)"/><path d="M11.94,10.28c-.08-.42.21-.82.27-1.22s0-.8.13-1.2a5.47,5.47,0,0,1,1.08-2.25c.12-.15-.09-.36-.22-.21a5.8,5.8,0,0,0-1.15,2.38c-.09.44-.06.89-.15,1.32s-.34.8-.25,1.26c0,.18.33.1.29-.08Z" transform="translate(-0.71 -1.3)"/><path d="M13.59,9.14a2.39,2.39,0,0,1,.33-1.06l.4-1L15.17,5c.07-.18-.22-.26-.29-.08L14,7.07l-.43,1.08a2.05,2.05,0,0,0-.28,1c0,.19.33.19.3,0Z" transform="translate(-0.71 -1.3)"/><path d="M15.06,8.59c.22-.73.52-1.44.79-2.15a9.17,9.17,0,0,1,1-2c.11-.16-.15-.31-.26-.15a9.17,9.17,0,0,0-1,2c-.28.73-.59,1.47-.82,2.22a.15.15,0,0,0,.29.08Z" transform="translate(-0.71 -1.3)"/><path d="M17.41,6.28a2.07,2.07,0,0,1,.16-.65c.1-.19.28-.32.39-.5s.08-.41.12-.63a1.23,1.23,0,0,1,.28-.6c.12-.15-.09-.36-.21-.21a1.47,1.47,0,0,0-.33.6,2,2,0,0,0-.06.35.78.78,0,0,1-.05.34c-.12.19-.31.31-.41.52a2.77,2.77,0,0,0-.18.7c0,.19.26.27.29.08Z" transform="translate(-0.71 -1.3)"/><path d="M19.61,5.75a1.07,1.07,0,0,0,.61-.1,1.15,1.15,0,0,1,.58-.06c.08,0,.15-.08.15-.15a.15.15,0,0,0-.15-.15,1.35,1.35,0,0,0-.6,0c-.16,0-.34.16-.51.12a.15.15,0,0,0-.08.29Z" transform="translate(-0.71 -1.3)"/><path d="M18.19,7.13a2.94,2.94,0,0,0,.9-.32,2.47,2.47,0,0,1,1-.16.15.15,0,1,0,0-.3,2.8,2.8,0,0,0-1,.15,4.32,4.32,0,0,0-.45.19,1,1,0,0,1-.43.14c-.2,0-.2.31,0,.3Z" transform="translate(-0.71 -1.3)"/><path d="M16.28,8.89c.59,0,.95-.54,1.5-.68a4.92,4.92,0,0,1,1.09-.1A3.09,3.09,0,0,1,20,8.32c.18.07.26-.22.08-.29a4.28,4.28,0,0,0-2.19-.14,1.93,1.93,0,0,0-.81.34,1.51,1.51,0,0,1-.79.36.15.15,0,0,0,0,.3Z" transform="translate(-0.71 -1.3)"/><path d="M16,10.46a3.62,3.62,0,0,1,1.5-.58c.27,0,.55-.07.82-.09l.4,0c.12,0,.27,0,.35.07s.34-.07.21-.21-.49-.16-.74-.15-.64,0-1,.1a4.07,4.07,0,0,0-1.74.63c-.15.12,0,.38.16.26Z" transform="translate(-0.71 -1.3)"/><path d="M13.39,11.3a1.69,1.69,0,0,1,1,.22,2.06,2.06,0,0,0,1,.14,8.69,8.69,0,0,1,2.39,0c.19,0,.27-.25.08-.29a8.52,8.52,0,0,0-2.47,0,2.12,2.12,0,0,1-1.13-.21,1.6,1.6,0,0,0-.94-.14c-.19,0-.11.33.08.29Z" transform="translate(-0.71 -1.3)"/><path d="M11.59,12.49l1.25.17c.4.05.79.12,1.18.13A1.45,1.45,0,0,1,15,13c.09.09.15.23.3.24a.23.23,0,0,0,.24-.17c.06-.18-.23-.26-.29-.08v0l.07-.09c.05,0-.23-.25-.26-.27a1.22,1.22,0,0,0-.36-.14,6,6,0,0,0-1-.06c-.73-.07-1.46-.19-2.19-.29-.19,0-.18.28,0,.3Z" transform="translate(-0.71 -1.3)"/><path d="M10.57,14.53c.14-.21.52-.24.74-.28a2.41,2.41,0,0,1,.93.06,5.71,5.71,0,0,0,1.84.1c.19,0,.2-.32,0-.3a5.67,5.67,0,0,1-1.09,0c-.36,0-.7-.13-1.05-.19A2.88,2.88,0,0,0,11,14a1,1,0,0,0-.66.36c-.1.16.16.31.26.15Z" transform="translate(-0.71 -1.3)"/><path d="M8,14.36c.35-.11.71.2,1,.35a4.79,4.79,0,0,0,1.09.41.15.15,0,0,0,.08-.29A4.59,4.59,0,0,1,9,14.38a1.48,1.48,0,0,0-1.1-.31.15.15,0,0,0,.08.29Z" transform="translate(-0.71 -1.3)"/><path d="M6.8,15.1a1.66,1.66,0,0,1,.76.14l.75.36a.15.15,0,0,0,.2,0,.16.16,0,0,0,0-.21,3.2,3.2,0,0,0-1.74-.53c-.08,0-.12.12-.1.19a.15.15,0,0,0,.18.1Z" transform="translate(-0.71 -1.3)"/></svg>