<svg xmlns="http://www.w3.org/2000/svg" viewBox="0 0 22.25 22.7"><defs><style>.cls-1{fill:#22aa29;}.cls-2{fill:#fff;}.cls-3{fill:#dadada;}.cls-4{fill:#f5c139;}.cls-5{fill:#efa302;}</style></defs><g id="Feuille"><path class="cls-1" d="M0,18.52a20.86,20.86,0,0,1,1.43-2.88C2.13,14.47,3,13.2,2.7,11.87a.14.14,0,0,1,.23.1l.56-2a.41.41,0,0,1,.24.19c.18-.53.34-1.06.47-1.6l.3.18L5,7.09a.62.62,0,0,0,.47.22A4.08,4.08,0,0,1,6.27,6l.32.22a4.29,4.29,0,0,0,1-1.12l.19.35.61-1.09.28.13.58-.92a1.77,1.77,0,0,0,.46.31l1.24-1.11.41.26.87-.82c0,.27.44.27.66.11s.41-.43.68-.41a2.19,2.19,0,0,1,.34.1c.45.1.88-.36,1.33-.26a2.3,2.3,0,0,0,.43.12c.3,0,.51-.43.8-.36.1,0,.18.1.28.12s.36-.16.55-.25a1.2,1.2,0,0,1,.42-.07A4.67,4.67,0,0,0,19.52.58a6,6,0,0,0-1.2,1.9l.35.14-.32.78c-.05.14,0,.39.15.28a2.33,2.33,0,0,0-.45.87c.12-.06.25.11.21.24s-.16.21-.25.3a1,1,0,0,0-.29.87l-.63.78a.48.48,0,0,1,.31.19,5.25,5.25,0,0,0-.87.83,1.06,1.06,0,0,0,.37.29,4.65,4.65,0,0,0-1,1.17l.29.13a1.19,1.19,0,0,0-1.06.71.64.64,0,0,1-.13.26.44.44,0,0,1-.19.1l-.82.3.11.48c-.59.13-1.3.38-1.38,1a1.73,1.73,0,0,0-1,.16c-.44.22-.79.62-1.27.69-.26,0-.53,0-.79,0s-.55.23-.52.49a2.76,2.76,0,0,0-2,.24l-1.21-.29-.29.35A1.25,1.25,0,0,0,4,14a.3.3,0,0,0-.39-.19.83.83,0,0,0-.39.28A19.65,19.65,0,0,0,0,18.51Z" transform="translate(0.15 -0.43)"/><path d="M.16,18.56c.57-1.39,1.35-2.63,2.05-3.95.29-.53,1.07-2,.62-2.54.07.09.22,0,.25-.06a17.89,17.89,0,0,0,.54-1.79.15.15,0,0,0,.25-.06c0-.13.39-1.43.55-1.33a.15.15,0,0,0,.22-.09c.15-.51.13-1.43.76-1.29a.14.14,0,0,0,.17-.07c.08-.19.53-1.35.94-1a.14.14,0,0,0,.18,0,4.94,4.94,0,0,0,1-1.15H7.42l.19.35a.15.15,0,0,0,.26,0c.08-.15.42-1,.69-.9a.15.15,0,0,0,.2,0C9,4.16,9.1,3.71,9.6,4a.15.15,0,0,0,.18,0c.37-.33,1-1.15,1.46-.82a.17.17,0,0,0,.19,0c.19-.19.57-.62.75-.66s.37.09.51.07.18-.1.26-.13l.71-.32a.6.6,0,0,0,.19.06A12.88,12.88,0,0,1,15.37,2a2.13,2.13,0,0,0,.55-.05.47.47,0,0,1,.45-.15.39.39,0,0,1,.3,0c.09,0,.16,0,.27,0a11.09,11.09,0,0,0,2.65-1L19.41.47a7.38,7.38,0,0,0-1.22,1.94.15.15,0,0,0,.09.22c.28.1-.16.81,0,1.13a.14.14,0,0,0,.12.08h.1l-.13-.23a3.54,3.54,0,0,0-.46.91.15.15,0,0,0,.14.19,3.37,3.37,0,0,0-.44.75A5.05,5.05,0,0,1,17,6.64a.16.16,0,0,0,.07.25c.11,0-.56.69-.63.76a.17.17,0,0,0,0,.22c.29.27.18.19-.09.5a7.55,7.55,0,0,0-.6.77.16.16,0,0,0,.06.21l.28.13.08-.28a1.47,1.47,0,0,0-.85.33c-.16.14-.2.31-.34.46a2.43,2.43,0,0,1-1,.58.16.16,0,0,0-.11.19c.1.48-.26.39-.61.57s-.36.4-.59.57-.67.16-1,.3c-.62.27-.86.63-1.63.68a1.69,1.69,0,0,0-.74.11c-.25.13-.21.25-.46.32s-.83,0-1.21.08a3.2,3.2,0,0,1-1.68-.07.14.14,0,0,0-.14,0c-.29.35-1,.07-1.47.21a3.18,3.18,0,0,1-.43.12c-.2,0-.29,0-.48,0C2.74,14,2.16,15,1.74,15.57s-.67.91-1,1.39C.6,17.22.19,18.3,0,18.38s-.1.36.08.29.2-.24.28-.38c.29-.5.56-1,.88-1.46.19-.29,2.19-3.25,2.66-2.73a.14.14,0,0,0,.21,0A1.1,1.1,0,0,1,5.52,14a.15.15,0,0,0,.18,0c.41-.51.88,0,1.39,0a2.06,2.06,0,0,0,.59-.23,2.8,2.8,0,0,1,1.38,0,.16.16,0,0,0,.18-.11c.14-.52,1.11-.33,1.5-.47.74-.27,1-.79,1.94-.76a.16.16,0,0,0,.15-.11c.16-.61.75-.75,1.27-.87a.15.15,0,0,0,.1-.19c-.11-.51.31-.4.65-.61.49-.31.54-1,1.3-1.05a.15.15,0,0,0,.07-.28c-.34-.16.63-.94.78-1.07a.14.14,0,0,0,0-.23c-.43-.27.36-.74.54-.89a.15.15,0,0,0,0-.21.74.74,0,0,0-.38-.22l.06.25A6.74,6.74,0,0,0,17.86,6s.33-.72.4-.92.13-.15.15-.23-.05-.2-.05-.28-.15-.11-.15-.14a5.58,5.58,0,0,1,.42-.66.15.15,0,0,0-.13-.22s.29-.81.31-.87,0-.16-.1-.19c-.49-.18.83-1.69.92-1.79a.15.15,0,0,0-.19-.23,7.06,7.06,0,0,1-2.26.78A9.83,9.83,0,0,0,16,1.51c-.53.17-.57,0-1,.07s-.73.19-1.19.21c-.2,0-1.41.34-1.42.32a.15.15,0,0,0-.23,0c-.33.31-.64.83-1.1.54a.15.15,0,0,0-.18,0c-.41.36-1,1.2-1.53.78-.06,0-.16,0-.2.06s-.41.84-.65.73a.16.16,0,0,0-.21,0L7.61,5.35h.26L7.68,5a.15.15,0,0,0-.26,0c-.17.28-.61,1.17-1.07.85a.14.14,0,0,0-.18,0C5.94,6.13,5.39,7.21,5,7a.16.16,0,0,0-.22.09c0,.13-.35,1.46-.54,1.34a.15.15,0,0,0-.22.09c-.14.54-.3,1.07-.48,1.6L3.83,10a.54.54,0,0,0-.26-.21.16.16,0,0,0-.22.09l-.56,2L3,11.86c-.12-.16-.14-.16-.34-.14a.15.15,0,0,0-.14.19c.19,1.37-.59,2.52-1.25,3.65A23.26,23.26,0,0,0-.13,18.48C-.21,18.66.08,18.74.16,18.56Z" transform="translate(0.15 -0.43)"/><path d="M18.28,1.82C16.55,3.43,14.76,5,13,6.55a29.41,29.41,0,0,1-3,1.79l-3,2a17.31,17.31,0,0,0-2.23,1.54,12.26,12.26,0,0,0-1.32,1.47A35.39,35.39,0,0,0,.87,16.63c-.11.16.15.31.26.15A36.26,36.26,0,0,1,3.66,13.4,12.05,12.05,0,0,1,4.94,12a30.21,30.21,0,0,1,2.91-2c1-.65,2-1.34,3-2a15,15,0,0,0,2.42-1.42C15,5.15,16.79,3.61,18.49,2c.14-.13-.07-.34-.21-.21Z" transform="translate(0.15 -0.43)"/><path d="M5.64,7.73a4.38,4.38,0,0,1-.3.86,7.47,7.47,0,0,0-.29.79,9.13,9.13,0,0,0-.34,1.73c0,.19.28.19.3,0A8.38,8.38,0,0,1,5.36,9.4a15.9,15.9,0,0,0,.57-1.59c0-.19-.25-.27-.29-.08Z" transform="translate(0.15 -0.43)"/><path d="M7.33,6.22c.06.28-.22.54-.34.76a3.71,3.71,0,0,0-.26.86c-.15.66-.28,1.32-.4,2,0,.19.25.27.29.08.13-.71.27-1.42.43-2.12a2.7,2.7,0,0,1,.36-.9.93.93,0,0,0,.21-.73c0-.19-.32-.11-.29.07Z" transform="translate(0.15 -0.43)"/><path d="M9.17,4.85a4.26,4.26,0,0,0-.53.9c-.1.31-.14.66-.21,1a19.4,19.4,0,0,1-.61,2.14c-.07.19.22.27.28.08a18.19,18.19,0,0,0,.6-2.07c.08-.33.12-.68.21-1A3.46,3.46,0,0,1,9.43,5c.11-.16-.15-.32-.26-.15Z" transform="translate(0.15 -0.43)"/><path d="M9.66,8.25c-.07-.36.18-.7.23-1s0-.69.12-1a4.64,4.64,0,0,1,.93-1.95c.12-.15-.09-.36-.22-.21a4.91,4.91,0,0,0-1,2.08c-.08.38-.06.77-.14,1.14a2.64,2.64,0,0,0-.21,1.11c0,.18.33.1.29-.08Z" transform="translate(0.15 -0.43)"/><path d="M11.1,7.26a2,2,0,0,1,.28-.92l.35-.86.73-1.81c.08-.17-.21-.25-.29-.08l-.76,1.87L11,6.4a1.76,1.76,0,0,0-.23.86c0,.19.32.2.3,0Z" transform="translate(0.15 -0.43)"/><path d="M12.37,6.79c.19-.63.45-1.25.69-1.87a8,8,0,0,1,.85-1.71c.11-.16-.15-.31-.26-.16a8.72,8.72,0,0,0-.86,1.73c-.24.64-.51,1.28-.71,1.93a.15.15,0,0,0,.29.08Z" transform="translate(0.15 -0.43)"/><path d="M14.41,4.78a2.09,2.09,0,0,1,.14-.56c.09-.16.25-.27.34-.43a1.31,1.31,0,0,0,.1-.55,1.24,1.24,0,0,1,.24-.52c.12-.15-.09-.36-.21-.21a1.52,1.52,0,0,0-.29.53,1.67,1.67,0,0,0-.05.31.58.58,0,0,1,0,.29,3.79,3.79,0,0,0-.34.45,1.85,1.85,0,0,0-.17.61.16.16,0,0,0,.11.19.15.15,0,0,0,.18-.11Z" transform="translate(0.15 -0.43)"/><path d="M16.3,4.33a.85.85,0,0,0,.54-.09,1.2,1.2,0,0,1,.5,0A.15.15,0,0,0,17.49,4a.16.16,0,0,0-.15-.15,1.35,1.35,0,0,0-.53,0L16.57,4l-.05,0h-.14a.15.15,0,0,0-.18.11.14.14,0,0,0,.1.18Z" transform="translate(0.15 -0.43)"/><path d="M15.07,5.54a2.6,2.6,0,0,0,.79-.29,2.39,2.39,0,0,1,.84-.14c.19,0,.19-.29,0-.3a2.5,2.5,0,0,0-.86.14,2,2,0,0,0-.4.17,1.23,1.23,0,0,1-.37.12.15.15,0,0,0,0,.3Z" transform="translate(0.15 -0.43)"/><path d="M13.41,7.06c.52,0,.83-.47,1.31-.58a3.7,3.7,0,0,1,.94-.09,2.69,2.69,0,0,1,1,.18c.18.07.26-.22.08-.29a3.75,3.75,0,0,0-1.91-.12,1.72,1.72,0,0,0-.71.3,1.27,1.27,0,0,1-.68.3c-.2,0-.2.31,0,.3Z" transform="translate(0.15 -0.43)"/><path d="M13.13,8.43a3.08,3.08,0,0,1,1.31-.5c.23,0,.47-.06.7-.08l.35,0c.1,0,.22,0,.29.06s.34-.07.21-.22-.44-.14-.66-.13-.56,0-.83.09A3.45,3.45,0,0,0,13,8.17c-.16.11,0,.37.15.26Z" transform="translate(0.15 -0.43)"/><path d="M10.9,9.16a1.5,1.5,0,0,1,.85.19,1.66,1.66,0,0,0,.88.12,7.55,7.55,0,0,1,2.07,0c.19,0,.27-.25.08-.29a7.74,7.74,0,0,0-2.15,0,1.81,1.81,0,0,1-1-.18,1.43,1.43,0,0,0-.84-.12c-.18,0-.11.33.08.29Z" transform="translate(0.15 -0.43)"/><path d="M9.34,10.2l1.09.14a8.61,8.61,0,0,0,1,.12,1.25,1.25,0,0,1,.87.19c.09.08.13.2.27.21a.21.21,0,0,0,.23-.16c.07-.18-.22-.26-.29-.08v0l.07-.09c.07-.05-.15-.2-.21-.24a1.43,1.43,0,0,0-.31-.12,7.54,7.54,0,0,0-.83-.06C10.6,10.09,10,10,9.34,9.9c-.19,0-.19.27,0,.3Z" transform="translate(0.15 -0.43)"/><path d="M8.47,12c.11-.17.44-.2.63-.23a2,2,0,0,1,.8,0,4.78,4.78,0,0,0,1.6.08c.19,0,.19-.32,0-.3a4.3,4.3,0,0,1-.95,0c-.31,0-.6-.11-.91-.16a2.22,2.22,0,0,0-.85.07.81.81,0,0,0-.58.32c-.11.16.15.31.26.15Z" transform="translate(0.15 -0.43)"/><path d="M6.2,11.82c.3-.09.61.18.86.31a4.63,4.63,0,0,0,.94.35.15.15,0,0,0,.08-.29,3.65,3.65,0,0,1-1-.39,1.29,1.29,0,0,0-1-.27c-.18.06-.1.35.08.29Z" transform="translate(0.15 -0.43)"/><path d="M5.18,12.47a1.29,1.29,0,0,1,.64.12c.22.09.44.2.65.31a.16.16,0,0,0,.21-.06.14.14,0,0,0-.06-.2,2.69,2.69,0,0,0-1.52-.46.15.15,0,0,0-.11.18.16.16,0,0,0,.19.11Z" transform="translate(0.15 -0.43)"/></g><g id="Œuf"><path class="cls-2" d="M8.23,13.52C9.9,10.13,14,3.35,18.46,4.5c1.26.55,1.64,2,1.75,3.29.3,4.29-.11,9.31-3.16,12.59-2.1,2.77-6.21,2.78-9,1.08-2.34-1.94-1.16-6.09.29-8.27Z" transform="translate(0.15 -0.43)"/><path d="M8.36,13.6a24.45,24.45,0,0,1,4.83-7A6.83,6.83,0,0,1,17,4.55a2.3,2.3,0,0,1,2.32.84,4.76,4.76,0,0,1,.74,2.4c.32,3.46,0,7.35-1.66,10.44a8.34,8.34,0,0,1-3.53,3.69,7.09,7.09,0,0,1-4.93.21,4.17,4.17,0,0,1-2.44-1.5,4.36,4.36,0,0,1-.63-2.46,9.42,9.42,0,0,1,1.6-4.9l-.27-.12-.11.33c-.06.18.23.26.29.08l.11-.33c0-.16-.19-.25-.28-.11-1.43,2.2-2.91,6.81,0,8.58a7.78,7.78,0,0,0,4.86,1,6.36,6.36,0,0,0,4.3-2.43C20,17.17,20.56,13,20.43,9.05c-.05-1.52-.11-3.51-1.5-4.46-1.08-.74-2.71-.31-3.77.23-3.29,1.66-5.48,5.44-7.06,8.62C8,13.62,8.28,13.77,8.36,13.6Z" transform="translate(0.15 -0.43)"/><path class="cls-3" d="M21.58,9.7c1.68,5.85-2.13,15.39-9.37,12.89,7.57-.58,9.1-11.12,7.48-17.06C20.66,6.56,21.73,8.59,21.58,9.7Z" transform="translate(0.15 -0.43)"/><path d="M21.44,9.74c1.55,5.63-2,15.09-9.19,12.71l0,.29c7.85-.69,9.24-11.17,7.63-17.25l-.26.15c.93,1,2,2.62,1.85,4.06,0,.2.29.19.3,0,.12-1.53-1-3.19-1.93-4.28a.15.15,0,0,0-.25.15c1.55,5.86.29,16.2-7.34,16.87a.15.15,0,0,0,0,.3c7.45,2.46,11.17-7.23,9.56-13.08A.15.15,0,0,0,21.44,9.74Z" transform="translate(0.15 -0.43)"/><path class="cls-4" d="M8.76,18.56C7.2,13.7,15.48,7.77,17.23,14.23,18.22,18.8,10.78,24.32,8.76,18.56Z" transform="translate(0.15 -0.43)"/><path d="M8.9,18.52a5.25,5.25,0,0,1,1.4-4.95c1.06-1.18,2.75-2.31,4.41-2,1.86.37,2.7,2.6,2.38,4.29a6.65,6.65,0,0,1-3.33,4.42,3.86,3.86,0,0,1-2.73.48A3.34,3.34,0,0,1,8.9,18.52c-.06-.18-.35-.1-.29.08a3.87,3.87,0,0,0,1.86,2.31A3.48,3.48,0,0,0,13,21a7,7,0,0,0,4.14-4.2c.63-1.79.18-4.29-1.68-5.2-1.61-.8-3.51.08-4.75,1.16-1.63,1.42-2.8,3.71-2.13,5.89C8.67,18.78,9,18.7,8.9,18.52Z" transform="translate(0.15 -0.43)"/><path class="cls-5" d="M10.76,19.5c-1.8-1.58-1.09-4.56.52-6,.14-.12-.07-.34-.21-.21-1.73,1.55-2.44,4.74-.52,6.43.14.13.36-.08.21-.21Z" transform="translate(0.15 -0.43)"/><path class="cls-5" d="M13.62,12c3.91,1.31,1.75,6.66-1,8.17C16.26,19.14,18.65,12.49,13.62,12Z" transform="translate(0.15 -0.43)"/></g></svg>